{
.appVersion = "1312";
DisplayStrings = (
"/horncomb O/Ohorn U/Uhorn/ohorn/uhorn/o.sc/ohorn.sc/u.sc/uhorn.sc/Uhorn H/Uhorntilde H/dieresiscomb.cap/gravecomb/acutecomb.cap/gravecomb.cap/acutecomb.cap/Udieresisacute/brevecomb_hookabovecomb.cap/Abrevehookabove/space µ",
"H/Omega/alpha/leniscmb/psili/alphapsili/rturned",
"/clickdental/clickdental/clicklateral t/clickalveolar/jdotlessstroke nl/clickretroflex o!\012/clickalveolar/istroke/jdotlessstroke/jdotlessstrokehook/florin e#Ahashtag\0121234567890",
"/zretroflexhook/space/shook/etapsilioxia/ypogegrammenicomb/eta/etapsilioxiaypogegrammeni",
"/a.sc/zero.osf t/colonsign $/baht d/strokeshortcomb/dcroat/dong/cedi/colonsign/Hbar/one.osf/two.osf/three.osf/four.osf/five.osf/six.osf/seven.osf/eight.osf/nine.osf",
"/zero.tosf",
"sea?!-/one.tf/endash/figuredash/emdash/interrobang.ss13/g.ss03 scapes/space egjy\012Latin",
"/doublebrevebelowcomb/breveinverteddoublecomb/space/space/space/undertie",
"aqquacd/a.ss02.001 \012Wwvw/w.002/w.ss06 \012?Hey!/quotedblright \012wicked/space quick\012ege/e.ss06.001 gq/interrobang.ss13/g.ss06.001",
"/l.ss12/lacute.ss12/lbelt.ss12 l/l.ss12/lcaron.ss12/lcommaaccent.ss12 ·l/ldot/l.ss12/ldot.ss12/ldotbelow.ss12/ldotbelowmacron.ss12/lezh.ss12/lhookretroflex.ss12/llinebelow.ss12/lmiddletilde.ss12/lslash.ss12 \012/i.ss12/fi/i.ss12/fi.ss12/idotless.ss12/iacute.ss12/ibreve.ss12/icaron.ss12/icircumflex.ss12/idieresis.ss12/idotaccent.ss12/idotbelow.ss12/igrave.ss12/ij.ss12/imacron.ss12/iogonek.ss12/istroke.ss12/itilde.ss12 \012EOFGBu/u.ss01/a.ss02.001 B\012HEHFHPGHP\012HOHOHO\012POP",
"was/space Act/space normal\012Just/space vawalk/space past/space him/space wmioghtpqbd\012levon/idotless itaecæoaotated/space receipt\012ncncnconc/space fact/space oc/space tunker/space ivivovoyoy/space coconut/space that/space balkhmnu/space don't/space '\"\012uatllianues/a.ss01/u.ss01 tt\012dxo",
"/e.archive/g.archive/j.archive/jdotless.archive/y.archive \012egj/jdotless y",
e,

glyphs = (
{
glyphname = A;
lastChange = "2020-04-07 07:48:06 +0000";
layers = (
{
anchors = (
{
name = bottom;
position = "{310, 0}";
},
{
name = ogonek;
position = "{528, 0}";
},
{
name = top;
position = "{310, 700}";
}
);
layerId = "AB099EFE-E788-4EFC-8633-CF147CB782A6";
paths = (
{
closed = 1;
nodes = (
"24 0 LINE",
"58 0 LINE",
"214 416 LINE",
"306 666 LINE",
"310 666 LINE",
"402 416 LINE",
"558 0 LINE",
"592 0 LINE",
"326 700 LINE",
"292 700 LINE"
);
},
{
closed = 1;
nodes = (
"130 226 LINE",
"486 226 LINE",
"486 254 LINE",
"130 254 LINE"
);
}
);
width = 616;
},
{
anchors = (
{
name = bottom;
position = "{344, 0}";
},
{
name = ogonek;
position = "{618, 0}";
},
{
name = top;
position = "{344, 700}";
}
);
layerId = "2D8F7115-C311-411E-929D-56333CF7FFB2";
paths = (
{
closed = 1;
nodes = (
"4 0 LINE",
"180 0 LINE",
"286 348 LINE",
"344 542 LINE",
"348 542 LINE",
"404 346 LINE",
"510 0 LINE",
"686 0 LINE",
"460 700 LINE",
"232 700 LINE"
);
},
{
closed = 1;
nodes = (
"164 134 LINE",
"524 134 LINE",
"524 266 LINE",
"164 266 LINE"
);
}
);
width = 690;
},
{
anchors = (
{
name = bottom;
position = "{332, 0}";
},
{
name = ogonek;
position = "{578, 0}";
},
{
name = top;
position = "{332, 700}";
}
);
associatedMasterId = "AB099EFE-E788-4EFC-8633-CF147CB782A6";
layerId = "118C2287-473A-4C1A-8D33-C3B93A8616D0";
name = "Half {450}";
paths = (
{
closed = 1;
nodes = (
"16 0 LINE",
"122 0 LINE",
"254 382 LINE",
"328 604 LINE",
"332 604 LINE",
"406 382 LINE",
"538 0 LINE",
"644 0 LINE",
"396 700 LINE",
"264 700 LINE"
);
},
{
closed = 1;
nodes = (
"148 176 LINE",
"512 176 LINE",
"512 264 LINE",
"148 264 LINE"
);
}
);
width = 660;
}
);
leftKerningGroup = LAT_A_UC;
rightKerningGroup = LAT_A_UC;
unicode = 0041;
},
{
glyphname = AE;
lastChange = "2020-04-07 04:51:13 +0000";
layers = (
{
anchors = (
{
name = bottom;
position = "{526, 0}";
},
{
name = top;
position = "{542, 700}";
}
);
layerId = "AB099EFE-E788-4EFC-8633-CF147CB782A6";
paths = (
{
closed = 1;
nodes = (
"8 0 LINE",
"44 0 LINE",
"280 416 LINE",
"412 648 LINE",
"434 648 LINE",
"430 700 LINE",
"406 700 LINE"
);
},
{
closed = 1;
nodes = (
"162 226 LINE",
"464 226 LINE",
"460 254 LINE",
"162 254 LINE"
);
},
{
closed = 1;
nodes = (
"420 566 LINE",
"470 0 LINE",
"800 0 LINE",
"800 28 LINE",
"498 28 LINE",
"470 346 LINE",
"762 346 LINE",
"762 374 LINE",
"468 374 LINE",
"440 672 LINE",
"786 672 LINE",
"786 700 LINE",
"408 700 LINE"
);
}
);
width = 856;
},
{
anchors = (
{
name = bottom;
position = "{550, 0}";
},
{
name = top;
position = "{550, 700}";
}
);
layerId = "2D8F7115-C311-411E-929D-56333CF7FFB2";
paths = (
{
closed = 1;
nodes = (
"4 0 LINE",
"190 0 LINE",
"326 306 LINE",
"424 548 LINE",
"436 548 LINE",
"428 700 LINE",
"314 700 LINE"
);
},
{
closed = 1;
nodes = (
"206 134 LINE",
"586 134 LINE",
"574 266 LINE",
"206 266 LINE"
);
},
{
closed = 1;
nodes = (
"430 454 LINE",
"468 0 LINE",
"852 0 LINE",
"852 152 LINE",
"618 152 LINE",
"606 276 LINE",
"826 276 LINE",
"826 428 LINE",
"594 428 LINE",
"584 548 LINE",
"832 548 LINE",
"844 700 LINE",
"422 700 LINE"
);
}
);
width = 896;
}
);
leftKerningGroup = LAT_AE_UC;
rightKerningGroup = LAT_E_UC;
rightMetricsKey = E;
unicode = 00C6;
},
{
glyphname = B;
lastChange = "2020-04-20 08:10:01 +0000";
layers = (
{
anchors = (
{
name = bottom;
position = "{276, 0}";
},
{
name = center;
position = "{110, 200}";
},
{
name = top;
position = "{272, 700}";
}
);
layerId = "AB099EFE-E788-4EFC-8633-CF147CB782A6";
paths = (
{
closed = 1;
nodes = (
"292 0 LINE SMOOTH",
"422 0 OFFCURVE",
"508 70 OFFCURVE",
"508 184 CURVE SMOOTH",
"508 280 OFFCURVE",
"446 344 OFFCURVE",
"362 366 CURVE",
"362 362 LINE",
"424 388 OFFCURVE",
"472 450 OFFCURVE",
"472 528 CURVE SMOOTH",
"472 643 OFFCURVE",
"386 700 OFFCURVE",
"262 700 CURVE SMOOTH",
"102 700 LINE",
"102 672 LINE",
"258 672 LINE SMOOTH",
"368 672 OFFCURVE",
"440 623 OFFCURVE",
"440 528 CURVE SMOOTH",
"440 444 OFFCURVE",
"372 374 OFFCURVE",
"288 374 CURVE SMOOTH",
"102 374 LINE",
"102 346 LINE",
"284 346 LINE SMOOTH",
"400 346 OFFCURVE",
"476 282 OFFCURVE",
"476 186 CURVE SMOOTH",
"476 86 OFFCURVE",
"402 28 OFFCURVE",
"284 28 CURVE SMOOTH",
"118 28 LINE",
"118 0 LINE"
);
},
{
closed = 1;
nodes = (
"124 0 LINE",
"124 700 LINE",
"92 700 LINE",
"92 0 LINE"
);
}
);
width = 568;
},
{
anchors = (
{
name = bottom;
position = "{332, 0}";
},
{
name = center;
position = "{152, 220}";
},
{
name = top;
position = "{298, 700}";
}
);
layerId = "2D8F7115-C311-411E-929D-56333CF7FFB2";
paths = (
{
closed = 1;
nodes = (
"376 0 LINE SMOOTH",
"514 0 OFFCURVE",
"610 86 OFFCURVE",
"610 206 CURVE SMOOTH",
"610 315 OFFCURVE",
"532 359 OFFCURVE",
"440 384 CURVE",
"440 340 LINE",
"517 372 OFFCURVE",
"584 441 OFFCURVE",
"584 524 CURVE SMOOTH",
"584 630 OFFCURVE",
"484 700 OFFCURVE",
"336 700 CURVE SMOOTH",
"224 700 LINE",
"224 552 LINE",
"326 552 LINE SMOOTH",
"376 552 OFFCURVE",
"410 530 OFFCURVE",
"410 486 CURVE SMOOTH",
"410 442 OFFCURVE",
"378 416 OFFCURVE",
"334 416 CURVE SMOOTH",
"224 416 LINE",
"224 292 LINE",
"350 292 LINE SMOOTH",
"406 292 OFFCURVE",
"438 268 OFFCURVE",
"438 224 CURVE SMOOTH",
"438 178 OFFCURVE",
"402 148 OFFCURVE",
"356 148 CURVE SMOOTH",
"224 148 LINE",
"224 0 LINE"
);
},
{
closed = 1;
nodes = (
"238 0 LINE",
"238 700 LINE",
"66 700 LINE",
"66 0 LINE"
);
}
);
width = 634;
},
{
anchors = (
{
name = bottom;
position = "{302, 0}";
},
{
name = center;
position = "{132, 202}";
},
{
name = top;
position = "{300, 700}";
}
);
associatedMasterId = "AB099EFE-E788-4EFC-8633-CF147CB782A6";
layerId = "5AD6DEE3-C1BF-45C1-B31B-12614FF61D47";
name = "Half {450}";
paths = (
{
closed = 1;
nodes = (
"314 0 LINE SMOOTH",
"440 0 OFFCURVE",
"548 66 OFFCURVE",
"548 204 CURVE SMOOTH",
"548 295 OFFCURVE",
"481 350 OFFCURVE",
"398 380 CURVE",
"398 354 LINE",
"462 384 OFFCURVE",
"514 441 OFFCURVE",
"514 520 CURVE SMOOTH",
"514 642 OFFCURVE",
"418 700 OFFCURVE",
"278 700 CURVE SMOOTH",
"162 700 LINE",
"162 608 LINE",
"280 608 LINE SMOOTH",
"362 608 OFFCURVE",
"410 574 OFFCURVE",
"410 506 CURVE SMOOTH",
"410 436 OFFCURVE",
"368 404 OFFCURVE",
"288 404 CURVE SMOOTH",
"162 404 LINE",
"162 312 LINE",
"294 312 LINE SMOOTH",
"388 312 OFFCURVE",
"444 276 OFFCURVE",
"444 204 CURVE SMOOTH",
"446 130 OFFCURVE",
"390 92 OFFCURVE",
"308 92 CURVE SMOOTH",
"172 92 LINE",
"172 0 LINE"
);
},
{
closed = 1;
nodes = (
"181 0 LINE",
"181 700 LINE",
"79 700 LINE",
"79 0 LINE"
);
}
);
width = 588;
}
);
leftKerningGroup = LAT_H_UC;
rightKerningGroup = LAT_B_UC;
unicode = 0042;
},
{
glyphname = C;
lastChange = "2020-04-07 04:51:13 +0000";
layers = (
{
anchors = (
{
name = base;
position = "{406, 0}";
},
{
name = bottom;
position = "{388, 0}";
},
{
name = cedilla;
position = "{388, 0}";
},
{
name = top;
position = "{388, 700}";
}
);
layerId = "AB099EFE-E788-4EFC-8633-CF147CB782A6";
paths = (
{
closed = 1;
nodes = (
"620 140 LINE",
"586 76 OFFCURVE",
"492 20 OFFCURVE",
"388 20 CURVE SMOOTH",
"224 20 OFFCURVE",
"84 160 OFFCURVE",
"84 350 CURVE SMOOTH",
"84 544 OFFCURVE",
"234 680 OFFCURVE",
"390 680 CURVE SMOOTH",
"486 680 OFFCURVE",
"584 630 OFFCURVE",
"624 556 CURVE",
"652 572 LINE",
"612 644 OFFCURVE",
"506 708 OFFCURVE",
"390 708 CURVE SMOOTH",
"212 708 OFFCURVE",
"52 560 OFFCURVE",
"52 350 CURVE SMOOTH",
"52 144 OFFCURVE",
"206 -8 OFFCURVE",
"386 -8 CURVE SMOOTH",
"490 -8 OFFCURVE",
"596 42 OFFCURVE",
"646 120 CURVE"
);
}
);
width = 694;
},
{
anchors = (
{
name = base;
position = "{400, 0}";
},
{
name = bottom;
position = "{394, 0}";
},
{
name = cedilla;
position = "{404, 0}";
},
{
name = top;
position = "{392, 700}";
}
);
layerId = "2D8F7115-C311-411E-929D-56333CF7FFB2";
paths = (
{
closed = 1;
nodes = (
"550 230 LINE",
"528 184 OFFCURVE",
"464 140 OFFCURVE",
"394 140 CURVE SMOOTH",
"282 140 OFFCURVE",
"198 232 OFFCURVE",
"198 352 CURVE SMOOTH",
"198 470 OFFCURVE",
"282 560 OFFCURVE",
"394 560 CURVE SMOOTH",
"458 560 OFFCURVE",
"524 524 OFFCURVE",
"546 474 CURVE",
"698 546 LINE",
"650 646 OFFCURVE",
"516 712 OFFCURVE",
"392 712 CURVE SMOOTH",
"182 712 OFFCURVE",
"24 556 OFFCURVE",
"24 350 CURVE SMOOTH",
"24 144 OFFCURVE",
"184 -12 OFFCURVE",
"394 -12 CURVE SMOOTH",
"530 -12 OFFCURVE",
"666 64 OFFCURVE",
"710 170 CURVE"
);
}
);
width = 718;
},
{
anchors = (
{
name = base;
position = "{399, 0}";
},
{
name = bottom;
position = "{390, 0}";
},
{
name = cedilla;
position = "{392, 0}";
},
{
name = top;
position = "{390, 700}";
}
);
associatedMasterId = "AB099EFE-E788-4EFC-8633-CF147CB782A6";
layerId = "0C70BBED-6CBF-4E45-B429-2F50D50C94E8";
name = "Half {450}";
paths = (
{
closed = 1;
nodes = (
"580 186 LINE",
"538 118 OFFCURVE",
"470 80 OFFCURVE",
"390 80 CURVE SMOOTH",
"254 80 OFFCURVE",
"142 190 OFFCURVE",
"142 350 CURVE SMOOTH",
"142 508 OFFCURVE",
"248 620 OFFCURVE",
"388 620 CURVE SMOOTH",
"472 620 OFFCURVE",
"542 578 OFFCURVE",
"580 516 CURVE",
"666 560 LINE",
"610 656 OFFCURVE",
"508 710 OFFCURVE",
"390 710 CURVE SMOOTH",
"192 710 OFFCURVE",
"38 562 OFFCURVE",
"38 350 CURVE SMOOTH",
"38 134 OFFCURVE",
"198 -10 OFFCURVE",
"392 -10 CURVE SMOOTH",
"518 -10 OFFCURVE",
"618 52 OFFCURVE",
"670 146 CURVE"
);
}
);
width = 702;
}
);
leftKerningGroup = LAT_O_UC;
rightKerningGroup = LAT_C_UC;
unicode = 0043;
},
{
glyphname = D;
lastChange = "2020-04-07 04:51:13 +0000";
layers = (
{
anchors = (
{
name = bottom;
position = "{328, 0}";
},
{
name = center;
position = "{110, 350}";
},
{
name = top;
position = "{326, 700}";
}
);
layerId = "AB099EFE-E788-4EFC-8633-CF147CB782A6";
paths = (
{
closed = 1;
nodes = (
"92 0 LINE",
"308 0 LINE SMOOTH",
"500 0 OFFCURVE",
"612 150 OFFCURVE",
"612 358 CURVE SMOOTH",
"612 554 OFFCURVE",
"500 700 OFFCURVE",
"308 700 CURVE SMOOTH",
"92 700 LINE"
);
},
{
closed = 1;
nodes = (
"124 28 LINE",
"124 672 LINE",
"304 672 LINE SMOOTH",
"480 672 OFFCURVE",
"580 532 OFFCURVE",
"580 358 CURVE SMOOTH",
"580 172 OFFCURVE",
"480 28 OFFCURVE",
"304 28 CURVE SMOOTH"
);
}
);
width = 670;
},
{
anchors = (
{
name = bottom;
position = "{330, 0}";
},
{
name = center;
position = "{158, 350}";
},
{
name = top;
position = "{332, 700}";
}
);
layerId = "2D8F7115-C311-411E-929D-56333CF7FFB2";
paths = (
{
closed = 1;
nodes = (
"66 0 LINE",
"320 0 LINE SMOOTH",
"488 0 OFFCURVE",
"670 112 OFFCURVE",
"670 354 CURVE SMOOTH",
"670 594 OFFCURVE",
"488 700 OFFCURVE",
"310 700 CURVE SMOOTH",
"66 700 LINE"
);
},
{
closed = 1;
nodes = (
"238 152 LINE",
"238 548 LINE",
"320 548 LINE SMOOTH",
"374 548 OFFCURVE",
"494 506 OFFCURVE",
"494 354 CURVE SMOOTH",
"494 200 OFFCURVE",
"374 152 OFFCURVE",
"320 152 CURVE SMOOTH"
);
}
);
width = 704;
}
);
leftKerningGroup = LAT_H_UC;
rightKerningGroup = LAT_O_UC;
unicode = 0044;
},
{
glyphname = E;
lastChange = "2020-04-20 08:00:37 +0000";
layers = (
{
anchors = (
{
name = bottom;
position = "{290, 0}";
},
{
name = cedilla;
position = "{284, 0}";
},
{
name = ogonek;
position = "{376, 0}";
},
{
name = top;
position = "{280, 700}";
},
{
name = topleft;
position = "{-28, 614}";
}
);
layerId = "AB099EFE-E788-4EFC-8633-CF147CB782A6";
paths = (
{
closed = 1;
nodes = (
"92 0 LINE",
"462 0 LINE",
"462 28 LINE",
"124 28 LINE",
"124 346 LINE",
"424 346 LINE",
"424 374 LINE",
"124 374 LINE",
"124 672 LINE",
"448 672 LINE",
"450 700 LINE",
"92 700 LINE"
);
}
);
width = 518;
},
{
anchors = (
{
name = bottom;
position = "{294, 0}";
},
{
name = cedilla;
position = "{292, 0}";
},
{
name = ogonek;
position = "{388, 0}";
},
{
name = top;
position = "{290, 700}";
},
{
name = topleft;
position = "{-56, 634}";
}
);
layerId = "2D8F7115-C311-411E-929D-56333CF7FFB2";
paths = (
{
closed = 1;
nodes = (
"66 0 LINE",
"490 0 LINE",
"490 152 LINE",
"238 152 LINE",
"238 280 LINE",
"464 280 LINE",
"464 424 LINE",
"238 424 LINE",
"238 548 LINE",
"470 548 LINE",
"482 700 LINE",
"66 700 LINE"
);
}
);
width = 534;
}
);
leftKerningGroup = LAT_H_UC;
rightKerningGroup = LAT_E_UC;
unicode = 0045;
},
{
glyphname = F;
lastChange = "2020-04-20 08:03:01 +0000";
layers = (
{
anchors = (
{
name = bottom;
position = "{108, 0}";
},
{
name = center;
position = "{108, 180}";
},
{
name = top;
position = "{284, 700}";
}
);
layerId = "AB099EFE-E788-4EFC-8633-CF147CB782A6";
paths = (
{
closed = 1;
nodes = (
"92 0 LINE",
"124 0 LINE",
"124 346 LINE",
"430 346 LINE",
"430 374 LINE",
"124 374 LINE",
"124 672 LINE",
"442 672 LINE",
"444 700 LINE",
"92 700 LINE"
);
}
);
width = 488;
},
{
anchors = (
{
name = bottom;
position = "{152, 0}";
},
{
name = center;
position = "{152, 140}";
},
{
name = top;
position = "{302, 700}";
}
);
layerId = "2D8F7115-C311-411E-929D-56333CF7FFB2";
paths = (
{
closed = 1;
nodes = (
"66 0 LINE",
"238 0 LINE",
"238 252 LINE",
"476 252 LINE",
"476 404 LINE",
"238 404 LINE",
"238 548 LINE",
"478 548 LINE",
"490 700 LINE",
"66 700 LINE"
);
}
);
width = 526;
}
);
leftKerningGroup = LAT_H_UC;
rightKerningGroup = LAT_F_UC;
unicode = 0046;
},
{
glyphname = G;
lastChange = "2020-04-20 08:00:08 +0000";
layers = (
{
anchors = (
{
name = bottom;
position = "{372, 0}";
},
{
name = hook;
position = "{616, 600}";
},
{
name = top;
position = "{372, 700}";
}
);
layerId = "AB099EFE-E788-4EFC-8633-CF147CB782A6";
paths = (
{
closed = 1;
nodes = (
"552 18 OFFCURVE",
"384 18 CURVE SMOOTH",
"218 18 OFFCURVE",
"84 156 OFFCURVE",
"84 350 CURVE SMOOTH",
"84 536 OFFCURVE",
"208 680 OFFCURVE",
"378 680 CURVE SMOOTH",
"470 680 OFFCURVE",
"558 638 OFFCURVE",
"608 558 CURVE",
"636 572 LINE",
"582 660 OFFCURVE",
"480 708 OFFCURVE",
"376 708 CURVE SMOOTH",
"190 708 OFFCURVE",
"52 554 OFFCURVE",
"52 350 CURVE SMOOTH",
"52 138 OFFCURVE",
"200 -10 OFFCURVE",
"382 -10 CURVE SMOOTH",
"564 -10 OFFCURVE",
"672 132 OFFCURVE",
"672 332 CURVE SMOOTH",
"672 356 LINE",
"360 356 LINE",
"360 328 LINE",
"640 328 LINE",
"640 160 OFFCURVE"
);
}
);
width = 736;
},
{
anchors = (
{
name = bottom;
position = "{380, 0}";
},
{
name = hook;
position = "{630, 620}";
},
{
name = top;
position = "{380, 700}";
}
);
layerId = "2D8F7115-C311-411E-929D-56333CF7FFB2";
paths = (
{
closed = 1;
nodes = (
"482 140 OFFCURVE",
"396 140 CURVE SMOOTH",
"278 140 OFFCURVE",
"198 230 OFFCURVE",
"198 352 CURVE SMOOTH",
"198 474 OFFCURVE",
"278 560 OFFCURVE",
"382 560 CURVE SMOOTH",
"446 560 OFFCURVE",
"506 528 OFFCURVE",
"536 482 CURVE",
"688 548 LINE",
"628 650 OFFCURVE",
"516 712 OFFCURVE",
"384 712 CURVE SMOOTH",
"182 712 OFFCURVE",
"24 562 OFFCURVE",
"24 350 CURVE SMOOTH",
"24 136 OFFCURVE",
"182 -12 OFFCURVE",
"392 -12 CURVE SMOOTH",
"586 -12 OFFCURVE",
"714 116 OFFCURVE",
"714 282 CURVE SMOOTH",
"714 400 LINE",
"372 398 LINE",
"372 264 LINE",
"554 264 LINE",
"554 194 OFFCURVE"
);
}
);
width = 746;
},
{
anchors = (
{
name = bottom;
position = "{386, 0}";
},
{
name = hook;
position = "{620, 540}";
},
{
name = top;
position = "{378, 700}";
}
);
associatedMasterId = "AB099EFE-E788-4EFC-8633-CF147CB782A6";
layerId = "468E3CD5-7719-4A9D-BC7F-DB35573366CF";
name = "Half {450}";
paths = (
{
closed = 1;
nodes = (
"514 79 OFFCURVE",
"388 80 CURVE SMOOTH",
"247 81 OFFCURVE",
"141 193 OFFCURVE",
"142 352 CURVE SMOOTH",
"143 506 OFFCURVE",
"242 620 OFFCURVE",
"378 620 CURVE SMOOTH",
"456 620 OFFCURVE",
"527 583 OFFCURVE",
"566 520 CURVE",
"658 560 LINE",
"602 655 OFFCURVE",
"495 710 OFFCURVE",
"378 710 CURVE SMOOTH",
"185 710 OFFCURVE",
"38 558 OFFCURVE",
"38 350 CURVE SMOOTH",
"38 137 OFFCURVE",
"190 -11 OFFCURVE",
"386 -12 CURVE SMOOTH",
"572 -13 OFFCURVE",
"690 124 OFFCURVE",
"690 308 CURVE SMOOTH",
"690 382 LINE",
"364 382 LINE",
"364 292 LINE",
"590 292 LINE",
"589 173 OFFCURVE"
);
}
);
width = 738;
}
);
leftKerningGroup = LAT_O_UC;
rightKerningGroup = LAT_G_UC;
unicode = 0047;
},
{
glyphname = H;
lastChange = "2020-04-07 04:51:13 +0000";
layers = (
{
anchors = (
{
name = bottom;
position = "{334, 0}";
},
{
name = center;
position = "{334, 516}";
},
{
name = top;
position = "{334, 700}";
}
);
layerId = "AB099EFE-E788-4EFC-8633-CF147CB782A6";
paths = (
{
closed = 1;
nodes = (
"92 0 LINE",
"124 0 LINE",
"124 346 LINE",
"544 346 LINE",
"544 0 LINE",
"576 0 LINE",
"576 700 LINE",
"544 700 LINE",
"544 374 LINE",
"124 374 LINE",
"124 700 LINE",
"92 700 LINE"
);
}
);
width = 668;
},
{
anchors = (
{
name = bottom;
position = "{368, 0}";
},
{
name = center;
position = "{368, 560}";
},
{
name = top;
position = "{368, 700}";
}
);
layerId = "2D8F7115-C311-411E-929D-56333CF7FFB2";
paths = (
{
closed = 1;
nodes = (
"66 0 LINE",
"240 0 LINE",
"240 276 LINE",
"496 276 LINE",
"496 0 LINE",
"670 0 LINE",
"670 700 LINE",
"496 700 LINE",
"496 428 LINE",
"240 428 LINE",
"240 700 LINE",
"66 700 LINE"
);
}
);
width = 736;
}
);
leftKerningGroup = LAT_H_UC;
rightKerningGroup = LAT_H_UC;
unicode = 0048;
},
{
glyphname = I;
lastChange = "2020-04-08 02:19:20 +0000";
layers = (
{
anchors = (
{
name = bottom;
position = "{120, 0}";
},
{
name = ogonek;
position = "{72, 0}";
},
{
name = top;
position = "{120, 700}";
}
);
layerId = "AB099EFE-E788-4EFC-8633-CF147CB782A6";
paths = (
{
closed = 1;
nodes = (
"104 0 LINE",
"136 0 LINE",
"136 700 LINE",
"104 700 LINE"
);
}
);
width = 242;
},
{
anchors = (
{
name = bottom;
position = "{164, 0}";
},
{
name = ogonek;
position = "{144, 0}";
},
{
name = top;
position = "{164, 700}";
}
);
layerId = "2D8F7115-C311-411E-929D-56333CF7FFB2";
paths = (
{
closed = 1;
nodes = (
"78 0 LINE",
"250 0 LINE",
"250 700 LINE",
"78 700 LINE"
);
}
);
width = 328;
}
);
leftKerningGroup = LAT_I_UC;
rightKerningGroup = LAT_I_UC;
unicode = 0049;
},
{
glyphname = J;
lastChange = "2020-04-07 07:48:40 +0000";
layers = (
{
anchors = (
{
name = bottom;
position = "{202, 0}";
},
{
name = top;
position = "{324, 700}";
}
);
layerId = "AB099EFE-E788-4EFC-8633-CF147CB782A6";
paths = (
{
closed = 1;
nodes = (
"312 74 OFFCURVE",
"250 20 OFFCURVE",
"176 20 CURVE SMOOTH",
"98 20 OFFCURVE",
"52 80 OFFCURVE",
"52 166 CURVE",
"20 166 LINE",
"20 64 OFFCURVE",
"84 -8 OFFCURVE",
"180 -8 CURVE SMOOTH",
"272 -8 OFFCURVE",
"344 58 OFFCURVE",
"344 206 CURVE SMOOTH",
"344 700 LINE",
"312 700 LINE",
"312 204 LINE SMOOTH"
);
}
);
width = 436;
},
{
anchors = (
{
name = bottom;
position = "{272, 0}";
},
{
name = top;
position = "{384, 700}";
}
);
layerId = "2D8F7115-C311-411E-929D-56333CF7FFB2";
paths = (
{
closed = 1;
nodes = (
"300 172 OFFCURVE",
"276 136 OFFCURVE",
"238 136 CURVE SMOOTH",
"198 136 OFFCURVE",
"172 172 OFFCURVE",
"172 228 CURVE",
"12 228 LINE",
"12 74 OFFCURVE",
"100 -12 OFFCURVE",
"240 -12 CURVE SMOOTH",
"380 -12 OFFCURVE",
"472 72 OFFCURVE",
"472 222 CURVE SMOOTH",
"472 700 LINE",
"300 700 LINE",
"300 220 LINE SMOOTH"
);
}
);
width = 538;
}
);
leftKerningGroup = LAT_J_UC;
rightKerningGroup = LAT_J_UC;
unicode = 004A;
},
{
glyphname = K;
lastChange = "2020-04-07 04:51:13 +0000";
layers = (
{
anchors = (
{
name = bottom;
position = "{294, 0}";
},
{
name = top;
position = "{294, 700}";
}
);
layerId = "AB099EFE-E788-4EFC-8633-CF147CB782A6";
paths = (
{
closed = 1;
nodes = (
"124 0 LINE",
"124 336 LINE",
"140 336 LINE",
"122 348 LINE",
"492 0 LINE",
"536 0 LINE",
"152 362 LINE",
"152 340 LINE",
"510 700 LINE",
"468 700 LINE",
"122 352 LINE",
"140 364 LINE",
"124 364 LINE",
"124 700 LINE",
"92 700 LINE",
"92 0 LINE"
);
}
);
width = 566;
},
{
anchors = (
{
name = bottom;
position = "{348, 0}";
},
{
name = top;
position = "{330, 700}";
}
);
layerId = "2D8F7115-C311-411E-929D-56333CF7FFB2";
paths = (
{
closed = 1;
nodes = (
"238 0 LINE",
"238 304 LINE",
"278 304 LINE",
"222 328 LINE",
"470 0 LINE",
"674 0 LINE",
"362 400 LINE",
"362 308 LINE",
"664 700 LINE",
"462 700 LINE",
"222 368 LINE",
"278 394 LINE",
"238 394 LINE",
"238 700 LINE",
"66 700 LINE",
"66 0 LINE"
);
}
);
width = 682;
}
);
leftKerningGroup = LAT_H_UC;
rightKerningGroup = LAT_K_UC;
unicode = 004B;
},
{
glyphname = L;
lastChange = "2020-04-07 04:51:13 +0000";
layers = (
{
anchors = (
{
name = bottom;
position = "{278, 0}";
},
{
name = center;
position = "{108, 350}";
},
{
name = dot;
position = "{358, 350}";
},
{
name = top;
position = "{108, 700}";
},
{
name = topright;
position = "{360, 700}";
}
);
layerId = "AB099EFE-E788-4EFC-8633-CF147CB782A6";
paths = (
{
closed = 1;
nodes = (
"92 0 LINE",
"462 0 LINE",
"462 28 LINE",
"124 28 LINE",
"124 700 LINE",
"92 700 LINE"
);
}
);
width = 482;
},
{
anchors = (
{
name = bottom;
position = "{278, 0}";
},
{
name = center;
position = "{150, 360}";
},
{
name = dot;
position = "{410, 360}";
},
{
name = top;
position = "{156, 700}";
},
{
name = topright;
position = "{306, 700}";
}
);
layerId = "2D8F7115-C311-411E-929D-56333CF7FFB2";
paths = (
{
closed = 1;
nodes = (
"66 0 LINE",
"490 0 LINE",
"490 152 LINE",
"238 152 LINE",
"238 700 LINE",
"66 700 LINE"
);
}
);
width = 504;
}
);
leftKerningGroup = LAT_H_UC;
rightKerningGroup = LAT_L_UC;
unicode = 004C;
},
{
glyphname = M;
lastChange = "2020-04-07 04:51:13 +0000";
layers = (
{
anchors = (
{
name = bottom;
position = "{376, 0}";
},
{
name = top;
position = "{376, 700}";
}
);
layerId = "AB099EFE-E788-4EFC-8633-CF147CB782A6";
paths = (
{
closed = 1;
nodes = (
"92 0 LINE",
"124 0 LINE",
"124 508 LINE",
"124 662 LINE",
"128 662 LINE",
"184 532 LINE",
"366 130 LINE",
"386 130 LINE",
"568 532 LINE",
"622 662 LINE",
"626 662 LINE",
"626 508 LINE",
"626 0 LINE",
"658 0 LINE",
"658 700 LINE",
"608 700 LINE",
"422 280 LINE",
"378 182 LINE",
"374 182 LINE",
"330 282 LINE",
"144 700 LINE",
"92 700 LINE"
);
}
);
width = 750;
},
{
anchors = (
{
name = bottom;
position = "{432, 0}";
},
{
name = top;
position = "{432, 700}";
}
);
background = {
paths = (
{
closed = 1;
nodes = (
"66 0 LINE",
"238 0 LINE",
"238 192 LINE",
"238 256 OFFCURVE",
"234 352 OFFCURVE",
"226 410 CURVE",
"230 410 LINE",
"292 294 LINE",
"418 88 LINE",
"442 88 LINE",
"566 294 LINE",
"628 410 LINE",
"634 410 LINE",
"624 342 OFFCURVE",
"620 242 OFFCURVE",
"620 192 CURVE",
"620 0 LINE",
"794 0 LINE",
"794 700 LINE",
"606 700 LINE",
"480 472 LINE",
"468 454 OFFCURVE",
"452 418 OFFCURVE",
"434 390 CURVE",
"428 390 LINE",
"412 416 OFFCURVE",
"400 448 OFFCURVE",
"384 472 CURVE",
"258 700 LINE",
"66 700 LINE"
);
}
);
};
layerId = "2D8F7115-C311-411E-929D-56333CF7FFB2";
paths = (
{
closed = 1;
nodes = (
"66 0 LINE",
"238 0 LINE",
"238 198 LINE",
"224 422 LINE",
"228 422 LINE",
"300 298 LINE",
"416 126 LINE",
"448 126 LINE",
"566 298 LINE",
"636 414 LINE",
"642 414 LINE",
"626 198 LINE",
"626 0 LINE",
"798 0 LINE",
"798 700 LINE",
"634 700 LINE",
"486 470 LINE",
"436 386 LINE",
"430 386 LINE",
"382 470 LINE",
"234 700 LINE",
"66 700 LINE"
);
}
);
width = 864;
},
{
anchors = (
{
name = bottom;
position = "{402, 0}";
},
{
name = top;
position = "{402, 700}";
}
);
associatedMasterId = "AB099EFE-E788-4EFC-8633-CF147CB782A6";
layerId = "6123BCBE-8DAE-43AC-AC2E-27695F353F5A";
name = "Half {450}";
paths = (
{
closed = 1;
nodes = (
"80 0 LINE",
"180 0 LINE",
"180 342 LINE",
"172 536 LINE",
"176 536 LINE",
"242 400 LINE",
"386 112 LINE",
"418 112 LINE",
"564 400 LINE",
"626 532 LINE",
"632 532 LINE",
"624 342 LINE",
"624 0 LINE",
"726 0 LINE",
"726 700 LINE",
"616 700 LINE",
"462 396 LINE",
"406 280 LINE",
"400 280 LINE",
"346 396 LINE",
"192 700 LINE",
"80 700 LINE"
);
}
);
width = 804;
}
);
leftKerningGroup = LAT_H_UC;
rightKerningGroup = LAT_H_UC;
unicode = 004D;
},
{
glyphname = N;
lastChange = "2020-04-07 04:51:13 +0000";
layers = (
{
anchors = (
{
name = bottom;
position = "{328, 0}";
},
{
name = leghookright;
position = "{566, 0}";
},
{
name = top;
position = "{336, 700}";
}
);
layerId = "AB099EFE-E788-4EFC-8633-CF147CB782A6";
paths = (
{
closed = 1;
nodes = (
"92 0 LINE",
"124 0 LINE",
"124 460 LINE",
"118 654 LINE",
"122 654 LINE",
"208 512 LINE",
"546 0 LINE",
"580 0 LINE",
"580 700 LINE",
"548 700 LINE",
"548 246 LINE",
"554 44 LINE",
"550 44 LINE",
"464 184 LINE",
"126 700 LINE",
"92 700 LINE"
);
}
);
width = 672;
},
{
anchors = (
{
name = bottom;
position = "{374, 0}";
},
{
name = leghookright;
position = "{598, 0}";
},
{
name = top;
position = "{374, 700}";
}
);
layerId = "2D8F7115-C311-411E-929D-56333CF7FFB2";
paths = (
{
closed = 1;
nodes = (
"66 0 LINE",
"240 0 LINE",
"240 224 LINE",
"226 436 LINE",
"232 436 LINE",
"286 340 LINE",
"514 0 LINE",
"682 0 LINE",
"682 700 LINE",
"508 700 LINE",
"508 476 LINE",
"518 276 LINE",
"512 276 LINE",
"464 368 LINE",
"244 700 LINE",
"66 700 LINE"
);
}
);
width = 748;
}
);
leftKerningGroup = LAT_H_UC;
rightKerningGroup = LAT_H_UC;
unicode = 004E;
},
{
glyphname = O;
lastChange = "2020-04-07 10:22:44 +0000";
layers = (
{
anchors = (
{
name = bottom;
position = "{384, 0}";
},
{
name = center;
position = "{384, 348}";
},
{
name = horn;
position = "{538, 670}";
},
{
name = ogonek;
position = "{384, 0}";
},
{
name = top;
position = "{384, 700}";
},
{
name = topleft;
position = "{32, 700}";
},
{
name = topright;
position = "{738, 700}";
}
);
layerId = "AB099EFE-E788-4EFC-8633-CF147CB782A6";
paths = (
{
closed = 1;
nodes = (
"574 -8 OFFCURVE",
"716 145 OFFCURVE",
"716 350 CURVE SMOOTH",
"716 555 OFFCURVE",
"574 708 OFFCURVE",
"384 708 CURVE SMOOTH",
"194 708 OFFCURVE",
"52 555 OFFCURVE",
"52 350 CURVE SMOOTH",
"52 145 OFFCURVE",
"194 -8 OFFCURVE",
"384 -8 CURVE SMOOTH"
);
},
{
closed = 1;
nodes = (
"213 18 OFFCURVE",
"84 160 OFFCURVE",
"84 350 CURVE SMOOTH",
"84 539 OFFCURVE",
"213 680 OFFCURVE",
"384 680 CURVE SMOOTH",
"555 680 OFFCURVE",
"684 539 OFFCURVE",
"684 350 CURVE SMOOTH",
"684 160 OFFCURVE",
"555 18 OFFCURVE",
"384 18 CURVE SMOOTH"
);
}
);
width = 768;
},
{
anchors = (
{
name = bottom;
position = "{392, 0}";
},
{
name = center;
position = "{392, 350}";
},
{
name = horn;
position = "{550, 678}";
},
{
name = ogonek;
position = "{394, 0}";
},
{
name = top;
position = "{392, 700}";
},
{
name = topleft;
position = "{2, 700}";
},
{
name = topright;
position = "{782, 700}";
}
);
layerId = "2D8F7115-C311-411E-929D-56333CF7FFB2";
paths = (
{
closed = 1;
nodes = (
"602 -12 OFFCURVE",
"760 144 OFFCURVE",
"760 350 CURVE SMOOTH",
"760 556 OFFCURVE",
"602 712 OFFCURVE",
"392 712 CURVE SMOOTH",
"182 712 OFFCURVE",
"24 556 OFFCURVE",
"24 350 CURVE SMOOTH",
"24 144 OFFCURVE",
"182 -12 OFFCURVE",
"392 -12 CURVE SMOOTH"
);
},
{
closed = 1;
nodes = (
"280 140 OFFCURVE",
"196 230 OFFCURVE",
"196 350 CURVE SMOOTH",
"196 470 OFFCURVE",
"280 560 OFFCURVE",
"392 560 CURVE SMOOTH",
"504 560 OFFCURVE",
"588 470 OFFCURVE",
"588 350 CURVE SMOOTH",
"588 230 OFFCURVE",
"504 140 OFFCURVE",
"392 140 CURVE SMOOTH"
);
}
);
width = 784;
},
{
anchors = (
{
name = bottom;
position = "{386, 0}";
},
{
name = center;
position = "{386, 350}";
},
{
name = horn;
position = "{534, 678}";
},
{
name = ogonek;
position = "{386, 0}";
},
{
name = top;
position = "{386, 700}";
},
{
name = topleft;
position = "{18, 698}";
},
{
name = topright;
position = "{752, 698}";
}
);
associatedMasterId = "AB099EFE-E788-4EFC-8633-CF147CB782A6";
layerId = "57EC84BE-8EB9-4FB6-8557-76103B1D2DBA";
name = "Half {450}";
paths = (
{
closed = 1;
nodes = (
"585 -10 OFFCURVE",
"734 144 OFFCURVE",
"734 350 CURVE SMOOTH",
"734 556 OFFCURVE",
"585 710 OFFCURVE",
"386 710 CURVE SMOOTH",
"187 710 OFFCURVE",
"38 556 OFFCURVE",
"38 350 CURVE SMOOTH",
"38 144 OFFCURVE",
"187 -10 OFFCURVE",
"386 -10 CURVE SMOOTH"
);
},
{
closed = 1;
nodes = (
"246 80 OFFCURVE",
"141 196 OFFCURVE",
"142 350 CURVE SMOOTH",
"143 504 OFFCURVE",
"248 620 OFFCURVE",
"386 620 CURVE SMOOTH",
"524 620 OFFCURVE",
"629 504 OFFCURVE",
"630 350 CURVE SMOOTH",
"631 196 OFFCURVE",
"526 80 OFFCURVE",
"386 80 CURVE SMOOTH"
);
}
);
width = 772;
}
);
leftKerningGroup = LAT_O_UC;
rightKerningGroup = LAT_O_UC;
unicode = 004F;
},
{
glyphname = OE;
lastChange = "2020-04-07 04:51:13 +0000";
layers = (
{
anchors = (
{
name = bottom;
position = "{560, 0}";
},
{
name = top;
position = "{560, 700}";
}
);
background = {
anchors = (
{
name = bottom;
position = "{546, 0}";
},
{
name = top;
position = "{546, 700}";
}
);
paths = (
{
closed = 1;
nodes = (
"566 0 LINE",
"566 28 LINE",
"472 28 LINE",
"316 26 OFFCURVE",
"190 170 OFFCURVE",
"190 348 CURVE SMOOTH",
"190 526 OFFCURVE",
"318 672 OFFCURVE",
"472 672 CURVE SMOOTH",
"566 672 LINE",
"566 700 LINE",
"472 700 LINE SMOOTH",
"298 700 OFFCURVE",
"158 540 OFFCURVE",
"158 348 CURVE SMOOTH",
"158 152 OFFCURVE",
"298 0 OFFCURVE",
"470 0 CURVE SMOOTH"
);
},
{
closed = 1;
nodes = (
"928 0 LINE",
"928 28 LINE",
"590 28 LINE",
"590 346 LINE",
"890 346 LINE",
"890 374 LINE",
"590 374 LINE",
"590 672 LINE",
"914 672 LINE",
"916 700 LINE",
"558 700 LINE",
"558 0 LINE"
);
}
);
};
layerId = "AB099EFE-E788-4EFC-8633-CF147CB782A6";
paths = (
{
closed = 1;
nodes = (
"519 -8 OFFCURVE",
"628 73 OFFCURVE",
"680 202 CURVE",
"662 202 LINE",
"662 0 LINE",
"1032 0 LINE",
"1032 28 LINE",
"694 28 LINE",
"694 346 LINE",
"994 346 LINE",
"994 374 LINE",
"694 374 LINE",
"694 672 LINE",
"1018 672 LINE",
"1020 700 LINE",
"662 700 LINE",
"662 506 LINE",
"674 506 LINE",
"621 631 OFFCURVE",
"514 708 OFFCURVE",
"380 708 CURVE SMOOTH",
"190 708 OFFCURVE",
"52 555 OFFCURVE",
"52 350 CURVE SMOOTH",
"52 145 OFFCURVE",
"190 -8 OFFCURVE",
"380 -8 CURVE SMOOTH"
);
},
{
closed = 1;
nodes = (
"209 18 OFFCURVE",
"84 160 OFFCURVE",
"84 350 CURVE SMOOTH",
"84 539 OFFCURVE",
"209 680 OFFCURVE",
"380 680 CURVE SMOOTH",
"551 680 OFFCURVE",
"670 539 OFFCURVE",
"670 350 CURVE SMOOTH",
"670 160 OFFCURVE",
"551 18 OFFCURVE",
"380 18 CURVE SMOOTH"
);
}
);
width = 1088;
},
{
anchors = (
{
name = bottom;
position = "{508, 0}";
},
{
name = top;
position = "{508, 700}";
}
);
background = {
anchors = (
{
name = bottom;
position = "{500, 0}";
},
{
name = top;
position = "{500, 700}";
}
);
paths = (
{
closed = 1;
nodes = (
"518 0 LINE",
"518 152 LINE",
"422 152 LINE SMOOTH",
"326 152 OFFCURVE",
"256 236 OFFCURVE",
"256 348 CURVE SMOOTH",
"256 458 OFFCURVE",
"324 548 OFFCURVE",
"422 548 CURVE SMOOTH",
"518 548 LINE",
"518 700 LINE",
"428 700 LINE SMOOTH",
"238 700 OFFCURVE",
"84 540 OFFCURVE",
"84 348 CURVE SMOOTH",
"84 154 OFFCURVE",
"228 0 OFFCURVE",
"428 0 CURVE SMOOTH"
);
},
{
closed = 1;
nodes = (
"894 0 LINE",
"894 152 LINE",
"650 152 LINE",
"650 276 LINE",
"868 276 LINE",
"868 428 LINE",
"650 428 LINE",
"650 548 LINE",
"874 548 LINE",
"886 700 LINE",
"478 700 LINE",
"478 0 LINE"
);
}
);
};
layerId = "2D8F7115-C311-411E-929D-56333CF7FFB2";
paths = (
{
closed = 1;
nodes = (
"494 -12 OFFCURVE",
"590 42 OFFCURVE",
"626 126 CURVE",
"554 126 LINE",
"554 0 LINE",
"970 0 LINE",
"970 152 LINE",
"726 152 LINE",
"726 276 LINE",
"944 276 LINE",
"944 428 LINE",
"726 428 LINE",
"726 548 LINE",
"950 548 LINE",
"962 700 LINE",
"554 700 LINE",
"554 534 LINE",
"652 534 LINE",
"596 646 OFFCURVE",
"506 712 OFFCURVE",
"380 712 CURVE SMOOTH",
"188 712 OFFCURVE",
"24 558 OFFCURVE",
"24 350 CURVE SMOOTH",
"24 142 OFFCURVE",
"188 -12 OFFCURVE",
"380 -12 CURVE SMOOTH"
);
},
{
closed = 1;
nodes = (
"280 140 OFFCURVE",
"198 230 OFFCURVE",
"198 350 CURVE SMOOTH",
"198 470 OFFCURVE",
"280 560 OFFCURVE",
"390 560 CURVE SMOOTH",
"500 560 OFFCURVE",
"582 470 OFFCURVE",
"582 350 CURVE SMOOTH",
"582 230 OFFCURVE",
"500 140 OFFCURVE",
"390 140 CURVE SMOOTH"
);
}
);
width = 1014;
}
);
leftKerningGroup = LAT_O_UC;
leftMetricsKey = O;
rightKerningGroup = LAT_E_UC;
rightMetricsKey = E;
unicode = 0152;
},
{
glyphname = P;
lastChange = "2020-04-07 04:51:13 +0000";
layers = (
{
anchors = (
{
name = bottom;
position = "{116, 0}";
},
{
name = top;
position = "{296, 700}";
}
);
layerId = "AB099EFE-E788-4EFC-8633-CF147CB782A6";
paths = (
{
closed = 1;
nodes = (
"112 672 LINE",
"308 672 LINE SMOOTH",
"408 672 OFFCURVE",
"474 610 OFFCURVE",
"474 514 CURVE SMOOTH",
"474 412 OFFCURVE",
"408 344 OFFCURVE",
"308 344 CURVE SMOOTH",
"112 344 LINE",
"112 316 LINE",
"304 316 LINE SMOOTH",
"424 316 OFFCURVE",
"506 394 OFFCURVE",
"506 514 CURVE SMOOTH",
"506 628 OFFCURVE",
"424 700 OFFCURVE",
"304 700 CURVE SMOOTH",
"112 700 LINE"
);
},
{
closed = 1;
nodes = (
"124 700 LINE",
"92 700 LINE",
"92 0 LINE",
"124 0 LINE"
);
}
);
width = 554;
},
{
anchors = (
{
name = bottom;
position = "{164, 0}";
},
{
name = top;
position = "{320, 700}";
}
);
layerId = "2D8F7115-C311-411E-929D-56333CF7FFB2";
paths = (
{
closed = 1;
nodes = (
"202 548 LINE",
"318 548 LINE SMOOTH",
"382 548 OFFCURVE",
"424 514 OFFCURVE",
"424 460 CURVE SMOOTH",
"424 406 OFFCURVE",
"384 368 OFFCURVE",
"322 368 CURVE SMOOTH",
"202 368 LINE",
"202 216 LINE",
"330 216 LINE SMOOTH",
"490 216 OFFCURVE",
"592 318 OFFCURVE",
"592 464 CURVE SMOOTH",
"592 612 OFFCURVE",
"486 700 OFFCURVE",
"326 700 CURVE SMOOTH",
"202 700 LINE"
);
},
{
closed = 1;
nodes = (
"238 700 LINE",
"66 700 LINE",
"66 0 LINE",
"238 0 LINE"
);
}
);
width = 624;
}
);
leftKerningGroup = LAT_H_UC;
rightKerningGroup = LAT_P_UC;
unicode = 0050;
},
{
glyphname = Thorn;
lastChange = "2020-04-07 04:51:13 +0000";
layers = (
{
layerId = "AB099EFE-E788-4EFC-8633-CF147CB782A6";
paths = (
{
closed = 1;
nodes = (
"116 510 LINE",
"286 510 LINE SMOOTH",
"392 510 OFFCURVE",
"488 492 OFFCURVE",
"488 356 CURVE SMOOTH",
"488 224 OFFCURVE",
"408 184 OFFCURVE",
"290 184 CURVE SMOOTH",
"116 184 LINE",
"116 158 LINE",
"302 158 LINE SMOOTH",
"438 158 OFFCURVE",
"522 222 OFFCURVE",
"522 356 CURVE SMOOTH",
"522 508 OFFCURVE",
"410 538 OFFCURVE",
"298 538 CURVE SMOOTH",
"116 538 LINE"
);
},
{
closed = 1;
nodes = (
"124 696 LINE",
"92 696 LINE",
"92 0 LINE",
"124 0 LINE"
);
}
);
width = 570;
},
{
layerId = "2D8F7115-C311-411E-929D-56333CF7FFB2";
paths = (
{
closed = 1;
nodes = (
"212 446 LINE",
"324 446 LINE SMOOTH",
"378 446 OFFCURVE",
"426 420 OFFCURVE",
"426 356 CURVE SMOOTH",
"426 288 OFFCURVE",
"384 250 OFFCURVE",
"328 250 CURVE SMOOTH",
"212 250 LINE",
"212 116 LINE",
"336 116 LINE SMOOTH",
"460 116 OFFCURVE",
"594 188 OFFCURVE",
"594 356 CURVE SMOOTH",
"594 526 OFFCURVE",
"462 582 OFFCURVE",
"332 582 CURVE SMOOTH",
"212 582 LINE"
);
},
{
closed = 1;
nodes = (
"238 696 LINE",
"66 696 LINE",
"66 0 LINE",
"238 0 LINE"
);
}
);
width = 626;
}
);
leftKerningGroup = LAT_H_UC;
rightKerningGroup = LAT_P_SC;
unicode = 00DE;
},
{
glyphname = Q;
lastChange = "2020-04-14 07:24:30 +0000";
layers = (
{
anchors = (
{
name = bottom;
position = "{384, -200}";
},
{
name = top;
position = "{384, 700}";
}
);
components = (
{
name = O;
}
);
layerId = "AB099EFE-E788-4EFC-8633-CF147CB782A6";
paths = (
{
closed = 1;
nodes = (
"658 0 LINE",
"596 82 LINE",
"590 90 LINE",
"468 260 LINE",
"428 260 LINE",
"564 72 LINE",
"572 64 LINE",
"618 0 LINE"
);
}
);
width = 768;
},
{
anchors = (
{
name = bottom;
position = "{386, -200}";
},
{
name = top;
position = "{386, 700}";
}
);
components = (
{
name = O;
transform = "{1, 0, 0, 1, -12, 0}";
}
);
layerId = "2D8F7115-C311-411E-929D-56333CF7FFB2";
paths = (
{
closed = 1;
nodes = (
"776 0 LINE",
"666 138 LINE",
"578 210 LINE",
"514 300 LINE",
"328 300 LINE",
"460 150 LINE",
"536 96 LINE",
"602 0 LINE"
);
}
);
width = 796;
},
{
anchors = (
{
name = bottom;
position = "{386, -200}";
},
{
name = top;
position = "{386, 700}";
}
);
associatedMasterId = "AB099EFE-E788-4EFC-8633-CF147CB782A6";
components = (
{
alignment = -1;
name = O;
transform = "{1, 0, 0, 1, -6, 0}";
}
);
guideLines = (
{
angle = 120;
position = "{610, 0}";
}
);
layerId = "5F397B99-8889-4A27-BB1C-6FD1F8D7B180";
name = "Half {450}";
paths = (
{
closed = 1;
nodes = (
"718 0 LINE",
"630 110 LINE",
"592 150 LINE",
"492 290 LINE",
"386 290 LINE",
"520 112 LINE",
"554 80 LINE",
"610 0 LINE"
);
}
);
width = 776;
}
);
leftKerningGroup = LAT_O_UC;
rightKerningGroup = LAT_O_UC;
unicode = 0051;
},
{
glyphname = R;
lastChange = "2020-04-07 04:51:13 +0000";
layers = (
{
anchors = (
{
name = bottom;
position = "{300, 0}";
},
{
name = top;
position = "{284, 700}";
}
);
guideLines = (
{
angle = 120;
position = "{526, 0}";
}
);
layerId = "AB099EFE-E788-4EFC-8633-CF147CB782A6";
paths = (
{
closed = 1;
nodes = (
"108 672 LINE",
"292 672 LINE SMOOTH",
"396 672 OFFCURVE",
"468 608 OFFCURVE",
"468 512 CURVE SMOOTH",
"468 416 OFFCURVE",
"398 344 OFFCURVE",
"296 344 CURVE SMOOTH",
"108 344 LINE",
"108 316 LINE",
"302 316 LINE SMOOTH",
"418 316 OFFCURVE",
"500 400 OFFCURVE",
"500 512 CURVE SMOOTH",
"500 626 OFFCURVE",
"412 700 OFFCURVE",
"296 700 CURVE SMOOTH",
"108 700 LINE"
);
},
{
closed = 1;
nodes = (
"124 700 LINE",
"92 700 LINE",
"92 0 LINE",
"124 0 LINE"
);
},
{
closed = 1;
nodes = (
"300 320 LINE",
"484 0 LINE",
"520 0 LINE",
"324 340 LINE"
);
}
);
width = 572;
},
{
anchors = (
{
name = bottom;
position = "{334, 0}";
},
{
name = top;
position = "{324, 700}";
}
);
layerId = "2D8F7115-C311-411E-929D-56333CF7FFB2";
paths = (
{
closed = 1;
nodes = (
"202 548 LINE",
"318 548 LINE SMOOTH",
"380 548 OFFCURVE",
"424 516 OFFCURVE",
"424 460 CURVE SMOOTH",
"424 406 OFFCURVE",
"382 372 OFFCURVE",
"322 372 CURVE SMOOTH",
"202 372 LINE",
"202 232 LINE",
"300 232 LINE SMOOTH",
"478 232 OFFCURVE",
"592 336 OFFCURVE",
"592 482 CURVE SMOOTH",
"592 622 OFFCURVE",
"484 700 OFFCURVE",
"344 700 CURVE SMOOTH",
"202 700 LINE"
);
},
{
closed = 1;
nodes = (
"238 700 LINE",
"66 700 LINE",
"66 0 LINE",
"238 0 LINE"
);
},
{
closed = 1;
nodes = (
"314 256 LINE",
"448 0 LINE",
"646 0 LINE",
"440 358 LINE"
);
}
);
width = 656;
}
);
leftKerningGroup = LAT_H_UC;
rightKerningGroup = LAT_R_UC;
unicode = 0052;
},
{
glyphname = S;
lastChange = "2020-04-07 04:51:13 +0000";
layers = (
{
anchors = (
{
name = bottom;
position = "{318, 0}";
},
{
name = top;
position = "{302, 700}";
}
);
layerId = "2D8F7115-C311-411E-929D-56333CF7FFB2";
paths = (
{
closed = 1;
nodes = (
"448 -16 OFFCURVE",
"562 78 OFFCURVE",
"562 210 CURVE SMOOTH",
"562 352 OFFCURVE",
"436 396 OFFCURVE",
"370 412 CURVE SMOOTH",
"314 426 OFFCURVE",
"232 446 OFFCURVE",
"232 504 CURVE SMOOTH",
"232 536 OFFCURVE",
"260 562 OFFCURVE",
"302 562 CURVE SMOOTH",
"354 562 OFFCURVE",
"392 526 OFFCURVE",
"414 490 CURVE",
"554 572 LINE",
"514 654 OFFCURVE",
"416 712 OFFCURVE",
"296 712 CURVE SMOOTH",
"164 712 OFFCURVE",
"56 634 OFFCURVE",
"56 502 CURVE SMOOTH",
"56 380 OFFCURVE",
"146 328 OFFCURVE",
"248 298 CURVE SMOOTH",
"300 282 OFFCURVE",
"390 264 OFFCURVE",
"390 208 CURVE SMOOTH",
"390 172 OFFCURVE",
"356 146 OFFCURVE",
"310 146 CURVE SMOOTH",
"248 146 OFFCURVE",
"200 200 OFFCURVE",
"182 244 CURVE",
"40 152 LINE",
"74 58 OFFCURVE",
"186 -16 OFFCURVE",
"310 -16 CURVE SMOOTH"
);
}
);
userData = {
RMXScaler = {
height = 137;
weight = 160;
width = 140;
};
};
width = 606;
},
{
anchors = (
{
name = bottom;
position = "{278, 0}";
},
{
name = top;
position = "{262, 700}";
}
);
layerId = "AB099EFE-E788-4EFC-8633-CF147CB782A6";
paths = (
{
closed = 1;
nodes = (
"384 -10 OFFCURVE",
"474 65 OFFCURVE",
"474 172 CURVE SMOOTH",
"474 318 OFFCURVE",
"314 362 OFFCURVE",
"254 382 CURVE SMOOTH",
"182 406 OFFCURVE",
"106 446 OFFCURVE",
"106 542 CURVE SMOOTH",
"106 622 OFFCURVE",
"160 674 OFFCURVE",
"250 674 CURVE SMOOTH",
"334 674 OFFCURVE",
"396 628 OFFCURVE",
"422 584 CURVE",
"446 604 LINE",
"420 648 OFFCURVE",
"354 706 OFFCURVE",
"252 706 CURVE SMOOTH",
"146 706 OFFCURVE",
"74 644 OFFCURVE",
"74 542 CURVE SMOOTH",
"74 416 OFFCURVE",
"184 376 OFFCURVE",
"268 346 CURVE SMOOTH",
"336 322 OFFCURVE",
"442 282 OFFCURVE",
"442 174 CURVE SMOOTH",
"442 80 OFFCURVE",
"362 20 OFFCURVE",
"268 20 CURVE SMOOTH",
"192 20 OFFCURVE",
"120 62 OFFCURVE",
"90 134 CURVE",
"60 118 LINE",
"92 52 OFFCURVE",
"168 -10 OFFCURVE",
"272 -10 CURVE SMOOTH"
);
}
);
userData = {
RMXScaler = {
height = 139;
width = 140;
};
};
width = 534;
},
{
anchors = (
{
name = bottom;
position = "{282, 0}";
},
{
name = top;
position = "{280, 700}";
}
);
associatedMasterId = "AB099EFE-E788-4EFC-8633-CF147CB782A6";
layerId = "AC58DB70-1B15-454B-B494-93D4DED7A37B";
name = "Half {450}";
paths = (
{
closed = 1;
nodes = (
"408 -14 OFFCURVE",
"510 72 OFFCURVE",
"510 192 CURVE SMOOTH",
"510 334 OFFCURVE",
"372 378 OFFCURVE",
"306 398 CURVE SMOOTH",
"244 416 OFFCURVE",
"166 446 OFFCURVE",
"166 524 CURVE SMOOTH",
"166 580 OFFCURVE",
"208 620 OFFCURVE",
"274 620 CURVE SMOOTH",
"342 620 OFFCURVE",
"390 576 OFFCURVE",
"412 538 CURVE",
"492 588 LINE",
"460 652 OFFCURVE",
"380 710 OFFCURVE",
"272 710 CURVE SMOOTH",
"154 710 OFFCURVE",
"68 642 OFFCURVE",
"68 522 CURVE SMOOTH",
"68 406 OFFCURVE",
"148 358 OFFCURVE",
"254 322 CURVE SMOOTH",
"308 304 OFFCURVE",
"412 278 OFFCURVE",
"412 190 CURVE SMOOTH",
"412 126 OFFCURVE",
"356 78 OFFCURVE",
"286 78 CURVE SMOOTH",
"214 78 OFFCURVE",
"160 132 OFFCURVE",
"136 190 CURVE",
"52 136 LINE",
"78 66 OFFCURVE",
"172 -14 OFFCURVE",
"288 -14 CURVE SMOOTH"
);
}
);
userData = {
RMXScaler = {
height = 139;
width = 140;
};
};
width = 562;
}
);
leftKerningGroup = LAT_S_UC;
rightKerningGroup = LAT_S_UC;
unicode = 0053;
userData = {
RMXScaler = {
source = s;
};
};
},
{
glyphname = Germandbls;
lastChange = "2020-04-07 04:51:17 +0000";
layers = (
{
background = {
paths = (
{
closed = 1;
nodes = (
"380 -12 CURVE SMOOTH",
"500 -12 OFFCURVE",
"574 78 OFFCURVE",
"574 192 CURVE SMOOTH",
"574 304 OFFCURVE",
"504 394 OFFCURVE",
"362 412 CURVE",
"520 630 LINE",
"474 678 OFFCURVE",
"400 708 OFFCURVE",
"320 708 CURVE SMOOTH",
"184 708 OFFCURVE",
"88 618 OFFCURVE",
"88 444 CURVE SMOOTH",
"88 0 LINE",
"120 0 LINE",
"120 430 LINE SMOOTH",
"120 602 OFFCURVE",
"198 678 OFFCURVE",
"316 678 CURVE SMOOTH",
"382 678 OFFCURVE",
"452 652 OFFCURVE",
"478 622 CURVE",
"324 414 LINE",
"326 384 LINE",
"480 364 OFFCURVE",
"540 292 OFFCURVE",
"540 192 CURVE SMOOTH",
"540 94 OFFCURVE",
"484 18 OFFCURVE",
"382 18 CURVE SMOOTH",
"336 18 OFFCURVE",
"264 32 OFFCURVE",
"218 62 CURVE",
"202 34 LINE",
"240 8 OFFCURVE",
"324 -12 OFFCURVE"
);
},
{
closed = 0;
nodes = (
"304 680 LINE SMOOTH"
);
}
);
};
layerId = "AB099EFE-E788-4EFC-8633-CF147CB782A6";
paths = (
{
closed = 1;
nodes = (
"470 -8 OFFCURVE",
"572 90 OFFCURVE",
"572 214 CURVE SMOOTH",
"572 338 OFFCURVE",
"470 430 OFFCURVE",
"320 424 CURVE",
"334 408 LINE",
"450 674 LINE",
"450 682 LINE",
"392 700 OFFCURVE",
"330 708 OFFCURVE",
"280 708 CURVE SMOOTH",
"88 708 OFFCURVE",
"88 588 OFFCURVE",
"88 536 CURVE SMOOTH",
"88 0 LINE",
"118 0 LINE",
"118 542 LINE SMOOTH",
"118 594 OFFCURVE",
"118 680 OFFCURVE",
"280 680 CURVE SMOOTH",
"330 680 OFFCURVE",
"382 672 OFFCURVE",
"420 662 CURVE",
"418 676 LINE",
"310 422 LINE",
"310 398 LINE",
"324 398 LINE SMOOTH",
"448 398 OFFCURVE",
"542 330 OFFCURVE",
"542 214 CURVE SMOOTH",
"542 104 OFFCURVE",
"456 20 OFFCURVE",
"342 20 CURVE SMOOTH",
"314 20 OFFCURVE",
"274 26 OFFCURVE",
"240 36 CURVE",
"240 6 LINE",
"270 -2 OFFCURVE",
"314 -8 OFFCURVE",
"344 -8 CURVE SMOOTH"
);
}
);
width = 632;
},
{
background = {
paths = (
{
closed = 1;
nodes = (
"448 -12 CURVE SMOOTH",
"600 -12 OFFCURVE",
"666 84 OFFCURVE",
"666 200 CURVE SMOOTH",
"666 326 OFFCURVE",
"590 364 OFFCURVE",
"506 400 CURVE",
"638 564 LINE",
"574 666 OFFCURVE",
"466 708 OFFCURVE",
"348 708 CURVE SMOOTH",
"144 708 OFFCURVE",
"64 588 OFFCURVE",
"64 436 CURVE SMOOTH",
"64 0 LINE",
"236 0 LINE",
"236 412 LINE SMOOTH",
"236 540 OFFCURVE",
"292 570 OFFCURVE",
"350 570 CURVE SMOOTH",
"398 570 OFFCURVE",
"418 552 OFFCURVE",
"440 530 CURVE",
"336 402 LINE",
"348 302 LINE",
"448 282 OFFCURVE",
"490 250 OFFCURVE",
"490 200 CURVE SMOOTH",
"490 162 OFFCURVE",
"470 126 OFFCURVE",
"434 126 CURVE SMOOTH",
"416 126 OFFCURVE",
"378 132 OFFCURVE",
"346 152 CURVE",
"304 18 LINE",
"334 0 OFFCURVE",
"394 -12 OFFCURVE"
);
}
);
};
layerId = "2D8F7115-C311-411E-929D-56333CF7FFB2";
paths = (
{
closed = 1;
nodes = (
"574 -12 OFFCURVE",
"682 86 OFFCURVE",
"682 214 CURVE SMOOTH",
"682 342 OFFCURVE",
"574 420 OFFCURVE",
"430 420 CURVE",
"522 336 LINE",
"624 640 LINE",
"624 658 LINE",
"572 686 OFFCURVE",
"456 712 OFFCURVE",
"358 712 CURVE SMOOTH",
"180 712 OFFCURVE",
"64 628 OFFCURVE",
"64 484.582 CURVE SMOOTH",
"64 0 LINE",
"234 0 LINE",
"234 463.513 LINE SMOOTH",
"234 492 OFFCURVE",
"250 560 OFFCURVE",
"366 560 CURVE SMOOTH",
"408 560 OFFCURVE",
"440 550 OFFCURVE",
"448 540 CURVE",
"438 582 LINE",
"352 324 LINE",
"352 296 LINE",
"402 296 LINE SMOOTH",
"478 296 OFFCURVE",
"512 256 OFFCURVE",
"512 212 CURVE SMOOTH",
"512 166 OFFCURVE",
"474 138 OFFCURVE",
"412 138 CURVE SMOOTH",
"398 138 OFFCURVE",
"374 140 OFFCURVE",
"342 146 CURVE",
"342 -6 LINE",
"374 -10 OFFCURVE",
"414 -12 OFFCURVE",
"434 -12 CURVE SMOOTH"
);
}
);
width = 706;
}
);
leftKerningGroup = LAT_GERMANDBLS_UC;
rightKerningGroup = LAT_GERMANDBLS_UC;
rightMetricsKey = B;
unicode = 1E9E;
},
{
glyphname = Schwa;
lastChange = "2020-04-07 04:51:17 +0000";
layers = (
{
anchors = (
{
name = bottom;
position = "{364, -24}";
},
{
name = top;
position = "{366, 730}";
}
);
layerId = "AB099EFE-E788-4EFC-8633-CF147CB782A6";
paths = (
{
closed = 1;
nodes = (
"536 -8 OFFCURVE",
"660 124 OFFCURVE",
"660 356 CURVE SMOOTH",
"660 578 OFFCURVE",
"536 708 OFFCURVE",
"360 708 CURVE SMOOTH",
"252 708 OFFCURVE",
"150 660 OFFCURVE",
"96 572 CURVE",
"124 558 LINE",
"174 638 OFFCURVE",
"276 680 OFFCURVE",
"360 680 CURVE SMOOTH",
"524 680 OFFCURVE",
"628 560 OFFCURVE",
"628 354 CURVE SMOOTH",
"628 140 OFFCURVE",
"514 20 OFFCURVE",
"362 20 CURVE SMOOTH",
"212 20 OFFCURVE",
"106 142 OFFCURVE",
"104 346 CURVE",
"640 346 LINE",
"640 374 LINE",
"72 374 LINE",
"72 352 LINE SMOOTH",
"72 138 OFFCURVE",
"184 -8 OFFCURVE",
"362 -8 CURVE SMOOTH"
);
}
);
width = 698;
},
{
anchors = (
{
name = bottom;
position = "{396, -24}";
},
{
name = top;
position = "{384, 720}";
}
);
layerId = "2D8F7115-C311-411E-929D-56333CF7FFB2";
paths = (
{
closed = 1;
nodes = (
"582 -12 OFFCURVE",
"722 136 OFFCURVE",
"722 350 CURVE SMOOTH",
"722 562 OFFCURVE",
"566 712 OFFCURVE",
"366 712 CURVE SMOOTH",
"236 712 OFFCURVE",
"124 650 OFFCURVE",
"66 548 CURVE",
"218 482 LINE",
"246 527 OFFCURVE",
"304 560 OFFCURVE",
"368 560 CURVE SMOOTH",
"470 560 OFFCURVE",
"548 475 OFFCURVE",
"548 352 CURVE SMOOTH",
"548 229 OFFCURVE",
"486 140 OFFCURVE",
"370 140 CURVE SMOOTH",
"286 140 OFFCURVE",
"204 194 OFFCURVE",
"204 264 CURVE",
"598 264 LINE",
"598 398 LINE",
"40 400 LINE",
"40 322 LINE SMOOTH",
"40 115 OFFCURVE",
"182 -12 OFFCURVE",
"374 -12 CURVE SMOOTH"
);
}
);
width = 746;
},
{
anchors = (
{
name = bottom;
position = "{380, -24}";
},
{
name = top;
position = "{375, 725}";
}
);
associatedMasterId = "AB099EFE-E788-4EFC-8633-CF147CB782A6";
layerId = "E88D8049-1054-478F-B246-304D48DB4790";
name = "Half {450}";
paths = (
{
closed = 1;
nodes = (
"540 -11 OFFCURVE",
"690 137 OFFCURVE",
"690 350 CURVE SMOOTH",
"690 558 OFFCURVE",
"543 710 OFFCURVE",
"350 710 CURVE SMOOTH",
"233 710 OFFCURVE",
"126 655 OFFCURVE",
"70 560 CURVE",
"162 520 LINE",
"201 583 OFFCURVE",
"272 620 OFFCURVE",
"350 620 CURVE SMOOTH",
"486 620 OFFCURVE",
"585 506 OFFCURVE",
"586 352 CURVE SMOOTH",
"587 193 OFFCURVE",
"481 81 OFFCURVE",
"354 80 CURVE SMOOTH",
"222 79 OFFCURVE",
"145 173 OFFCURVE",
"144 292 CURVE",
"604 292 LINE",
"604 380 LINE",
"46 380 LINE",
"46 308 LINE SMOOTH",
"46 124 OFFCURVE",
"166 -13 OFFCURVE",
"358 -12 CURVE SMOOTH"
);
}
);
width = 722;
}
);
leftKerningGroup = LAT_SCHWA_UC;
rightKerningGroup = LAT_O_UC;
unicode = 018F;
},
{
glyphname = T;
lastChange = "2020-04-07 07:48:11 +0000";
layers = (
{
anchors = (
{
name = bottom;
position = "{282, 0}";
},
{
name = cedilla;
position = "{276, 0}";
},
{
name = center;
position = "{282, 350}";
},
{
name = top;
position = "{280, 700}";
}
);
layerId = "AB099EFE-E788-4EFC-8633-CF147CB782A6";
paths = (
{
closed = 1;
nodes = (
"520 672 LINE",
"520 700 LINE",
"44 700 LINE",
"44 672 LINE"
);
},
{
closed = 1;
nodes = (
"266 680 LINE",
"266 0 LINE",
"298 0 LINE",
"298 680 LINE"
);
}
);
width = 564;
},
{
anchors = (
{
name = bottom;
position = "{288, 0}";
},
{
name = cedilla;
position = "{290, 0}";
},
{
name = center;
position = "{288, 320}";
},
{
name = top;
position = "{288, 700}";
}
);
layerId = "2D8F7115-C311-411E-929D-56333CF7FFB2";
paths = (
{
closed = 1;
nodes = (
"550 548 LINE",
"550 700 LINE",
"22 700 LINE",
"22 548 LINE"
);
},
{
closed = 1;
nodes = (
"200 572 LINE",
"200 0 LINE",
"372 0 LINE",
"372 572 LINE"
);
}
);
width = 572;
}
);
leftKerningGroup = LAT_T_UC;
rightKerningGroup = LAT_T_UC;
unicode = 0054;
},
{
glyphname = U;
lastChange = "2020-04-07 07:48:24 +0000";
layers = (
{
anchors = (
{
name = bottom;
position = "{322, 0}";
},
{
name = horn;
position = "{534, 700}";
},
{
name = ogonek;
position = "{322, 0}";
},
{
name = top;
position = "{322, 700}";
}
);
layerId = "AB099EFE-E788-4EFC-8633-CF147CB782A6";
paths = (
{
closed = 1;
nodes = (
"92 83 OFFCURVE",
"182 -10 OFFCURVE",
"322 -10 CURVE SMOOTH",
"460 -10 OFFCURVE",
"550 83 OFFCURVE",
"550 226 CURVE SMOOTH",
"550 700 LINE",
"518 700 LINE",
"518 234 LINE SMOOTH",
"518 103 OFFCURVE",
"441 18 OFFCURVE",
"322 18 CURVE SMOOTH",
"202 18 OFFCURVE",
"124 103 OFFCURVE",
"124 234 CURVE SMOOTH",
"124 700 LINE",
"92 700 LINE",
"92 226 LINE SMOOTH"
);
}
);
width = 642;
},
{
anchors = (
{
name = bottom;
position = "{348, 0}";
},
{
name = horn;
position = "{590, 700}";
},
{
name = ogonek;
position = "{348, 0}";
},
{
name = top;
position = "{348, 700}";
}
);
layerId = "2D8F7115-C311-411E-929D-56333CF7FFB2";
paths = (
{
closed = 1;
nodes = (
"66 102 OFFCURVE",
"176 -12 OFFCURVE",
"348 -12 CURVE SMOOTH",
"520 -12 OFFCURVE",
"630 102 OFFCURVE",
"630 276 CURVE SMOOTH",
"630 700 LINE",
"460 700 LINE",
"460 262 LINE SMOOTH",
"460 188 OFFCURVE",
"416 140 OFFCURVE",
"348 140 CURVE SMOOTH",
"282 140 OFFCURVE",
"238 188 OFFCURVE",
"238 262 CURVE SMOOTH",
"238 700 LINE",
"66 700 LINE",
"66 276 LINE SMOOTH"
);
}
);
width = 696;
}
);
leftKerningGroup = LAT_U_UC;
rightKerningGroup = LAT_U_UC;
unicode = 0055;
},
{
glyphname = V;
lastChange = "2020-04-08 02:19:36 +0000";
layers = (
{
anchors = (
{
name = bottom;
position = "{314, 0}";
},
{
name = top;
position = "{312, 700}";
}
);
layerId = "AB099EFE-E788-4EFC-8633-CF147CB782A6";
paths = (
{
closed = 1;
nodes = (
"328 0 LINE",
"598 700 LINE",
"564 700 LINE",
"406 286 LINE",
"316 38 LINE",
"312 38 LINE",
"220 286 LINE",
"62 700 LINE",
"28 700 LINE",
"298 0 LINE"
);
}
);
width = 628;
},
{
anchors = (
{
name = bottom;
position = "{346, 0}";
},
{
name = top;
position = "{346, 700}";
}
);
layerId = "2D8F7115-C311-411E-929D-56333CF7FFB2";
paths = (
{
closed = 1;
nodes = (
"460 0 LINE",
"686 700 LINE",
"506 700 LINE",
"408 372 LINE",
"348 158 LINE",
"344 158 LINE",
"282 372 LINE",
"184 700 LINE",
"4 700 LINE",
"232 0 LINE"
);
}
);
width = 690;
}
);
leftKerningGroup = LAT_V_UC;
rightKerningGroup = LAT_V_UC;
unicode = 0056;
},
{
glyphname = W;
lastChange = "2020-04-08 01:04:54 +0000";
layers = (
{
background = {
anchors = (
{
name = bottom;
position = "{440, 0}";
},
{
name = top;
position = "{440, 700}";
}
);
paths = (
{
closed = 1;
nodes = (
"222 0 LINE",
"260 0 LINE",
"338 284 LINE",
"438 640 LINE",
"440 640 LINE",
"540 284 LINE",
"618 0 LINE",
"654 0 LINE",
"844 700 LINE",
"810 700 LINE",
"700 282 LINE",
"638 38 LINE",
"634 38 LINE",
"570 282 LINE",
"456 700 LINE",
"420 700 LINE",
"308 282 LINE",
"242 38 LINE",
"240 38 LINE",
"176 282 LINE",
"68 700 LINE",
"32 700 LINE"
);
}
);
};
components = (
{
name = W.001;
}
);
layerId = "AB099EFE-E788-4EFC-8633-CF147CB782A6";
width = 876;
},
{
background = {
anchors = (
{
name = bottom;
position = "{492, 0}";
},
{
name = top;
position = "{488, 700}";
}
);
paths = (
{
closed = 1;
nodes = (
"180 0 LINE",
"372 0 LINE",
"430 152 LINE",
"488 332 LINE",
"492 332 LINE",
"550 152 LINE",
"608 0 LINE",
"800 0 LINE",
"972 700 LINE",
"784 700 LINE",
"718 416 LINE",
"686 210 LINE",
"684 210 LINE",
"630 386 LINE",
"522 700 LINE",
"458 700 LINE",
"350 386 LINE",
"298 210 LINE",
"294 210 LINE",
"258 416 LINE",
"196 700 LINE",
"8 700 LINE"
);
}
);
};
components = (
{
name = W.001;
}
);
layerId = "2D8F7115-C311-411E-929D-56333CF7FFB2";
width = 980;
},
{
associatedMasterId = "AB099EFE-E788-4EFC-8633-CF147CB782A6";
background = {
anchors = (
{
name = bottom;
position = "{462, 0}";
},
{
name = top;
position = "{460, 700}";
}
);
paths = (
{
closed = 1;
nodes = (
"200 0 LINE",
"312 0 LINE",
"378 204 LINE",
"460 454 LINE",
"462 454 LINE",
"544 204 LINE",
"610 0 LINE",
"720 0 LINE",
"900 700 LINE",
"792 700 LINE",
"706 340 LINE",
"658 142 LINE",
"654 142 LINE",
"596 334 LINE",
"484 700 LINE",
"436 700 LINE",
"328 334 LINE",
"266 142 LINE",
"264 142 LINE",
"216 340 LINE",
"132 700 LINE",
"22 700 LINE"
);
}
);
};
components = (
{
name = W.001;
}
);
layerId = "EFE37E7D-F637-41FE-8784-1086CBF7F997";
name = "Half {450}";
width = 920;
}
);
leftKerningGroup = LAT_W_UC;
rightKerningGroup = LAT_W_UC;
unicode = 0057;
},
{
glyphname = X;
lastChange = "2020-04-07 07:48:17 +0000";
layers = (
{
anchors = (
{
name = bottom;
position = "{278, 0}";
},
{
name = top;
position = "{278, 700}";
}
);
layerId = "AB099EFE-E788-4EFC-8633-CF147CB782A6";
paths = (
{
closed = 1;
nodes = (
"476 700 LINE",
"304 424 LINE",
"278 382 LINE",
"276 382 LINE",
"264 358 LINE",
"242 320 LINE",
"44 0 LINE",
"78 0 LINE",
"254 278 LINE",
"276 320 LINE",
"278 320 LINE",
"286 338 LINE",
"320 392 LINE",
"510 700 LINE"
);
},
{
closed = 1;
nodes = (
"234 392 LINE",
"266 338 LINE",
"276 320 LINE",
"278 320 LINE",
"304 278 LINE",
"476 0 LINE",
"510 0 LINE",
"314 320 LINE",
"290 358 LINE",
"278 382 LINE",
"276 382 LINE",
"248 424 LINE",
"76 700 LINE",
"44 700 LINE"
);
}
);
width = 554;
},
{
anchors = (
{
name = bottom;
position = "{330, 0}";
},
{
name = top;
position = "{330, 700}";
}
);
layerId = "2D8F7115-C311-411E-929D-56333CF7FFB2";
paths = (
{
closed = 1;
nodes = (
"428 700 LINE",
"352 532 LINE",
"330 472 LINE",
"324 472 LINE",
"226 352 LINE",
"216 338 LINE",
"20 0 LINE",
"222 0 LINE",
"288 124 LINE",
"326 202 LINE",
"334 202 LINE",
"430 346 LINE",
"440 362 LINE",
"628 700 LINE"
);
},
{
closed = 1;
nodes = (
"220 362 LINE",
"228 346 LINE",
"324 202 LINE",
"332 202 LINE",
"372 124 LINE",
"438 0 LINE",
"638 0 LINE",
"446 338 LINE",
"432 352 LINE",
"338 472 LINE",
"334 472 LINE",
"310 532 LINE",
"232 700 LINE",
"32 700 LINE"
);
}
);
width = 658;
}
);
leftKerningGroup = LAT_X_UC;
rightKerningGroup = LAT_X_UC;
unicode = 0058;
},
{
glyphname = Y;
lastChange = "2020-04-07 07:48:13 +0000";
layers = (
{
anchors = (
{
name = bottom;
position = "{284, 0}";
},
{
name = top;
position = "{282, 700}";
}
);
layerId = "AB099EFE-E788-4EFC-8633-CF147CB782A6";
paths = (
{
closed = 1;
nodes = (
"266 0 LINE",
"296 0 LINE",
"296 322 LINE",
"534 700 LINE",
"500 700 LINE",
"372 496 LINE",
"284 356 LINE",
"278 356 LINE",
"188 496 LINE",
"62 700 LINE",
"28 700 LINE",
"266 322 LINE"
);
}
);
width = 562;
},
{
anchors = (
{
name = bottom;
position = "{324, 0}";
},
{
name = top;
position = "{322, 700}";
}
);
layerId = "2D8F7115-C311-411E-929D-56333CF7FFB2";
paths = (
{
closed = 1;
nodes = (
"234 0 LINE",
"406 0 LINE",
"406 264 LINE",
"636 700 LINE",
"438 700 LINE",
"382 572 LINE",
"322 428 LINE",
"318 428 LINE",
"258 572 LINE",
"200 700 LINE",
"4 700 LINE",
"234 264 LINE"
);
}
);
width = 640;
}
);
leftKerningGroup = LAT_Y_UC;
rightKerningGroup = LAT_Y_UC;
unicode = 0059;
},
{
glyphname = Z;
lastChange = "2020-04-07 07:47:15 +0000";
layers = (
{
anchors = (
{
name = bottom;
position = "{320, 0}";
},
{
name = top;
position = "{316, 700}";
}
);
layerId = "AB099EFE-E788-4EFC-8633-CF147CB782A6";
paths = (
{
closed = 1;
nodes = (
"76 0 LINE",
"534 0 LINE",
"534 28 LINE",
"116 28 LINE",
"524 682 LINE",
"524 700 LINE",
"102 700 LINE",
"102 672 LINE",
"482 672 LINE",
"76 18 LINE"
);
}
);
width = 610;
},
{
anchors = (
{
name = bottom;
position = "{306, 0}";
},
{
name = top;
position = "{306, 700}";
}
);
layerId = "2D8F7115-C311-411E-929D-56333CF7FFB2";
paths = (
{
closed = 1;
nodes = (
"36 0 LINE",
"574 0 LINE",
"574 150 LINE",
"286 150 LINE",
"566 676 LINE",
"566 700 LINE",
"48 700 LINE",
"48 550 LINE",
"318 550 LINE",
"36 24 LINE"
);
}
);
width = 610;
}
);
leftKerningGroup = LAT_Z_UC;
rightKerningGroup = LAT_Z_UC;
unicode = 005A;
},
{
glyphname = I.ss04;
lastChange = "2020-04-07 04:54:46 +0000";
layers = (
{
anchors = (
{
name = bottom;
position = "{180, 0}";
},
{
name = ogonek;
position = "{154, 0}";
},
{
name = top;
position = "{180, 700}";
}
);
layerId = "AB099EFE-E788-4EFC-8633-CF147CB782A6";
paths = (
{
closed = 1;
nodes = (
"164 0 LINE",
"196 0 LINE",
"196 700 LINE",
"164 700 LINE"
);
},
{
closed = 1;
nodes = (
"80 672 LINE",
"278 672 LINE",
"278 700 LINE",
"80 700 LINE"
);
},
{
closed = 1;
nodes = (
"80 0 LINE",
"278 0 LINE",
"278 28 LINE",
"80 28 LINE"
);
}
);
width = 358;
},
{
anchors = (
{
name = bottom;
position = "{240, 0}";
},
{
name = ogonek;
position = "{222, 0}";
},
{
name = top;
position = "{240, 700}";
}
);
layerId = "2D8F7115-C311-411E-929D-56333CF7FFB2";
paths = (
{
closed = 1;
nodes = (
"154 0 LINE",
"326 0 LINE",
"326 700 LINE",
"154 700 LINE"
);
},
{
closed = 1;
nodes = (
"60 548 LINE",
"418 548 LINE",
"418 700 LINE",
"60 700 LINE"
);
},
{
closed = 1;
nodes = (
"60 0 LINE",
"418 0 LINE",
"418 152 LINE",
"60 152 LINE"
);
}
);
width = 478;
}
);
leftKerningGroup = LAT_ISS03_UC;
rightKerningGroup = LAT_ISS03_UC;
},
{
glyphname = IJ.ss04;
lastChange = "2020-04-07 04:54:46 +0000";
layers = (
{
components = (
{
name = I.ss04;
}
);
layerId = "AB099EFE-E788-4EFC-8633-CF147CB782A6";
paths = (
{
closed = 1;
nodes = (
"414 -132 OFFCURVE",
"398 -222 OFFCURVE",
"272 -222 CURVE SMOOTH",
"230 -222 OFFCURVE",
"192 -200 OFFCURVE",
"170 -158 CURVE",
"144 -176 LINE",
"170 -220 OFFCURVE",
"216 -250 OFFCURVE",
"278 -250 CURVE SMOOTH",
"414 -250 OFFCURVE",
"446 -160 OFFCURVE",
"446 -24 CURVE",
"446 696 LINE",
"414 696 LINE",
"414 -36 LINE SMOOTH"
);
}
);
width = 538;
},
{
components = (
{
name = I.ss04;
}
);
layerId = "2D8F7115-C311-411E-929D-56333CF7FFB2";
paths = (
{
closed = 1;
nodes = (
"528 -96 OFFCURVE",
"496 -122 OFFCURVE",
"464 -122 CURVE SMOOTH",
"436 -122 OFFCURVE",
"412 -104 OFFCURVE",
"404 -58 CURVE",
"264 -132 LINE",
"298 -232 OFFCURVE",
"388 -266 OFFCURVE",
"482 -266 CURVE SMOOTH",
"610 -266 OFFCURVE",
"702 -186 OFFCURVE",
"702 -22 CURVE",
"702 696 LINE",
"530 696 LINE",
"530 -36 LINE"
);
}
);
width = 768;
}
);
leftKerningGroup = LAT_ISS03_UC;
leftMetricsKey = I.ss04;
rightKerningGroup = LAT_J_UC;
},
{
glyphname = W.ss06;
lastChange = "2020-04-28 11:32:07 +0000";
layers = (
{
anchors = (
{
name = bottom;
position = "{444, -24}";
},
{
name = top;
position = "{440, 734}";
}
);
layerId = "AB099EFE-E788-4EFC-8633-CF147CB782A6";
paths = (
{
closed = 1;
nodes = (
"222 0 LINE",
"260 0 LINE",
"338 284 LINE SMOOTH",
"384 450 OFFCURVE",
"408 534 OFFCURVE",
"438 640 CURVE",
"440 640 LINE",
"472 518 OFFCURVE",
"508 402 OFFCURVE",
"540 284 CURVE SMOOTH",
"618 0 LINE",
"654 0 LINE",
"844 700 LINE",
"810 700 LINE",
"700 282 LINE",
"678 200 OFFCURVE",
"658 112 OFFCURVE",
"638 38 CURVE",
"634 38 LINE",
"614 120 OFFCURVE",
"592 198 OFFCURVE",
"570 282 CURVE",
"456 700 LINE",
"420 700 LINE",
"308 282 LINE SMOOTH",
"286 200 OFFCURVE",
"264 122 OFFCURVE",
"242 38 CURVE",
"240 38 LINE",
"232 72 OFFCURVE",
"194 216 OFFCURVE",
"176 282 CURVE",
"68 700 LINE",
"32 700 LINE"
);
}
);
width = 876;
},
{
anchors = (
{
name = bottom;
position = "{486, -24}";
},
{
name = top;
position = "{482, 724}";
}
);
layerId = "2D8F7115-C311-411E-929D-56333CF7FFB2";
paths = (
{
closed = 1;
nodes = (
"166 0 LINE",
"384 0 LINE",
"444 222 LINE SMOOTH",
"461 286 OFFCURVE",
"471 341 OFFCURVE",
"482 406 CURVE",
"486 406 LINE",
"496 341 OFFCURVE",
"507 286 OFFCURVE",
"524 222 CURVE SMOOTH",
"584 0 LINE",
"802 0 LINE",
"958 700 LINE",
"766 700 LINE",
"712 400 LINE SMOOTH",
"701 338 OFFCURVE",
"690 278 OFFCURVE",
"678 216 CURVE",
"676 216 LINE",
"664 272 OFFCURVE",
"654 330 OFFCURVE",
"642 386 CURVE SMOOTH",
"564 700 LINE",
"404 700 LINE",
"326 388 LINE SMOOTH",
"314 330 OFFCURVE",
"304 274 OFFCURVE",
"292 216 CURVE",
"288 216 LINE",
"276 278 OFFCURVE",
"266 338 OFFCURVE",
"254 400 CURVE SMOOTH",
"202 700 LINE",
"10 700 LINE"
);
}
);
width = 966;
}
);
leftKerningGroup = LAT_W_UC_RIGHT;
rightKerningGroup = LAT_W_UC_LEFT;
},
{
export = 0;
glyphname = IJ;
lastChange = "2020-04-07 04:51:07 +0000";
layers = (
{
anchors = (
{
name = bottom;
position = "{462, -24}";
},
{
name = top;
position = "{564, 730}";
}
);
components = (
{
name = I;
transform = "{1, 0, 0, 1, 18, 0}";
}
);
layerId = "AB099EFE-E788-4EFC-8633-CF147CB782A6";
paths = (
{
closed = 1;
nodes = (
"367 -208 OFFCURVE",
"406 -146 OFFCURVE",
"406 -66 CURVE SMOOTH",
"406 696 LINE",
"374 696 LINE",
"374 -70 LINE SMOOTH",
"374 -126 OFFCURVE",
"346 -180 OFFCURVE",
"270 -180 CURVE SMOOTH",
"228 -180 OFFCURVE",
"186 -164 OFFCURVE",
"164 -152 CURVE",
"158 -182 LINE",
"196 -199 OFFCURVE",
"233 -208 OFFCURVE",
"272 -208 CURVE SMOOTH"
);
}
);
width = 498;
},
{
anchors = (
{
name = bottom;
position = "{618, -24}";
},
{
name = top;
position = "{708, 720}";
}
);
components = (
{
name = I;
}
);
layerId = "2D8F7115-C311-411E-929D-56333CF7FFB2";
paths = (
{
closed = 1;
nodes = (
"492 -212 OFFCURVE",
"560 -124 OFFCURVE",
"560 -6 CURVE SMOOTH",
"560 696 LINE",
"388 696 LINE",
"388 10 LINE SMOOTH",
"388 -40 OFFCURVE",
"354 -62 OFFCURVE",
"296 -62 CURVE SMOOTH",
"268 -62 OFFCURVE",
"226 -56 OFFCURVE",
"190 -38 CURVE",
"152 -186 LINE",
"204 -204 OFFCURVE",
"280 -212 OFFCURVE",
"330 -212 CURVE SMOOTH"
);
}
);
width = 628;
}
);
leftKerningGroup = LAT_I_UC;
rightKerningGroup = LAT_I_UC;
unicode = 0132;
},
{
export = 0;
glyphname = Q.001;
lastChange = "2020-05-05 05:49:10 +0000";
layers = (
{
anchors = (
{
name = bottom;
position = "{384, -200}";
},
{
name = top;
position = "{384, 700}";
}
);
components = (
{
name = O;
}
);
layerId = "AB099EFE-E788-4EFC-8633-CF147CB782A6";
paths = (
{
closed = 1;
nodes = (
"366 -56 LINE SMOOTH",
"366 -118 OFFCURVE",
"410 -160 OFFCURVE",
"472 -160 CURVE SMOOTH",
"488 -160 OFFCURVE",
"500 -158 OFFCURVE",
"510 -154 CURVE",
"506 -126 LINE",
"496 -128 OFFCURVE",
"482 -130 OFFCURVE",
"472 -130 CURVE SMOOTH",
"432 -130 OFFCURVE",
"398 -110 OFFCURVE",
"398 -66 CURVE SMOOTH",
"398 8 LINE",
"366 8 LINE"
);
}
);
width = 768;
},
{
anchors = (
{
name = bottom;
position = "{388, -200}";
},
{
name = top;
position = "{388, 700}";
}
);
components = (
{
name = O;
}
);
layerId = "2D8F7115-C311-411E-929D-56333CF7FFB2";
paths = (
{
closed = 1;
nodes = (
"324 -52 LINE SMOOTH",
"324 -138 OFFCURVE",
"398 -204 OFFCURVE",
"492 -204 CURVE SMOOTH",
"508 -204 OFFCURVE",
"544 -202 OFFCURVE",
"566 -196 CURVE",
"554 -54 LINE",
"544 -58 OFFCURVE",
"516 -60 OFFCURVE",
"500 -60 CURVE SMOOTH",
"459 -60 OFFCURVE",
"438 -44 OFFCURVE",
"438 -22 CURVE SMOOTH",
"438 32 LINE",
"324 32 LINE"
);
}
);
width = 776;
},
{
anchors = (
{
name = bottom;
position = "{390, -200}";
},
{
name = top;
position = "{390, 700}";
}
);
associatedMasterId = "AB099EFE-E788-4EFC-8633-CF147CB782A6";
components = (
{
alignment = -1;
name = O;
transform = "{1, 0, 0, 1, 2, 0}";
}
);
layerId = "5F397B99-8889-4A27-BB1C-6FD1F8D7B180";
name = "Half {450}";
paths = (
{
closed = 1;
nodes = (
"344 -54 LINE SMOOTH",
"344 -128 OFFCURVE",
"394 -182 OFFCURVE",
"474 -182 CURVE SMOOTH",
"490 -182 OFFCURVE",
"518 -178 OFFCURVE",
"536 -174 CURVE",
"530 -90 LINE",
"516 -96 OFFCURVE",
"490 -98 OFFCURVE",
"476 -98 CURVE SMOOTH",
"444 -98 OFFCURVE",
"428 -76 OFFCURVE",
"428 -44 CURVE SMOOTH",
"428 20 LINE",
"344 20 LINE"
);
}
);
width = 778;
}
);
leftKerningGroup = LAT_O_UC;
rightKerningGroup = LAT_O_UC;
},
{
export = 0;
glyphname = W.001;
lastChange = "2020-05-05 05:49:10 +0000";
layers = (
{
anchors = (
{
name = bottom;
position = "{440, 0}";
},
{
name = top;
position = "{440, 700}";
}
);
layerId = "AB099EFE-E788-4EFC-8633-CF147CB782A6";
paths = (
{
closed = 1;
nodes = (
"222 0 LINE",
"260 0 LINE",
"338 262 LINE",
"438 590 LINE",
"440 590 LINE",
"540 262 LINE",
"618 0 LINE",
"654 0 LINE",
"844 700 LINE",
"810 700 LINE",
"700 282 LINE",
"638 36 LINE",
"634 36 LINE",
"570 260 LINE",
"450 646 LINE",
"426 646 LINE",
"308 260 LINE",
"242 36 LINE",
"240 36 LINE",
"176 282 LINE",
"68 700 LINE",
"32 700 LINE"
);
}
);
width = 876;
},
{
anchors = (
{
name = bottom;
position = "{492, 0}";
},
{
name = top;
position = "{488, 700}";
}
);
layerId = "2D8F7115-C311-411E-929D-56333CF7FFB2";
paths = (
{
closed = 1;
nodes = (
"180 0 LINE",
"354 0 LINE",
"420 140 LINE",
"488 294 LINE",
"492 294 LINE",
"560 140 LINE",
"626 0 LINE",
"800 0 LINE",
"972 700 LINE",
"784 700 LINE",
"718 426 LINE",
"686 248 LINE",
"682 248 LINE",
"622 386 LINE",
"520 620 LINE",
"460 620 LINE",
"358 386 LINE",
"298 248 LINE",
"294 248 LINE",
"258 426 LINE",
"196 700 LINE",
"8 700 LINE"
);
}
);
width = 980;
},
{
anchors = (
{
name = bottom;
position = "{462, 0}";
},
{
name = top;
position = "{460, 700}";
}
);
associatedMasterId = "AB099EFE-E788-4EFC-8633-CF147CB782A6";
layerId = "EFE37E7D-F637-41FE-8784-1086CBF7F997";
name = "Half {450}";
paths = (
{
closed = 1;
nodes = (
"200 0 LINE",
"312 0 LINE",
"408 254 LINE",
"460 388 LINE",
"462 388 LINE",
"514 254 LINE",
"610 0 LINE",
"720 0 LINE",
"900 700 LINE",
"792 700 LINE",
"706 342 LINE",
"658 140 LINE",
"654 140 LINE",
"598 290 LINE",
"478 600 LINE",
"442 600 LINE",
"324 290 LINE",
"266 140 LINE",
"264 140 LINE",
"216 342 LINE",
"132 700 LINE",
"22 700 LINE"
);
}
);
width = 920;
}
);
leftKerningGroup = LAT_W_UC;
rightKerningGroup = LAT_W_UC;
},
{
export = 0;
glyphname = Q.002;
lastChange = "2020-05-05 05:49:10 +0000";
layers = (
{
anchors = (
{
name = bottom;
position = "{384, -200}";
},
{
name = top;
position = "{384, 700}";
}
);
components = (
{
name = O;
}
);
layerId = "AB099EFE-E788-4EFC-8633-CF147CB782A6";
paths = (
{
closed = 1;
nodes = (
"632 -26 LINE",
"582 68 LINE",
"574 80 LINE",
"504 202 LINE",
"478 186 LINE",
"550 60 LINE",
"556 50 LINE",
"606 -42 LINE"
);
}
);
width = 768;
},
{
anchors = (
{
name = bottom;
position = "{388, -200}";
},
{
name = top;
position = "{388, 700}";
}
);
components = (
{
alignment = -1;
name = O;
}
);
layerId = "2D8F7115-C311-411E-929D-56333CF7FFB2";
paths = (
{
closed = 1;
nodes = (
"692 0 LINE",
"638 94 LINE",
"558 200 LINE",
"478 338 LINE",
"358 272 LINE",
"456 104 LINE",
"522 20 LINE",
"572 -66 LINE"
);
}
);
width = 776;
},
{
anchors = (
{
name = bottom;
position = "{386, -200}";
},
{
name = top;
position = "{386, 700}";
}
);
associatedMasterId = "AB099EFE-E788-4EFC-8633-CF147CB782A6";
components = (
{
alignment = -1;
name = O;
}
);
guideLines = (
{
angle = 60;
position = "{670, 0}";
},
{
angle = 150;
position = "{670, 0}";
}
);
layerId = "5F397B99-8889-4A27-BB1C-6FD1F8D7B180";
name = "Half {450}";
paths = (
{
closed = 1;
nodes = (
"650 -40 LINE",
"594 62 LINE",
"574 96 LINE",
"486 250 LINE",
"400 202 LINE",
"470 78 LINE",
"496 32 LINE",
"564 -88 LINE"
);
}
);
width = 772;
}
);
leftKerningGroup = LAT_O_UC;
rightKerningGroup = LAT_O_UC;
},
{
export = 0;
glyphname = Q.003;
lastChange = "2020-05-05 05:49:10 +0000";
layers = (
{
anchors = (
{
name = bottom;
position = "{384, -200}";
},
{
name = top;
position = "{384, 700}";
}
);
components = (
{
name = O;
}
);
layerId = "AB099EFE-E788-4EFC-8633-CF147CB782A6";
paths = (
{
closed = 1;
nodes = (
"644 8 LINE",
"584 102 LINE",
"574 114 LINE",
"492 236 LINE",
"466 220 LINE",
"552 94 LINE",
"560 84 LINE",
"618 -8 LINE"
);
}
);
width = 768;
},
{
anchors = (
{
name = bottom;
position = "{388, -200}";
},
{
name = top;
position = "{388, 700}";
}
);
components = (
{
alignment = -1;
name = O;
}
);
layerId = "2D8F7115-C311-411E-929D-56333CF7FFB2";
paths = (
{
closed = 1;
nodes = (
"738 56 LINE",
"664 134 LINE",
"560 220 LINE",
"448 358 LINE",
"344 276 LINE",
"478 124 LINE",
"564 60 LINE",
"634 -26 LINE"
);
}
);
width = 776;
},
{
anchors = (
{
name = bottom;
position = "{386, -200}";
},
{
name = top;
position = "{386, 700}";
}
);
associatedMasterId = "AB099EFE-E788-4EFC-8633-CF147CB782A6";
components = (
{
alignment = -1;
name = O;
}
);
guideLines = (
{
angle = 60;
position = "{670, 0}";
},
{
angle = 150;
position = "{670, 0}";
}
);
layerId = "5F397B99-8889-4A27-BB1C-6FD1F8D7B180";
name = "Half {450}";
paths = (
{
closed = 1;
nodes = (
"720 48 LINE",
"646 126 LINE",
"608 155 LINE",
"476 292 LINE",
"406 234 LINE",
"539 95 LINE",
"578 64 LINE",
"648 -10 LINE"
);
}
);
width = 772;
}
);
leftKerningGroup = LAT_O_UC;
rightKerningGroup = LAT_O_UC;
},
{
glyphname = a;
lastChange = "2020-05-05 07:42:29 +0000";
layers = (
{
anchors = (
{
name = bottom;
position = "{226, 0}";
},
{
name = ogonek;
position = "{398, -2}";
},
{
name = top;
position = "{236, 500}";
}
);
layerId = "AB099EFE-E788-4EFC-8633-CF147CB782A6";
paths = (
{
closed = 1;
nodes = (
"456 20 LINE",
"448 24 LINE SMOOTH",
"424 36 OFFCURVE",
"406 62 OFFCURVE",
"406 110 CURVE SMOOTH",
"406 298 LINE SMOOTH",
"406 428 OFFCURVE",
"362 508 OFFCURVE",
"238 508 CURVE SMOOTH",
"178 508 OFFCURVE",
"108 488 OFFCURVE",
"68 460 CURVE",
"78 430 LINE",
"122 462 OFFCURVE",
"184 480 OFFCURVE",
"234 480 CURVE SMOOTH",
"332 480 OFFCURVE",
"376 420 OFFCURVE",
"376 308 CURVE SMOOTH",
"376 266 LINE",
"376 262 LINE",
"376 116 LINE",
"370 84 LINE",
"378 84 LINE",
"383 41 OFFCURVE",
"403 14 OFFCURVE",
"430 -2 CURVE SMOOTH",
"440 -8 LINE"
);
},
{
closed = 1;
nodes = (
"276 -8 OFFCURVE",
"346 30 OFFCURVE",
"378 86 CURVE",
"382 138 LINE",
"338 60 OFFCURVE",
"274 20 OFFCURVE",
"200 20 CURVE SMOOTH",
"132 20 OFFCURVE",
"78 54 OFFCURVE",
"78 116 CURVE SMOOTH",
"78 167 OFFCURVE",
"123 221 OFFCURVE",
"236 242 CURVE SMOOTH",
"388 270 LINE",
"388 298 LINE",
"226 268 LINE SMOOTH",
"104 245 OFFCURVE",
"48 184 OFFCURVE",
"48 116 CURVE SMOOTH",
"48 36 OFFCURVE",
"112 -8 OFFCURVE",
"204 -8 CURVE SMOOTH"
);
}
);
width = 496;
},
{
anchors = (
{
name = bottom;
position = "{276, 0}";
},
{
name = ogonek;
position = "{412, 0}";
},
{
name = top;
position = "{282, 512}";
}
);
layerId = "2D8F7115-C311-411E-929D-56333CF7FFB2";
paths = (
{
closed = 1;
nodes = (
"554 126 LINE",
"536 134 LINE SMOOTH",
"514 144 OFFCURVE",
"502 146 OFFCURVE",
"502 206 CURVE SMOOTH",
"502 318 LINE SMOOTH",
"502 380 OFFCURVE",
"502 524 OFFCURVE",
"284 524 CURVE SMOOTH",
"198 524 OFFCURVE",
"104 500 OFFCURVE",
"54 468 CURVE",
"110 340 LINE",
"140 362 OFFCURVE",
"214 388 OFFCURVE",
"258 388 CURVE SMOOTH",
"298 388 OFFCURVE",
"330 370 OFFCURVE",
"330 324 CURVE SMOOTH",
"330 262 LINE",
"336 244 LINE",
"336 124 LINE",
"340 62 LINE",
"362 62 LINE",
"376 34 OFFCURVE",
"410 6 OFFCURVE",
"460 -8 CURVE SMOOTH",
"474 -12 LINE"
);
},
{
closed = 1;
nodes = (
"282 -12 OFFCURVE",
"346 30 OFFCURVE",
"366 72 CURVE",
"342 148 LINE",
"322 124 OFFCURVE",
"292 112 OFFCURVE",
"258 112 CURVE SMOOTH",
"224 112 OFFCURVE",
"196 126 OFFCURVE",
"196 152 CURVE SMOOTH",
"196 176 OFFCURVE",
"218 196 OFFCURVE",
"274 208 CURVE SMOOTH",
"348 224 LINE",
"348 314 LINE",
"240 292 LINE SMOOTH",
"114 266 OFFCURVE",
"32 212 OFFCURVE",
"32 130 CURVE SMOOTH",
"32 64 OFFCURVE",
"88 -12 OFFCURVE",
"200 -12 CURVE SMOOTH"
);
}
);
width = 578;
},
{
anchors = (
{
name = bottom;
position = "{252, 0}";
},
{
name = ogonek;
position = "{404, 0}";
},
{
name = top;
position = "{260, 506}";
}
);
associatedMasterId = "AB099EFE-E788-4EFC-8633-CF147CB782A6";
background = {
paths = (
{
closed = 1;
nodes = (
"506 74 LINE",
"492 80 LINE SMOOTH",
"464 92 OFFCURVE",
"454 112 OFFCURVE",
"454 158 CURVE SMOOTH",
"454 308 LINE SMOOTH",
"454 404 OFFCURVE",
"432 518 OFFCURVE",
"266 518 CURVE SMOOTH",
"192 518 OFFCURVE",
"112 496 OFFCURVE",
"64 464 CURVE",
"98 382 LINE",
"134 408 OFFCURVE",
"200 430 OFFCURVE",
"252 430 CURVE SMOOTH",
"316 430 OFFCURVE",
"354 392 OFFCURVE",
"354 316 CURVE SMOOTH",
"354 262 LINE",
"354 252 LINE",
"354 108 LINE",
"370 108 LINE",
"368 54 OFFCURVE",
"394 11 OFFCURVE",
"446 -6 CURVE SMOOTH",
"458 -10 LINE"
);
},
{
closed = 1;
nodes = (
"288 -10 OFFCURVE",
"352 30 OFFCURVE",
"378 80 CURVE",
"358 152 LINE",
"330 106 OFFCURVE",
"276 74 OFFCURVE",
"220 74 CURVE SMOOTH",
"174 74 OFFCURVE",
"140 98 OFFCURVE",
"140 138 CURVE SMOOTH",
"140 198 OFFCURVE",
"226 214 OFFCURVE",
"362 214 CURVE",
"362 290 LINE",
"178 302 OFFCURVE",
"40 256 OFFCURVE",
"40 132 CURVE SMOOTH",
"40 50 OFFCURVE",
"110 -10 OFFCURVE",
"208 -10 CURVE SMOOTH"
);
}
);
};
layerId = "10222E3F-14CA-477D-B1AE-4234237F89B0";
name = "Half {450}";
paths = (
{
closed = 1;
nodes = (
"506 74 LINE",
"492 80 LINE SMOOTH",
"464 92 OFFCURVE",
"454 112 OFFCURVE",
"454 158 CURVE SMOOTH",
"454 308 LINE SMOOTH",
"454 404 OFFCURVE",
"432 518 OFFCURVE",
"266 518 CURVE SMOOTH",
"192 518 OFFCURVE",
"112 496 OFFCURVE",
"64 464 CURVE",
"98 382 LINE",
"134 408 OFFCURVE",
"200 430 OFFCURVE",
"252 430 CURVE SMOOTH",
"316 430 OFFCURVE",
"354 392 OFFCURVE",
"354 316 CURVE SMOOTH",
"354 262 LINE",
"354 252 LINE",
"354 124 LINE",
"354 72 LINE",
"374 72 LINE",
"382 36 OFFCURVE",
"406 7 OFFCURVE",
"446 -6 CURVE SMOOTH",
"458 -10 LINE"
);
},
{
closed = 1;
nodes = (
"288 -10 OFFCURVE",
"352 30 OFFCURVE",
"378 80 CURVE",
"354 162 LINE",
"330 110 OFFCURVE",
"276 74 OFFCURVE",
"220 74 CURVE SMOOTH",
"174 74 OFFCURVE",
"140 98 OFFCURVE",
"140 136 CURVE SMOOTH",
"140 181 OFFCURVE",
"214 203 OFFCURVE",
"288 220 CURVE SMOOTH",
"382 242 LINE",
"382 322 LINE",
"266 298 LINE SMOOTH",
"110 266 OFFCURVE",
"40 208 OFFCURVE",
"40 132 CURVE SMOOTH",
"40 50 OFFCURVE",
"110 -10 OFFCURVE",
"208 -10 CURVE SMOOTH"
);
}
);
width = 538;
},
{
anchors = (
{
name = bottom;
position = "{259, 0}";
},
{
name = ogonek;
position = "{406, 0}";
},
{
name = top;
position = "{266, 508}";
}
);
associatedMasterId = "AB099EFE-E788-4EFC-8633-CF147CB782A6";
background = {
paths = (
{
closed = 1;
nodes = (
"506 74 LINE",
"492 80 LINE SMOOTH",
"464 92 OFFCURVE",
"454 112 OFFCURVE",
"454 158 CURVE SMOOTH",
"454 308 LINE SMOOTH",
"454 404 OFFCURVE",
"432 518 OFFCURVE",
"266 518 CURVE SMOOTH",
"192 518 OFFCURVE",
"112 496 OFFCURVE",
"64 464 CURVE",
"98 382 LINE",
"134 408 OFFCURVE",
"200 430 OFFCURVE",
"252 430 CURVE SMOOTH",
"316 430 OFFCURVE",
"354 392 OFFCURVE",
"354 316 CURVE SMOOTH",
"354 262 LINE",
"354 252 LINE",
"354 108 LINE",
"370 108 LINE",
"368 54 OFFCURVE",
"394 11 OFFCURVE",
"446 -6 CURVE SMOOTH",
"458 -10 LINE"
);
},
{
closed = 1;
nodes = (
"288 -10 OFFCURVE",
"352 30 OFFCURVE",
"378 80 CURVE",
"358 152 LINE",
"330 106 OFFCURVE",
"276 74 OFFCURVE",
"220 74 CURVE SMOOTH",
"174 74 OFFCURVE",
"140 98 OFFCURVE",
"140 138 CURVE SMOOTH",
"140 198 OFFCURVE",
"226 214 OFFCURVE",
"362 214 CURVE",
"362 290 LINE",
"178 302 OFFCURVE",
"40 256 OFFCURVE",
"40 132 CURVE SMOOTH",
"40 50 OFFCURVE",
"110 -10 OFFCURVE",
"208 -10 CURVE SMOOTH"
);
}
);
};
layerId = "EB847B56-C9CA-4E51-9A4F-65B5D4A20BD9";
name = "{550}";
paths = (
{
closed = 1;
nodes = (
"520 90 LINE",
"506 96 LINE SMOOTH",
"478 108 OFFCURVE",
"468 122 OFFCURVE",
"468 172 CURVE SMOOTH",
"468 312 LINE SMOOTH",
"468 398 OFFCURVE",
"452 520 OFFCURVE",
"272 520 CURVE SMOOTH",
"192 520 OFFCURVE",
"108 496 OFFCURVE",
"62 466 CURVE",
"102 370 LINE",
"138 396 OFFCURVE",
"204 418 OFFCURVE",
"254 418 CURVE SMOOTH",
"312 418 OFFCURVE",
"348 386 OFFCURVE",
"348 318 CURVE SMOOTH",
"348 262 LINE",
"350 250 LINE",
"350 124 LINE",
"350 70 LINE",
"372 70 LINE",
"380 38 OFFCURVE",
"402 6 OFFCURVE",
"450 -8 CURVE SMOOTH",
"464 -12 LINE"
);
},
{
closed = 1;
nodes = (
"286 -12 OFFCURVE",
"350 30 OFFCURVE",
"376 78 CURVE",
"354 152 LINE",
"326 108 OFFCURVE",
"280 86 OFFCURVE",
"232 86 CURVE SMOOTH",
"186 86 OFFCURVE",
"156 104 OFFCURVE",
"156 136 CURVE SMOOTH",
"156 176 OFFCURVE",
"216 197 OFFCURVE",
"284 212 CURVE SMOOTH",
"372 232 LINE",
"372 320 LINE",
"260 296 LINE SMOOTH",
"113 265 OFFCURVE",
"36 208 OFFCURVE",
"36 128 CURVE SMOOTH",
"36 50 OFFCURVE",
"104 -12 OFFCURVE",
"206 -12 CURVE SMOOTH"
);
}
);
width = 550;
}
);
leftKerningGroup = LAT_ASS02_LC;
rightKerningGroup = LAT_A_LC;
rightMetricsKey = u;
unicode = 0061;
},
{
glyphname = ae;
lastChange = "2020-05-05 05:49:42 +0000";
layers = (
{
anchors = (
{
name = bottom;
position = "{394, 0}";
},
{
name = top;
position = "{386, 500}";
}
);
background = {
components = (
{
name = a;
transform = "{0.96569, 0, 0, 1, 2, 0}";
},
{
name = e.archive;
transform = "{0.94033, 0, 0, 1, 318, 0}";
}
);
};
layerId = "AB099EFE-E788-4EFC-8633-CF147CB782A6";
paths = (
{
closed = 1;
nodes = (
"644 -8 OFFCURVE",
"703 17 OFFCURVE",
"746 62 CURVE",
"730 84 LINE",
"689 44 OFFCURVE",
"634 20 OFFCURVE",
"574 20 CURVE SMOOTH",
"468 20 OFFCURVE",
"394 108 OFFCURVE",
"394 248 CURVE SMOOTH",
"394 396 OFFCURVE",
"466 480 OFFCURVE",
"572 480 CURVE SMOOTH",
"676 480 OFFCURVE",
"740 388 OFFCURVE",
"740 268 CURVE",
"388 268 LINE",
"388 240 LINE",
"770 240 LINE",
"770 254 OFFCURVE",
"770 262 OFFCURVE",
"770 276 CURVE SMOOTH",
"770 402 OFFCURVE",
"694 508 OFFCURVE",
"572 508 CURVE SMOOTH",
"452 508 OFFCURVE",
"366 414 OFFCURVE",
"366 248 CURVE SMOOTH",
"366 96 OFFCURVE",
"446 -8 OFFCURVE",
"576 -8 CURVE SMOOTH"
);
},
{
closed = 1;
nodes = (
"286 -8 OFFCURVE",
"366 40 OFFCURVE",
"402 100 CURVE",
"392 136 LINE",
"346 58 OFFCURVE",
"278 20 OFFCURVE",
"202 20 CURVE SMOOTH",
"126 20 OFFCURVE",
"78 56 OFFCURVE",
"78 114 CURVE SMOOTH",
"78 196 OFFCURVE",
"174 242 OFFCURVE",
"394 240 CURVE",
"394 268 LINE",
"166 272 OFFCURVE",
"48 220 OFFCURVE",
"48 114 CURVE SMOOTH",
"48 36 OFFCURVE",
"112 -8 OFFCURVE",
"198 -8 CURVE SMOOTH"
);
},
{
closed = 1;
nodes = (
"394 302 LINE",
"398 424 OFFCURVE",
"360 508 OFFCURVE",
"234 508 CURVE SMOOTH",
"174 508 OFFCURVE",
"108 488 OFFCURVE",
"68 460 CURVE",
"80 434 LINE",
"122 462 OFFCURVE",
"180 480 OFFCURVE",
"232 480 CURVE SMOOTH",
"328 480 OFFCURVE",
"366 420 OFFCURVE",
"366 302 CURVE SMOOTH",
"366 264 LINE"
);
}
);
width = 818;
},
{
anchors = (
{
name = bottom;
position = "{418, 0}";
},
{
name = top;
position = "{422, 512}";
}
);
layerId = "2D8F7115-C311-411E-929D-56333CF7FFB2";
paths = (
{
closed = 1;
nodes = (
"662 -12 OFFCURVE",
"746 18 OFFCURVE",
"790 58 CURVE",
"704 162 LINE",
"682 136 OFFCURVE",
"636 120 OFFCURVE",
"594 120 CURVE SMOOTH",
"544 120 OFFCURVE",
"456 154 OFFCURVE",
"456 262 CURVE SMOOTH",
"456 364 OFFCURVE",
"522 402 OFFCURVE",
"570 402 CURVE SMOOTH",
"618 402 OFFCURVE",
"658 360 OFFCURVE",
"658 306 CURVE",
"448 306 LINE",
"448 208 LINE",
"794 208 LINE",
"798 228 OFFCURVE",
"800 248 OFFCURVE",
"800 272 CURVE SMOOTH",
"800 456 OFFCURVE",
"678 524 OFFCURVE",
"572 524 CURVE SMOOTH",
"444 524 OFFCURVE",
"324 410 OFFCURVE",
"324 254 CURVE SMOOTH",
"324 94 OFFCURVE",
"444 -12 OFFCURVE",
"584 -12 CURVE SMOOTH"
);
},
{
closed = 1;
nodes = (
"298 -12 OFFCURVE",
"382 30 OFFCURVE",
"406 72 CURVE",
"356 148 LINE",
"332 124 OFFCURVE",
"296 112 OFFCURVE",
"254 112 CURVE SMOOTH",
"220 112 OFFCURVE",
"192 126 OFFCURVE",
"192 152 CURVE SMOOTH",
"192 192 OFFCURVE",
"260 210 OFFCURVE",
"340 200 CURVE",
"342 296 LINE",
"174 316 OFFCURVE",
"28 238 OFFCURVE",
"28 126 CURVE SMOOTH",
"28 48 OFFCURVE",
"96 -12 OFFCURVE",
"206 -12 CURVE SMOOTH"
);
},
{
closed = 1;
nodes = (
"462 354 LINE",
"478 380 OFFCURVE",
"498 524 OFFCURVE",
"280 524 CURVE SMOOTH",
"194 524 OFFCURVE",
"106 504 OFFCURVE",
"56 472 CURVE",
"112 344 LINE",
"142 366 OFFCURVE",
"210 388 OFFCURVE",
"254 388 CURVE SMOOTH",
"294 388 OFFCURVE",
"328 370 OFFCURVE",
"328 316 CURVE SMOOTH",
"328 270 LINE"
);
}
);
width = 832;
},
{
anchors = (
{
name = bottom;
position = "{404, 0}";
},
{
name = top;
position = "{404, 506}";
}
);
associatedMasterId = "AB099EFE-E788-4EFC-8633-CF147CB782A6";
layerId = "0E25C16D-2446-49C2-8681-EBC11D211070";
name = "Half {450}";
paths = (
{
closed = 1;
nodes = (
"652 -10 OFFCURVE",
"724 20 OFFCURVE",
"766 62 CURVE",
"710 132 LINE",
"682 102 OFFCURVE",
"636 78 OFFCURVE",
"584 78 CURVE SMOOTH",
"492 78 OFFCURVE",
"442 150 OFFCURVE",
"442 254 CURVE SMOOTH",
"442 356 OFFCURVE",
"492 430 OFFCURVE",
"574 430 CURVE SMOOTH",
"646 430 OFFCURVE",
"696 374 OFFCURVE",
"694 296 CURVE",
"418 296 LINE",
"418 216 LINE",
"782 216 LINE",
"782 220 OFFCURVE",
"786 244 OFFCURVE",
"786 276 CURVE SMOOTH",
"784 426 OFFCURVE",
"692 514 OFFCURVE",
"576 514 CURVE SMOOTH",
"448 514 OFFCURVE",
"354 408 OFFCURVE",
"354 252 CURVE SMOOTH",
"354 106 OFFCURVE",
"438 -10 OFFCURVE",
"580 -10 CURVE SMOOTH"
);
},
{
closed = 1;
nodes = (
"292 -10 OFFCURVE",
"382 24 OFFCURVE",
"418 80 CURVE",
"380 160 LINE",
"348 106 OFFCURVE",
"284 74 OFFCURVE",
"222 74 CURVE SMOOTH",
"168 74 OFFCURVE",
"136 100 OFFCURVE",
"136 138 CURVE SMOOTH",
"136 192 OFFCURVE",
"220 210 OFFCURVE",
"358 216 CURVE",
"358 294 LINE",
"166 296 OFFCURVE",
"36 246 OFFCURVE",
"36 134 CURVE SMOOTH",
"36 50 OFFCURVE",
"102 -10 OFFCURVE",
"210 -10 CURVE SMOOTH"
);
},
{
closed = 1;
nodes = (
"438 314 LINE",
"438 406 OFFCURVE",
"428 518 OFFCURVE",
"262 518 CURVE SMOOTH",
"188 518 OFFCURVE",
"108 496 OFFCURVE",
"60 464 CURVE",
"94 382 LINE",
"130 408 OFFCURVE",
"196 430 OFFCURVE",
"248 430 CURVE SMOOTH",
"312 430 OFFCURVE",
"356 392 OFFCURVE",
"356 296 CURVE SMOOTH",
"356 280 LINE"
);
}
);
width = 826;
}
);
leftKerningGroup = LAT_ASS02_LC;
leftMetricsKey = a.ss02;
rightKerningGroup = LAT_E_LC;
rightMetricsKey = e;
unicode = 00E6;
},
{
glyphname = b;
lastChange = "2020-04-29 10:43:33 +0000";
layers = (
{
anchors = (
{
name = bottom;
position = "{288, 0}";
},
{
name = center;
position = "{96, 600}";
},
{
name = top;
position = "{312, 548}";
}
);
components = (
{
name = _part.bowl;
transform = "{1, 0, 0, 1, -4, 0}";
}
);
layerId = "AB099EFE-E788-4EFC-8633-CF147CB782A6";
paths = (
{
closed = 1;
nodes = (
"110 0 LINE",
"110 108 LINE",
"114 108 LINE",
"110 122 LINE",
"110 732 LINE",
"80 732 LINE",
"80 0 LINE"
);
}
);
width = 568;
},
{
anchors = (
{
name = bottom;
position = "{322, 0}";
},
{
name = center;
position = "{148, 616}";
},
{
name = top;
position = "{394, 552}";
}
);
components = (
{
name = _part.bowl;
transform = "{1, 0, 0, 1, 4, 0}";
}
);
layerId = "2D8F7115-C311-411E-929D-56333CF7FFB2";
paths = (
{
closed = 1;
nodes = (
"224 0 LINE",
"224 52 LINE",
"236 52 LINE",
"234 88 LINE",
"234 732 LINE",
"64 732 LINE",
"64 0 LINE"
);
}
);
width = 634;
},
{
anchors = (
{
name = bottom;
position = "{305, 0}";
},
{
name = center;
position = "{124, 608}";
},
{
name = top;
position = "{353, 550}";
}
);
associatedMasterId = "AB099EFE-E788-4EFC-8633-CF147CB782A6";
components = (
{
alignment = -1;
name = _part.bowl;
}
);
layerId = "5A761FBB-D991-4916-A5B6-6B494825C86B";
name = "Half {450}";
paths = (
{
closed = 1;
nodes = (
"170 0 LINE",
"170 52 LINE",
"178 52 LINE",
"172 78 LINE",
"172 732 LINE",
"72 732 LINE",
"72 0 LINE"
);
}
);
width = 600;
}
);
leftKerningGroup = LAT_L_LC;
rightKerningGroup = LAT_O_LC;
rightMetricsKey = o;
unicode = 0062;
},
{
glyphname = c;
lastChange = "2020-04-29 10:46:46 +0000";
layers = (
{
anchors = (
{
name = bottom;
position = "{286, 0}";
},
{
name = cedilla;
position = "{294, 0}";
},
{
name = top;
position = "{286, 500}";
}
);
layerId = "AB099EFE-E788-4EFC-8633-CF147CB782A6";
paths = (
{
closed = 1;
nodes = (
"382 -8 OFFCURVE",
"446 38 OFFCURVE",
"478 80 CURVE",
"456 96 LINE",
"416 52 OFFCURVE",
"368 20 OFFCURVE",
"296 20 CURVE SMOOTH",
"172 20 OFFCURVE",
"78 124 OFFCURVE",
"78 250 CURVE SMOOTH",
"78 380 OFFCURVE",
"176 480 OFFCURVE",
"298 480 CURVE SMOOTH",
"340 480 OFFCURVE",
"410 466 OFFCURVE",
"452 398 CURVE",
"478 410 LINE",
"440 472 OFFCURVE",
"376 508 OFFCURVE",
"296 508 CURVE SMOOTH",
"154 508 OFFCURVE",
"48 388 OFFCURVE",
"48 250 CURVE SMOOTH",
"48 102 OFFCURVE",
"162 -8 OFFCURVE",
"292 -8 CURVE SMOOTH"
);
}
);
width = 518;
},
{
anchors = (
{
name = bottom;
position = "{288, 0}";
},
{
name = cedilla;
position = "{294, 0}";
},
{
name = top;
position = "{294, 512}";
}
);
layerId = "2D8F7115-C311-411E-929D-56333CF7FFB2";
paths = (
{
closed = 1;
nodes = (
"388 -10 OFFCURVE",
"464 34 OFFCURVE",
"514 102 CURVE",
"392 188 LINE",
"369 155 OFFCURVE",
"330 134 OFFCURVE",
"294 134 CURVE SMOOTH",
"226 134 OFFCURVE",
"180 184 OFFCURVE",
"178 260 CURVE SMOOTH",
"180 333 OFFCURVE",
"227 380 OFFCURVE",
"296 380 CURVE SMOOTH",
"332 380 OFFCURVE",
"368 361 OFFCURVE",
"388 332 CURVE",
"516 412 LINE",
"466 480 OFFCURVE",
"388 524 OFFCURVE",
"296 524 CURVE SMOOTH",
"146 524 OFFCURVE",
"28 416 OFFCURVE",
"28 260 CURVE SMOOTH",
"28 108 OFFCURVE",
"138 -10 OFFCURVE",
"294 -10 CURVE SMOOTH"
);
}
);
width = 532;
},
{
anchors = (
{
name = bottom;
position = "{286, 0}";
},
{
name = cedilla;
position = "{294, 0}";
},
{
name = top;
position = "{286, 506}";
}
);
associatedMasterId = "AB099EFE-E788-4EFC-8633-CF147CB782A6";
background = {
paths = (
{
closed = 1;
nodes = (
"372 -10 OFFCURVE",
"434 36 OFFCURVE",
"470 78 CURVE",
"404 134 LINE",
"376 92 OFFCURVE",
"332 72 OFFCURVE",
"282 72 CURVE SMOOTH",
"194 72 OFFCURVE",
"126 148 OFFCURVE",
"126 250 CURVE SMOOTH",
"126 352 OFFCURVE",
"192 432 OFFCURVE",
"282 432 CURVE SMOOTH",
"340 432 OFFCURVE",
"380 404 OFFCURVE",
"404 370 CURVE",
"470 426 LINE",
"434 468 OFFCURVE",
"370 514 OFFCURVE",
"284 514 CURVE SMOOTH",
"144 514 OFFCURVE",
"34 396 OFFCURVE",
"34 250 CURVE SMOOTH",
"34 106 OFFCURVE",
"144 -10 OFFCURVE",
"284 -10 CURVE SMOOTH"
);
}
);
};
layerId = "98F6FA9A-5184-406D-994E-3285DF595750";
name = "Half {450}";
paths = (
{
closed = 1;
nodes = (
"378 -10 OFFCURVE",
"458 42 OFFCURVE",
"500 114 CURVE",
"422 162 LINE",
"398 116 OFFCURVE",
"340 82 OFFCURVE",
"288 82 CURVE SMOOTH",
"208 82 OFFCURVE",
"132 152 OFFCURVE",
"132 254 CURVE SMOOTH",
"132 352 OFFCURVE",
"206 424 OFFCURVE",
"290 424 CURVE SMOOTH",
"348 424 OFFCURVE",
"404 384 OFFCURVE",
"422 342 CURVE",
"500 392 LINE",
"458 468 OFFCURVE",
"376 516 OFFCURVE",
"286 516 CURVE SMOOTH",
"150 516 OFFCURVE",
"36 406 OFFCURVE",
"36 252 CURVE SMOOTH",
"36 98 OFFCURVE",
"152 -10 OFFCURVE",
"286 -10 CURVE SMOOTH"
);
}
);
width = 528;
}
);
leftKerningGroup = LAT_O_LC;
leftMetricsKey = o;
rightKerningGroup = LAT_C_LC;
unicode = 0063;
},
{
glyphname = d;
lastChange = "2020-04-29 10:43:37 +0000";
layers = (
{
anchors = (
{
name = bottom;
position = "{292, 0}";
},
{
name = center;
position = "{474, 600}";
},
{
name = leghookretroflex;
position = "{474, 0}";
},
{
name = top;
position = "{472, 732}";
},
{
name = topright;
position = "{488, 732}";
}
);
components = (
{
name = _part.bowl;
transform = "{-1, 0, 0, 1, 572, 0}";
}
);
layerId = "AB099EFE-E788-4EFC-8633-CF147CB782A6";
paths = (
{
closed = 1;
nodes = (
"536 20 LINE",
"528 24 LINE SMOOTH",
"506 35 OFFCURVE",
"488 62 OFFCURVE",
"488 110 CURVE SMOOTH",
"488 734 LINE",
"458 734 LINE",
"458 140 LINE",
"448 106 LINE",
"458 106 LINE",
"458 48 OFFCURVE",
"480 16 OFFCURVE",
"510 -2 CURVE SMOOTH",
"520 -8 LINE"
);
}
);
width = 568;
},
{
anchors = (
{
name = bottom;
position = "{316, 0}";
},
{
name = center;
position = "{484, 616}";
},
{
name = leghookretroflex;
position = "{486, 0}";
},
{
name = top;
position = "{486, 732}";
},
{
name = topright;
position = "{570, 732}";
}
);
components = (
{
name = _part.bowl;
transform = "{-1, 0, 0, 1, 630, 0}";
}
);
layerId = "2D8F7115-C311-411E-929D-56333CF7FFB2";
paths = (
{
closed = 1;
nodes = (
"620 126 LINE",
"602 134 LINE SMOOTH",
"580 144 OFFCURVE",
"570 148 OFFCURVE",
"570 206 CURVE SMOOTH",
"570 732 LINE",
"400 732 LINE",
"400 130 LINE",
"396 64 LINE",
"422 64 LINE",
"434 38 OFFCURVE",
"473 7 OFFCURVE",
"526 -8 CURVE SMOOTH",
"540 -12 LINE"
);
}
);
width = 644;
},
{
anchors = (
{
name = bottom;
position = "{302, 0}";
},
{
name = center;
position = "{480, 608}";
},
{
name = leghookretroflex;
position = "{480, 0}";
},
{
name = top;
position = "{480, 732}";
},
{
name = topright;
position = "{606, 732}";
}
);
associatedMasterId = "AB099EFE-E788-4EFC-8633-CF147CB782A6";
components = (
{
alignment = -1;
name = _part.bowl;
transform = "{-1, 0, 0, 1, 600, 0}";
}
);
layerId = "93F45F20-9F23-4A78-8C04-8606029ED3EE";
name = "Half {450}";
paths = (
{
closed = 1;
nodes = (
"578 74 LINE",
"566 80 LINE SMOOTH",
"538 94 OFFCURVE",
"530 116 OFFCURVE",
"530 158 CURVE SMOOTH",
"530 732 LINE",
"430 732 LINE",
"430 136 LINE",
"418 66 LINE",
"448 66 LINE",
"448 58 OFFCURVE",
"464 12 OFFCURVE",
"518 -6 CURVE SMOOTH",
"530 -10 LINE"
);
}
);
width = 606;
}
);
leftKerningGroup = LAT_O_LC;
leftMetricsKey = o;
rightKerningGroup = LAT_D_LC;
unicode = 0064;
},
{
glyphname = eth;
lastChange = "2020-04-07 04:51:13 +0000";
layers = (
{
background = {
paths = (
{
closed = 1;
nodes = (
"462 437 OFFCURVE",
"375 486 OFFCURVE",
"284 486 CURVE SMOOTH",
"146 486 OFFCURVE",
"43 382 OFFCURVE",
"44 242 CURVE SMOOTH",
"43 99 OFFCURVE",
"143 -8 OFFCURVE",
"276 -8 CURVE SMOOTH",
"418 -8 OFFCURVE",
"509 112 OFFCURVE",
"510 296 CURVE SMOOTH",
"509 501 OFFCURVE",
"371 672 OFFCURVE",
"152 742 CURVE",
"144 714 LINE",
"349 650 OFFCURVE",
"479 489 OFFCURVE",
"480 296 CURVE SMOOTH",
"479 127 OFFCURVE",
"400 20 OFFCURVE",
"276 20 CURVE SMOOTH",
"159 20 OFFCURVE",
"73 114 OFFCURVE",
"74 242 CURVE SMOOTH",
"73 366 OFFCURVE",
"163 458 OFFCURVE",
"284 458 CURVE SMOOTH",
"364 458 OFFCURVE",
"440 415 OFFCURVE",
"474 350 CURVE",
"502 362 LINE"
);
}
);
};
layerId = "AB099EFE-E788-4EFC-8633-CF147CB782A6";
paths = (
{
closed = 1;
nodes = (
"422 -8 OFFCURVE",
"510 120 OFFCURVE",
"510 296 CURVE SMOOTH",
"510 540 OFFCURVE",
"320 692 OFFCURVE",
"154 742 CURVE",
"144 716 LINE",
"264 678 OFFCURVE",
"418 580 OFFCURVE",
"466 404 CURVE",
"472 410 LINE",
"458 410 LINE",
"472 396 LINE",
"448 445 OFFCURVE",
"362 486 OFFCURVE",
"288 486 CURVE SMOOTH",
"137 486 OFFCURVE",
"44 376 OFFCURVE",
"44 238 CURVE SMOOTH",
"44 96 OFFCURVE",
"146 -8 OFFCURVE",
"278 -8 CURVE SMOOTH"
);
},
{
closed = 1;
nodes = (
"160 20 OFFCURVE",
"74 114 OFFCURVE",
"74 238 CURVE SMOOTH",
"74 370 OFFCURVE",
"167 458 OFFCURVE",
"282 458 CURVE SMOOTH",
"354 458 OFFCURVE",
"442 410 OFFCURVE",
"480 350 CURVE",
"472 374 LINE",
"478 346 OFFCURVE",
"480 320 OFFCURVE",
"480 290 CURVE SMOOTH",
"480 146 OFFCURVE",
"406 20 OFFCURVE",
"276 20 CURVE SMOOTH"
);
},
{
closed = 1;
nodes = (
"438 718 LINE",
"428 740 LINE",
"138 580 LINE",
"150 556 LINE"
);
}
);
width = 554;
},
{
background = {
components = (
{
name = delta;
transform = "{1, 0, 0, 1, -4, 0}";
}
);
};
layerId = "2D8F7115-C311-411E-929D-56333CF7FFB2";
paths = (
{
closed = 1;
nodes = (
"460 -12 OFFCURVE",
"572 122 OFFCURVE",
"572 310 CURVE SMOOTH",
"572 518 OFFCURVE",
"434 690 OFFCURVE",
"178 808 CURVE",
"112 678 LINE",
"258 624 OFFCURVE",
"366 534 OFFCURVE",
"410 426 CURVE",
"432 450 LINE",
"390 450 LINE",
"418 416 LINE",
"402 470 OFFCURVE",
"328 488 OFFCURVE",
"274 488 CURVE SMOOTH",
"160 488 OFFCURVE",
"32 400 OFFCURVE",
"32 246 CURVE SMOOTH",
"32 98 OFFCURVE",
"150 -12 OFFCURVE",
"298 -12 CURVE SMOOTH"
);
},
{
closed = 1;
nodes = (
"244 140 OFFCURVE",
"192 186 OFFCURVE",
"192 254 CURVE SMOOTH",
"192 324 OFFCURVE",
"250 358 OFFCURVE",
"302 358 CURVE SMOOTH",
"358 358 OFFCURVE",
"422 322 OFFCURVE",
"438 274 CURVE",
"414 350 LINE",
"416 332 OFFCURVE",
"418 314 OFFCURVE",
"418 296 CURVE SMOOTH",
"418 204 OFFCURVE",
"372 140 OFFCURVE",
"302 140 CURVE SMOOTH"
);
},
{
closed = 1;
nodes = (
"510 718 LINE",
"452 804 LINE",
"114 576 LINE",
"158 514 LINE"
);
}
);
width = 598;
},
{
associatedMasterId = "AB099EFE-E788-4EFC-8633-CF147CB782A6";
background = {
components = (
{
name = delta;
transform = "{1, 0, 0, 1, -10, 0}";
}
);
};
layerId = "91BDAD2D-5B11-4BE0-BF5F-19682392A8C1";
name = "Half {450}";
paths = (
{
closed = 1;
nodes = (
"437 -10 OFFCURVE",
"540 121 OFFCURVE",
"540 296 CURVE SMOOTH",
"540 538 OFFCURVE",
"381 682 OFFCURVE",
"168 774 CURVE",
"130 694 LINE",
"259 643 OFFCURVE",
"393 560 OFFCURVE",
"438 422 CURVE",
"452 438 LINE",
"426 438 LINE",
"442 420 LINE",
"421 461 OFFCURVE",
"351 492 OFFCURVE",
"278 492 CURVE SMOOTH",
"142 492 OFFCURVE",
"40 390 OFFCURVE",
"40 246 CURVE SMOOTH",
"40 100 OFFCURVE",
"151 -10 OFFCURVE",
"296 -10 CURVE SMOOTH"
);
},
{
closed = 1;
nodes = (
"204 82 OFFCURVE",
"139 150 OFFCURVE",
"140 242 CURVE SMOOTH",
"140 338 OFFCURVE",
"203 399 OFFCURVE",
"294 400 CURVE SMOOTH",
"350 399 OFFCURVE",
"424 375 OFFCURVE",
"460 294 CURVE",
"444 354 LINE",
"447 332 OFFCURVE",
"449 296 OFFCURVE",
"450 274 CURVE SMOOTH",
"449 160 OFFCURVE",
"384 82 OFFCURVE",
"296 82 CURVE SMOOTH"
);
},
{
closed = 1;
nodes = (
"480 722 LINE",
"446 776 LINE",
"130 590 LINE",
"164 536 LINE"
);
}
);
width = 580;
}
);
leftKerningGroup = LAT_ETH_LC;
rightKerningGroup = LAT_ETH_LC;
unicode = 00F0;
},
{
glyphname = e;
lastChange = "2020-04-29 10:51:24 +0000";
layers = (
{
anchors = (
{
name = bottom;
position = "{276, 0}";
},
{
name = cedilla;
position = "{270, 0}";
},
{
name = ogonek;
position = "{362, 34}";
},
{
name = top;
position = "{272, 500}";
}
);
layerId = "AB099EFE-E788-4EFC-8633-CF147CB782A6";
paths = (
{
closed = 1;
nodes = (
"348 -8 OFFCURVE",
"408 22 OFFCURVE",
"448 60 CURVE",
"432 84 LINE",
"388 46 OFFCURVE",
"338 20 OFFCURVE",
"274 20 CURVE SMOOTH",
"156 20 OFFCURVE",
"78 110 OFFCURVE",
"78 248 CURVE SMOOTH",
"78 390 OFFCURVE",
"164 480 OFFCURVE",
"272 480 CURVE SMOOTH",
"380 480 OFFCURVE",
"452 388 OFFCURVE",
"450 268 CURVE",
"72 268 LINE",
"72 240 LINE",
"480 240 LINE",
"480 252 OFFCURVE",
"480 264 OFFCURVE",
"480 276 CURVE SMOOTH",
"480 408 OFFCURVE",
"396 508 OFFCURVE",
"272 508 CURVE SMOOTH",
"146 508 OFFCURVE",
"48 406 OFFCURVE",
"48 248 CURVE SMOOTH",
"48 96 OFFCURVE",
"140 -8 OFFCURVE",
"276 -8 CURVE SMOOTH"
);
}
);
width = 528;
},
{
anchors = (
{
name = bottom;
position = "{288, 0}";
},
{
name = cedilla;
position = "{284, 0}";
},
{
name = ogonek;
position = "{362, 14}";
},
{
name = top;
position = "{278, 506}";
}
);
associatedMasterId = "AB099EFE-E788-4EFC-8633-CF147CB782A6";
layerId = "197FD552-64D2-439A-92C4-31C862AB66D0";
name = "Half {450}";
paths = (
{
closed = 1;
nodes = (
"360 -10 OFFCURVE",
"430 10 OFFCURVE",
"476 46 CURVE",
"424 122 LINE",
"394 96 OFFCURVE",
"346 78 OFFCURVE",
"292 78 CURVE SMOOTH",
"194 78 OFFCURVE",
"130 150 OFFCURVE",
"130 254 CURVE SMOOTH",
"130 356 OFFCURVE",
"190 430 OFFCURVE",
"280 430 CURVE SMOOTH",
"358 430 OFFCURVE",
"412 374 OFFCURVE",
"410 296 CURVE",
"110 296 LINE",
"110 216 LINE",
"498 216 LINE",
"498 222 OFFCURVE",
"504 240 OFFCURVE",
"504 276 CURVE SMOOTH",
"504 416 OFFCURVE",
"412 514 OFFCURVE",
"280 514 CURVE SMOOTH",
"138 514 OFFCURVE",
"36 406 OFFCURVE",
"36 254 CURVE SMOOTH",
"36 100 OFFCURVE",
"140 -10 OFFCURVE",
"296 -10 CURVE SMOOTH"
);
}
);
width = 544;
},
{
anchors = (
{
name = bottom;
position = "{300, 0}";
},
{
name = cedilla;
position = "{304, 0}";
},
{
name = ogonek;
position = "{370, 18}";
},
{
name = top;
position = "{286, 512}";
}
);
background = {
paths = (
{
closed = 1;
nodes = (
"146 524 OFFCURVE",
"28 420 OFFCURVE",
"28 256 CURVE SMOOTH",
"28 88 OFFCURVE",
"156 -12 OFFCURVE",
"300 -12 CURVE SMOOTH",
"392 -12 OFFCURVE",
"452 30 OFFCURVE",
"494 78 CURVE",
"390 166 LINE",
"372 142 OFFCURVE",
"334 118 OFFCURVE",
"292 118 CURVE SMOOTH",
"240 118 OFFCURVE",
"176 154 OFFCURVE",
"176 262 CURVE SMOOTH",
"176 364 OFFCURVE",
"234 394 OFFCURVE",
"282 394 CURVE SMOOTH",
"332 394 OFFCURVE",
"382 356 OFFCURVE",
"382 306 CURVE",
"156 306 LINE",
"156 208 LINE",
"518 208 LINE",
"522 224 OFFCURVE",
"526 240 OFFCURVE",
"526 274 CURVE SMOOTH",
"526 452 OFFCURVE",
"398 524 OFFCURVE",
"284 524 CURVE SMOOTH"
);
}
);
};
layerId = "2D8F7115-C311-411E-929D-56333CF7FFB2";
paths = (
{
closed = 1;
nodes = (
"378 -12 OFFCURVE",
"440 12 OFFCURVE",
"484 42 CURVE",
"414 152 LINE",
"394 134 OFFCURVE",
"354 120 OFFCURVE",
"310 120 CURVE SMOOTH",
"216 120 OFFCURVE",
"174 180 OFFCURVE",
"174 260 CURVE SMOOTH",
"174 344 OFFCURVE",
"220 396 OFFCURVE",
"284 396 CURVE SMOOTH",
"334 396 OFFCURVE",
"374 364 OFFCURVE",
"374 306 CURVE",
"160 306 LINE",
"160 204 LINE",
"520 204 LINE",
"526 228 OFFCURVE",
"528 256 OFFCURVE",
"528 276 CURVE SMOOTH",
"528 416 OFFCURVE",
"426 524 OFFCURVE",
"286 524 CURVE SMOOTH",
"146 524 OFFCURVE",
"28 416 OFFCURVE",
"28 254 CURVE SMOOTH",
"28 100 OFFCURVE",
"134 -12 OFFCURVE",
"298 -12 CURVE SMOOTH"
);
}
);
width = 560;
}
);
leftKerningGroup = LAT_O_LC;
leftMetricsKey = o;
rightKerningGroup = LAT_E_LC;
unicode = 0065;
},
{
glyphname = f;
lastChange = "2020-04-07 07:42:54 +0000";
layers = (
{
anchors = (
{
name = bottom;
position = "{142, 0}";
},
{
name = top;
position = "{232, 732}";
}
);
layerId = "AB099EFE-E788-4EFC-8633-CF147CB782A6";
paths = (
{
closed = 1;
nodes = (
"154 0 LINE",
"154 604 LINE SMOOTH",
"154 660 OFFCURVE",
"180 712 OFFCURVE",
"246 712 CURVE SMOOTH",
"282 712 OFFCURVE",
"318 696 OFFCURVE",
"336 684 CURVE",
"342 714 LINE",
"310 732 OFFCURVE",
"278 740 OFFCURVE",
"244 740 CURVE SMOOTH",
"162 740 OFFCURVE",
"124 678 OFFCURVE",
"124 598 CURVE SMOOTH",
"124 0 LINE"
);
},
{
closed = 1;
nodes = (
"304 472 LINE",
"304 500 LINE",
"40 500 LINE",
"40 472 LINE"
);
}
);
width = 358;
},
{
anchors = (
{
name = bottom;
position = "{206, 0}";
},
{
name = top;
position = "{276, 732}";
}
);
layerId = "2D8F7115-C311-411E-929D-56333CF7FFB2";
paths = (
{
closed = 1;
nodes = (
"284 0 LINE",
"284 548 LINE SMOOTH",
"284 578 OFFCURVE",
"310 600 OFFCURVE",
"348 600 CURVE SMOOTH",
"368 600 OFFCURVE",
"396 594 OFFCURVE",
"420 582 CURVE",
"446 724 LINE",
"414 736 OFFCURVE",
"362 744 OFFCURVE",
"322 744 CURVE SMOOTH",
"182 744 OFFCURVE",
"114 662 OFFCURVE",
"114 544 CURVE SMOOTH",
"114 0 LINE"
);
},
{
closed = 1;
nodes = (
"428 368 LINE",
"428 512 LINE",
"20 512 LINE",
"20 368 LINE"
);
}
);
width = 462;
},
{
anchors = (
{
name = bottom;
position = "{172, 0}";
},
{
name = top;
position = "{258, 732}";
}
);
associatedMasterId = "AB099EFE-E788-4EFC-8633-CF147CB782A6";
layerId = "D74EF1A5-D3D7-4756-8257-D68E12FD6949";
name = "Half {450}";
paths = (
{
closed = 1;
nodes = (
"218 0 LINE",
"218 574 LINE SMOOTH",
"218 630 OFFCURVE",
"248 650 OFFCURVE",
"292 650 CURVE SMOOTH",
"312 650 OFFCURVE",
"340 642 OFFCURVE",
"366 628 CURVE",
"384 720 LINE",
"356 734 OFFCURVE",
"320 742 OFFCURVE",
"280 742 CURVE SMOOTH",
"172 742 OFFCURVE",
"118 678 OFFCURVE",
"118 592 CURVE SMOOTH",
"118 0 LINE"
);
},
{
closed = 1;
nodes = (
"364 418 LINE",
"364 506 LINE",
"30 506 LINE",
"28 418 LINE"
);
}
);
width = 400;
}
);
leftKerningGroup = LAT_F_LC;
rightKerningGroup = LAT_F_LC;
unicode = 0066;
},
{
glyphname = g;
lastChange = "2020-04-29 10:43:48 +0000";
layers = (
{
anchors = (
{
name = bottom;
position = "{282, -200}";
},
{
name = top;
position = "{280, 500}";
}
);
components = (
{
name = _part.bowl;
transform = "{-1, 0, 0, 1, 572, 0}";
}
);
layerId = "AB099EFE-E788-4EFC-8633-CF147CB782A6";
paths = (
{
closed = 1;
nodes = (
"366 -208 OFFCURVE",
"488 -152 OFFCURVE",
"488 4 CURVE SMOOTH",
"488 500 LINE",
"458 500 LINE",
"458 394 LINE",
"458 394 LINE",
"458 2 LINE SMOOTH",
"458 -132 OFFCURVE",
"354 -180 OFFCURVE",
"276 -180 CURVE SMOOTH",
"220 -180 OFFCURVE",
"159 -159 OFFCURVE",
"121 -126 CURVE",
"104 -151 LINE",
"142 -182 OFFCURVE",
"209 -208 OFFCURVE",
"274 -208 CURVE SMOOTH"
);
}
);
width = 568;
},
{
anchors = (
{
name = bottom;
position = "{316, -200}";
},
{
name = top;
position = "{306, 512}";
}
);
components = (
{
name = _part.bowl;
transform = "{-1, 0, 0, 0.95973, 634, 22}";
}
);
layerId = "2D8F7115-C311-411E-929D-56333CF7FFB2";
paths = (
{
closed = 1;
nodes = (
"458 -212 OFFCURVE",
"570 -122 OFFCURVE",
"570 34 CURVE SMOOTH",
"570 512 LINE",
"410 512 LINE",
"410 472 LINE",
"404 472 LINE",
"404 24 LINE SMOOTH",
"404 -44 OFFCURVE",
"330 -72 OFFCURVE",
"268 -72 CURVE SMOOTH",
"221 -72 OFFCURVE",
"170 -53 OFFCURVE",
"136 -32 CURVE",
"86 -166 LINE",
"126 -186 OFFCURVE",
"202 -212 OFFCURVE",
"290 -212 CURVE SMOOTH"
);
}
);
width = 630;
},
{
anchors = (
{
name = bottom;
position = "{296, -200}";
},
{
name = top;
position = "{290, 506}";
}
);
associatedMasterId = "AB099EFE-E788-4EFC-8633-CF147CB782A6";
components = (
{
alignment = -1;
name = _part.bowl;
transform = "{-1, 0, 0, 0.97986, 600, 12}";
}
);
layerId = "D548E82C-F1D5-44DE-B786-3582CB4D3885";
name = "Half {450}";
paths = (
{
closed = 1;
nodes = (
"409 -210 OFFCURVE",
"528 -137 OFFCURVE",
"528 20 CURVE SMOOTH",
"528 506 LINE",
"432 506 LINE",
"432 434 LINE",
"430 434 LINE",
"430 14 LINE SMOOTH",
"430 -88 OFFCURVE",
"339 -122 OFFCURVE",
"270 -122 CURVE SMOOTH",
"218 -122 OFFCURVE",
"162 -102 OFFCURVE",
"128 -76 CURVE",
"94 -160 LINE",
"131 -184 OFFCURVE",
"203 -210 OFFCURVE",
"280 -210 CURVE SMOOTH"
);
}
);
width = 600;
}
);
leftKerningGroup = LAT_G_LC;
rightKerningGroup = LAT_G_LC;
unicode = 0067;
},
{
glyphname = h;
lastChange = "2020-04-28 07:25:51 +0000";
layers = (
{
anchors = (
{
name = bottom;
position = "{272, 0}";
},
{
name = center;
position = "{92, 600}";
},
{
name = top;
position = "{94, 700}";
}
);
layerId = "AB099EFE-E788-4EFC-8633-CF147CB782A6";
paths = (
{
closed = 1;
nodes = (
"106 732 LINE",
"76 732 LINE",
"76 0 LINE",
"106 0 LINE"
);
},
{
closed = 1;
nodes = (
"448 0 LINE",
"448 296 LINE SMOOTH",
"448 418 OFFCURVE",
"406 508 OFFCURVE",
"284 508 CURVE SMOOTH",
"188 508 OFFCURVE",
"128 452 OFFCURVE",
"98 386 CURVE",
"104 346 LINE",
"134 410 OFFCURVE",
"194 480 OFFCURVE",
"282 480 CURVE SMOOTH",
"416 480 OFFCURVE",
"418 344 OFFCURVE",
"418 252 CURVE SMOOTH",
"418 0 LINE"
);
}
);
width = 520;
},
{
anchors = (
{
name = bottom;
position = "{304, 0}";
},
{
name = center;
position = "{148, 616}";
},
{
name = top;
position = "{148, 732}";
}
);
layerId = "2D8F7115-C311-411E-929D-56333CF7FFB2";
paths = (
{
closed = 1;
nodes = (
"234 732 LINE",
"64 732 LINE",
"64 0 LINE",
"234 0 LINE"
);
},
{
closed = 1;
nodes = (
"548 0 LINE",
"548 330 LINE SMOOTH",
"548 456 OFFCURVE",
"490 524 OFFCURVE",
"386 524 CURVE SMOOTH",
"300 524 OFFCURVE",
"214 476 OFFCURVE",
"200 414 CURVE",
"224 300 LINE",
"232 332 OFFCURVE",
"278 384 OFFCURVE",
"328 384 CURVE SMOOTH",
"378 384 OFFCURVE",
"378 328 OFFCURVE",
"378 282 CURVE SMOOTH",
"378 0 LINE"
);
}
);
width = 608;
},
{
anchors = (
{
name = bottom;
position = "{288, 0}";
},
{
name = center;
position = "{124, 608}";
},
{
name = top;
position = "{120, 732}";
}
);
associatedMasterId = "AB099EFE-E788-4EFC-8633-CF147CB782A6";
background = {
paths = (
{
closed = 1;
nodes = (
"500 0 LINE",
"500 324 LINE SMOOTH",
"500 378 OFFCURVE",
"500 516 OFFCURVE",
"346 516 CURVE SMOOTH",
"266 516 OFFCURVE",
"198 480 OFFCURVE",
"152 410 CURVE",
"154 298 LINE",
"182 360 OFFCURVE",
"234 428 OFFCURVE",
"310 428 CURVE SMOOTH",
"400 428 OFFCURVE",
"400 340 OFFCURVE",
"400 296 CURVE SMOOTH",
"400 0 LINE"
);
}
);
};
layerId = "39EFB1E4-533D-4678-8F1E-E84D7E2E78D0";
name = "Half {450}";
paths = (
{
closed = 1;
nodes = (
"172 732 LINE",
"72 732 LINE",
"72 0 LINE",
"172 0 LINE"
);
},
{
closed = 1;
nodes = (
"500 0 LINE",
"500 324 LINE SMOOTH",
"500 404 OFFCURVE",
"466 516 OFFCURVE",
"332 516 CURVE SMOOTH",
"259 516 OFFCURVE",
"189 483 OFFCURVE",
"152 420 CURVE",
"154 298 LINE",
"190 378 OFFCURVE",
"250 426 OFFCURVE",
"310 426 CURVE SMOOTH",
"400 426 OFFCURVE",
"400 340 OFFCURVE",
"400 296 CURVE SMOOTH",
"400 0 LINE"
);
}
);
width = 564;
}
);
leftKerningGroup = LAT_L_LC;
rightKerningGroup = LAT_N_LC;
rightMetricsKey = n;
unicode = 0068;
},
{
glyphname = idotless;
lastChange = "2020-04-28 07:11:20 +0000";
layers = (
{
anchors = (
{
name = bottom;
position = "{94, 0}";
},
{
name = ogonek;
position = "{64, 0}";
},
{
name = top;
position = "{96, 500}";
}
);
layerId = "AB099EFE-E788-4EFC-8633-CF147CB782A6";
paths = (
{
closed = 1;
nodes = (
"110 0 LINE",
"110 500 LINE",
"80 500 LINE",
"80 0 LINE"
);
}
);
width = 190;
},
{
anchors = (
{
name = bottom;
position = "{154, 0}";
},
{
name = ogonek;
position = "{168, 0}";
},
{
name = top;
position = "{154, 512}";
}
);
guideLines = (
{
angle = 60;
position = "{212, 0}";
}
);
layerId = "2D8F7115-C311-411E-929D-56333CF7FFB2";
paths = (
{
closed = 1;
nodes = (
"238 0 LINE",
"238 512 LINE",
"68 512 LINE",
"68 0 LINE"
);
}
);
width = 306;
},
{
anchors = (
{
name = bottom;
position = "{128, 0}";
},
{
name = ogonek;
position = "{132, 0}";
},
{
name = top;
position = "{128, 506}";
}
);
associatedMasterId = "AB099EFE-E788-4EFC-8633-CF147CB782A6";
layerId = "AE9AEE94-C3D5-4AA6-8DA1-95250520065B";
name = "Half {450}";
paths = (
{
closed = 1;
nodes = (
"178 0 LINE",
"178 506 LINE",
"78 506 LINE",
"78 0 LINE"
);
}
);
width = 256;
}
);
unicode = 0131;
},
{
glyphname = jdotless;
lastChange = "2020-04-28 10:40:46 +0000";
layers = (
{
anchors = (
{
name = center;
position = "{122, 270}";
},
{
name = top;
position = "{122, 500}";
}
);
layerId = "AB099EFE-E788-4EFC-8633-CF147CB782A6";
paths = (
{
closed = 1;
nodes = (
"98 -208 OFFCURVE",
"136 -146 OFFCURVE",
"136 -66 CURVE SMOOTH",
"136 500 LINE",
"106 500 LINE",
"106 -72 LINE SMOOTH",
"106 -128 OFFCURVE",
"80 -180 OFFCURVE",
"14 -180 CURVE SMOOTH",
"-1 -180 OFFCURVE",
"-15 -177 OFFCURVE",
"-30 -172 CURVE",
"-38 -198 LINE",
"-20 -205 OFFCURVE",
"-2 -208 OFFCURVE",
"16 -208 CURVE SMOOTH"
);
}
);
width = 220;
},
{
anchors = (
{
name = center;
position = "{164, 270}";
},
{
name = top;
position = "{162, 512}";
}
);
layerId = "2D8F7115-C311-411E-929D-56333CF7FFB2";
paths = (
{
closed = 1;
nodes = (
"184 -212 OFFCURVE",
"248 -124 OFFCURVE",
"248 -6 CURVE SMOOTH",
"248 512 LINE",
"78 512 LINE",
"78 -18 LINE SMOOTH",
"78 -42 OFFCURVE",
"64 -62 OFFCURVE",
"26 -62 CURVE SMOOTH",
"10 -62 OFFCURVE",
"-14 -58 OFFCURVE",
"-30 -50 CURVE",
"-52 -196 LINE",
"-24 -206 OFFCURVE",
"18 -212 OFFCURVE",
"52 -212 CURVE SMOOTH"
);
}
);
width = 308;
},
{
anchors = (
{
name = center;
position = "{144, 270}";
},
{
name = top;
position = "{142, 506}";
}
);
associatedMasterId = "AB099EFE-E788-4EFC-8633-CF147CB782A6";
layerId = "07B42797-D86D-41F2-ABBA-4C41B9928AA5";
name = "{450}";
paths = (
{
closed = 1;
nodes = (
"140 -208 OFFCURVE",
"192 -146 OFFCURVE",
"192 -60 CURVE SMOOTH",
"192 506 LINE",
"92 506 LINE",
"92 -48 LINE SMOOTH",
"92 -94 OFFCURVE",
"68 -116 OFFCURVE",
"28 -116 CURVE SMOOTH",
"18 -116 OFFCURVE",
"-2 -115 OFFCURVE",
"-22 -106 CURVE",
"-36 -198 LINE",
"-16 -208 OFFCURVE",
"9 -211 OFFCURVE",
"36 -210 CURVE SMOOTH"
);
}
);
width = 264;
}
);
leftKerningGroup = LAT_J_LC;
rightKerningGroup = LAT_J_LC;
unicode = 0237;
},
{
glyphname = k;
lastChange = "2020-04-28 07:25:11 +0000";
layers = (
{
anchors = (
{
name = bottom;
position = "{244, 0}";
},
{
name = top;
position = "{90, 732}";
}
);
layerId = "AB099EFE-E788-4EFC-8633-CF147CB782A6";
paths = (
{
closed = 1;
nodes = (
"106 0 LINE",
"106 240 LINE",
"146 240 LINE",
"122 252 LINE",
"388 0 LINE",
"428 0 LINE",
"152 262 LINE",
"152 246 LINE",
"410 500 LINE",
"368 500 LINE",
"122 256 LINE",
"146 268 LINE",
"106 268 LINE",
"106 732 LINE",
"76 732 LINE",
"76 0 LINE"
);
}
);
width = 460;
},
{
anchors = (
{
name = bottom;
position = "{314, 0}";
},
{
name = top;
position = "{150, 732}";
}
);
layerId = "2D8F7115-C311-411E-929D-56333CF7FFB2";
paths = (
{
closed = 1;
nodes = (
"234 0 LINE",
"234 216 LINE",
"268 216 LINE",
"216 242 LINE",
"398 0 LINE",
"596 0 LINE",
"340 318 LINE",
"340 220 LINE",
"586 512 LINE",
"386 512 LINE",
"216 288 LINE",
"268 314 LINE",
"234 314 LINE",
"234 732 LINE",
"64 732 LINE",
"64 0 LINE"
);
}
);
width = 608;
},
{
anchors = (
{
name = bottom;
position = "{278, 0}";
},
{
name = top;
position = "{120, 732}";
}
);
associatedMasterId = "AB099EFE-E788-4EFC-8633-CF147CB782A6";
layerId = "747C743E-195A-40A8-87E1-D6A4F966DDB7";
name = "Half {450}";
paths = (
{
closed = 1;
nodes = (
"172 0 LINE",
"172 218 LINE",
"212 218 LINE",
"170 248 LINE",
"394 0 LINE",
"524 0 LINE",
"260 288 LINE",
"260 236 LINE",
"510 506 LINE",
"378 506 LINE",
"170 278 LINE",
"212 306 LINE",
"172 306 LINE",
"172 732 LINE",
"72 732 LINE",
"72 0 LINE"
);
}
);
width = 548;
}
);
leftKerningGroup = LAT_L_LC;
leftMetricsKey = h;
rightKerningGroup = LAT_K_LC;
unicode = 006B;
},
{
glyphname = kgreenlandic;
lastChange = "2020-04-07 04:51:17 +0000";
layers = (
{
anchors = (
{
name = bottom;
position = "{235, 0}";
},
{
name = top;
position = "{235, 500}";
}
);
layerId = "AB099EFE-E788-4EFC-8633-CF147CB782A6";
paths = (
{
closed = 1;
nodes = (
"110 0 LINE",
"110 240 LINE",
"150 240 LINE",
"126 252 LINE",
"392 0 LINE",
"432 0 LINE",
"156 262 LINE",
"156 246 LINE",
"414 500 LINE",
"372 500 LINE",
"126 256 LINE",
"150 268 LINE",
"110 268 LINE",
"110 500 LINE",
"80 500 LINE",
"80 0 LINE"
);
}
);
width = 470;
},
{
anchors = (
{
name = bottom;
position = "{304, 0}";
},
{
name = top;
position = "{304, 512}";
}
);
layerId = "2D8F7115-C311-411E-929D-56333CF7FFB2";
paths = (
{
closed = 1;
nodes = (
"234 0 LINE",
"234 216 LINE",
"268 216 LINE",
"216 242 LINE",
"398 0 LINE",
"596 0 LINE",
"340 318 LINE",
"340 220 LINE",
"586 512 LINE",
"386 512 LINE",
"216 288 LINE",
"268 314 LINE",
"234 314 LINE",
"234 512 LINE",
"64 512 LINE",
"64 0 LINE"
);
}
);
width = 608;
}
);
unicode = 0138;
},
{
glyphname = l;
lastChange = "2020-04-28 06:39:43 +0000";
layers = (
{
anchors = (
{
name = bottom;
position = "{142, 0}";
},
{
name = center;
position = "{106, 364}";
},
{
name = top;
position = "{106, 732}";
},
{
name = topright;
position = "{120, 732}";
}
);
background = {
components = (
{
name = l.ss01;
}
);
};
layerId = "AB099EFE-E788-4EFC-8633-CF147CB782A6";
paths = (
{
closed = 1;
nodes = (
"180 -4 OFFCURVE",
"194 -2 OFFCURVE",
"218 6 CURVE",
"212 34 LINE",
"204 31 OFFCURVE",
"192 24 OFFCURVE",
"170 24 CURVE SMOOTH",
"120 24 OFFCURVE",
"120 76 OFFCURVE",
"120 118 CURVE SMOOTH",
"120 732 LINE",
"90 732 LINE",
"90 114 LINE SMOOTH",
"90 64 OFFCURVE",
"90 -4 OFFCURVE",
"166 -4 CURVE SMOOTH"
);
}
);
width = 238;
},
{
anchors = (
{
name = bottom;
position = "{182, 0}";
},
{
name = center;
position = "{150, 384}";
},
{
name = top;
position = "{150, 734}";
},
{
name = topright;
position = "{236, 732}";
}
);
background = {
components = (
{
name = l.ss01;
}
);
};
guideLines = (
{
angle = 100;
position = "{316, -12}";
}
);
layerId = "2D8F7115-C311-411E-929D-56333CF7FFB2";
paths = (
{
closed = 1;
nodes = (
"242 -12 OFFCURVE",
"286 -4 OFFCURVE",
"312 8 CURVE",
"290 138 LINE",
"281 134 OFFCURVE",
"274 132 OFFCURVE",
"266 132 CURVE SMOOTH",
"236 132 OFFCURVE",
"236 150 OFFCURVE",
"236 170 CURVE SMOOTH",
"236 732 LINE",
"66 732 LINE",
"66 120 LINE SMOOTH",
"66 40 OFFCURVE",
"118 -12 OFFCURVE",
"214 -12 CURVE SMOOTH"
);
}
);
width = 328;
},
{
anchors = (
{
name = bottom;
position = "{180, 0}";
},
{
name = center;
position = "{132, 374}";
},
{
name = top;
position = "{130, 732}";
},
{
name = topright;
position = "{280, 732}";
}
);
associatedMasterId = "AB099EFE-E788-4EFC-8633-CF147CB782A6";
background = {
components = (
{
name = l.ss01;
}
);
};
layerId = "07F136B1-63E0-44F7-A7A8-9BD3A03A128C";
name = "Half {450}";
paths = (
{
closed = 1;
nodes = (
"212 -8 OFFCURVE",
"246 -4 OFFCURVE",
"268 4 CURVE",
"252 90 LINE",
"240 86 OFFCURVE",
"230 84 OFFCURVE",
"220 84 CURVE SMOOTH",
"180 84 OFFCURVE",
"180 118 OFFCURVE",
"180 146 CURVE SMOOTH",
"180 732 LINE",
"80 732 LINE",
"80 134 LINE SMOOTH",
"80 48 OFFCURVE",
"118 -8 OFFCURVE",
"192 -8 CURVE SMOOTH"
);
}
);
width = 284;
}
);
leftKerningGroup = LAT_L_LC;
rightKerningGroup = LAT_L_LC;
unicode = 006C;
},
{
glyphname = m;
lastChange = "2020-04-28 07:24:59 +0000";
layers = (
{
anchors = (
{
name = bottom;
position = "{392, 0}";
},
{
name = leghookleft;
position = "{692, 0}";
},
{
name = top;
position = "{392, 500}";
}
);
background = {
paths = (
{
closed = 1;
nodes = (
"406 0 LINE",
"406 296 LINE SMOOTH",
"405 418 OFFCURVE",
"369 508 OFFCURVE",
"262 508 CURVE SMOOTH",
"193 508 OFFCURVE",
"129 457 OFFCURVE",
"98 386 CURVE",
"104 346 LINE",
"136 424 OFFCURVE",
"196 480 OFFCURVE",
"258 480 CURVE SMOOTH",
"374 480 OFFCURVE",
"376 344 OFFCURVE",
"376 252 CURVE SMOOTH",
"376 0 LINE"
);
}
);
};
guideLines = (
{
angle = 60;
position = "{108, 358}";
}
);
layerId = "AB099EFE-E788-4EFC-8633-CF147CB782A6";
paths = (
{
closed = 1;
nodes = (
"106 0 LINE",
"106 376 LINE",
"110 406 LINE",
"106 406 LINE",
"106 500 LINE",
"76 500 LINE",
"76 0 LINE"
);
},
{
closed = 1;
nodes = (
"406 0 LINE",
"406 326 LINE SMOOTH",
"406 452 OFFCURVE",
"344 508 OFFCURVE",
"264 508 CURVE SMOOTH",
"184 508 OFFCURVE",
"128 454 OFFCURVE",
"100 392 CURVE",
"100 344 LINE",
"130 408 OFFCURVE",
"180 480 OFFCURVE",
"264 480 CURVE SMOOTH",
"326 480 OFFCURVE",
"376 442 OFFCURVE",
"376 318 CURVE SMOOTH",
"376 0 LINE"
);
},
{
closed = 1;
nodes = (
"706 0 LINE",
"706 326 LINE SMOOTH",
"706 452 OFFCURVE",
"644 508 OFFCURVE",
"564 508 CURVE SMOOTH",
"484 508 OFFCURVE",
"424 450 OFFCURVE",
"394 388 CURVE",
"400 344 LINE",
"430 408 OFFCURVE",
"480 480 OFFCURVE",
"564 480 CURVE SMOOTH",
"626 480 OFFCURVE",
"676 442 OFFCURVE",
"676 318 CURVE SMOOTH",
"676 0 LINE"
);
}
);
width = 778;
},
{
anchors = (
{
name = bottom;
position = "{442, 0}";
},
{
name = leghookleft;
position = "{728, 0}";
},
{
name = top;
position = "{440, 512}";
}
);
layerId = "2D8F7115-C311-411E-929D-56333CF7FFB2";
paths = (
{
closed = 1;
nodes = (
"230 0 LINE",
"230 372 LINE",
"242 444 LINE",
"214 444 LINE",
"214 512 LINE",
"60 512 LINE",
"60 0 LINE"
);
},
{
closed = 1;
nodes = (
"522 0 LINE",
"522 322 LINE SMOOTH",
"522 396 OFFCURVE",
"500 524 OFFCURVE",
"366 524 CURVE SMOOTH",
"286 524 OFFCURVE",
"220 480 OFFCURVE",
"176 388 CURVE",
"198 300 LINE",
"216 332 OFFCURVE",
"258 384 OFFCURVE",
"304 384 CURVE SMOOTH",
"352 384 OFFCURVE",
"352 324 OFFCURVE",
"352 282 CURVE SMOOTH",
"352 0 LINE"
);
},
{
closed = 1;
nodes = (
"814 0 LINE",
"814 322 LINE SMOOTH",
"814 396 OFFCURVE",
"794 524 OFFCURVE",
"652 524 CURVE SMOOTH",
"570 524 OFFCURVE",
"502 480 OFFCURVE",
"468 388 CURVE",
"490 300 LINE",
"508 332 OFFCURVE",
"550 384 OFFCURVE",
"596 384 CURVE SMOOTH",
"644 384 OFFCURVE",
"644 324 OFFCURVE",
"644 282 CURVE SMOOTH",
"644 0 LINE"
);
}
);
width = 874;
},
{
anchors = (
{
name = bottom;
position = "{418, 0}";
},
{
name = leghookleft;
position = "{714, 0}";
},
{
name = top;
position = "{420, 506}";
}
);
associatedMasterId = "AB099EFE-E788-4EFC-8633-CF147CB782A6";
guideLines = (
{
angle = 60;
position = "{170, 446}";
},
{
angle = 60;
position = "{172, 350}";
}
);
layerId = "7C464084-DF0B-4897-9988-7D453C095C5A";
name = "Half {450}";
paths = (
{
closed = 1;
nodes = (
"172 0 LINE",
"172 394 LINE",
"182 442 LINE",
"164 442 LINE",
"164 506 LINE",
"72 506 LINE",
"72 0 LINE"
);
},
{
closed = 1;
nodes = (
"468 0 LINE",
"468 366 LINE SMOOTH",
"468 452 OFFCURVE",
"400 516 OFFCURVE",
"310 516 CURVE SMOOTH",
"242 516 OFFCURVE",
"178 470 OFFCURVE",
"146 414 CURVE",
"148 298 LINE",
"172 356 OFFCURVE",
"218 426 OFFCURVE",
"294 426 CURVE SMOOTH",
"366 426 OFFCURVE",
"368 366 OFFCURVE",
"368 296 CURVE SMOOTH",
"368 0 LINE"
);
},
{
closed = 1;
nodes = (
"764 0 LINE",
"764 366 LINE SMOOTH",
"764 452 OFFCURVE",
"698 516 OFFCURVE",
"610 516 CURVE SMOOTH",
"542 516 OFFCURVE",
"476 476 OFFCURVE",
"442 432 CURVE",
"444 298 LINE",
"468 356 OFFCURVE",
"514 426 OFFCURVE",
"590 426 CURVE SMOOTH",
"662 426 OFFCURVE",
"664 366 OFFCURVE",
"664 296 CURVE SMOOTH",
"664 0 LINE"
);
}
);
width = 828;
}
);
leftKerningGroup = LAT_N_LC;
leftMetricsKey = n;
rightKerningGroup = LAT_N_LC;
rightMetricsKey = n;
unicode = 006D;
},
{
glyphname = n;
lastChange = "2020-04-28 07:24:53 +0000";
layers = (
{
anchors = (
{
name = bottom;
position = "{272, 0}";
},
{
name = leghookleft;
position = "{92, 0}";
},
{
name = leghookretroflex;
position = "{434, 0}";
},
{
name = top;
position = "{274, 500}";
}
);
layerId = "AB099EFE-E788-4EFC-8633-CF147CB782A6";
paths = (
{
closed = 1;
nodes = (
"106 0 LINE",
"106 376 LINE",
"110 400 LINE",
"106 400 LINE",
"106 500 LINE",
"76 500 LINE",
"76 0 LINE"
);
},
{
closed = 1;
nodes = (
"448 0 LINE",
"448 296 LINE SMOOTH",
"448 418 OFFCURVE",
"406 508 OFFCURVE",
"284 508 CURVE SMOOTH",
"206 508 OFFCURVE",
"133 457 OFFCURVE",
"98 386 CURVE",
"104 346 LINE",
"141 424 OFFCURVE",
"211 480 OFFCURVE",
"282 480 CURVE SMOOTH",
"416 480 OFFCURVE",
"418 344 OFFCURVE",
"418 252 CURVE SMOOTH",
"418 0 LINE"
);
}
);
width = 520;
},
{
anchors = (
{
name = bottom;
position = "{300, 0}";
},
{
name = leghookleft;
position = "{144, 0}";
},
{
name = leghookretroflex;
position = "{460, 0}";
},
{
name = top;
position = "{318, 512}";
}
);
layerId = "2D8F7115-C311-411E-929D-56333CF7FFB2";
paths = (
{
closed = 1;
nodes = (
"230 0 LINE",
"230 372 LINE",
"242 444 LINE",
"224 444 LINE",
"224 512 LINE",
"60 512 LINE",
"60 0 LINE"
);
},
{
closed = 1;
nodes = (
"544 0 LINE",
"544 330 LINE SMOOTH",
"544 458 OFFCURVE",
"488 524 OFFCURVE",
"376 524 CURVE SMOOTH",
"302 524 OFFCURVE",
"210 468 OFFCURVE",
"196 388 CURVE",
"220 300 LINE",
"228 332 OFFCURVE",
"274 384 OFFCURVE",
"324 384 CURVE SMOOTH",
"374 384 OFFCURVE",
"374 328 OFFCURVE",
"374 282 CURVE SMOOTH",
"374 0 LINE"
);
}
);
width = 604;
},
{
anchors = (
{
name = bottom;
position = "{288, 0}";
},
{
name = leghookleft;
position = "{122, 0}";
},
{
name = leghookretroflex;
position = "{450, 0}";
},
{
name = top;
position = "{303, 506}";
}
);
associatedMasterId = "AB099EFE-E788-4EFC-8633-CF147CB782A6";
layerId = "B3BA6D2D-8889-4E23-852D-A1E06A84ADF3";
name = "Half {450}";
paths = (
{
closed = 1;
nodes = (
"172 0 LINE",
"172 394 LINE",
"192 438 LINE",
"172 438 LINE",
"172 506 LINE",
"72 506 LINE",
"72 0 LINE"
);
},
{
closed = 1;
nodes = (
"500 0 LINE",
"500 324 LINE SMOOTH",
"500 404 OFFCURVE",
"468 516 OFFCURVE",
"334 516 CURVE SMOOTH",
"261 516 OFFCURVE",
"189 475 OFFCURVE",
"152 408 CURVE",
"154 298 LINE",
"190 378 OFFCURVE",
"250 426 OFFCURVE",
"310 426 CURVE SMOOTH",
"400 426 OFFCURVE",
"400 340 OFFCURVE",
"400 296 CURVE SMOOTH",
"400 0 LINE"
);
}
);
width = 564;
}
);
leftKerningGroup = LAT_N_LC;
rightKerningGroup = LAT_N_LC;
unicode = 006E;
},
{
glyphname = o;
lastChange = "2020-04-29 10:46:38 +0000";
layers = (
{
anchors = (
{
name = bottom;
position = "{292, 0}";
},
{
name = center;
position = "{292, 250}";
},
{
name = horn;
position = "{402, 480}";
},
{
name = ogonek;
position = "{340, 12}";
},
{
name = top;
position = "{292, 500}";
},
{
name = topright;
position = "{570, 500}";
}
);
layerId = "AB099EFE-E788-4EFC-8633-CF147CB782A6";
paths = (
{
closed = 1;
nodes = (
"432 -8 OFFCURVE",
"532 102 OFFCURVE",
"532 250 CURVE SMOOTH",
"532 400 OFFCURVE",
"432 508 OFFCURVE",
"290 508 CURVE SMOOTH",
"148 508 OFFCURVE",
"48 400 OFFCURVE",
"48 250 CURVE SMOOTH",
"48 102 OFFCURVE",
"148 -8 OFFCURVE",
"290 -8 CURVE SMOOTH"
);
},
{
closed = 1;
nodes = (
"168 20 OFFCURVE",
"78 114 OFFCURVE",
"78 250 CURVE SMOOTH",
"78 386 OFFCURVE",
"168 480 OFFCURVE",
"290 480 CURVE SMOOTH",
"414 480 OFFCURVE",
"502 386 OFFCURVE",
"502 250 CURVE SMOOTH",
"502 114 OFFCURVE",
"414 20 OFFCURVE",
"290 20 CURVE SMOOTH"
);
}
);
width = 580;
},
{
anchors = (
{
name = bottom;
position = "{306, 0}";
},
{
name = center;
position = "{306, 256}";
},
{
name = horn;
position = "{452, 482}";
},
{
name = ogonek;
position = "{364, 14}";
},
{
name = top;
position = "{308, 512}";
},
{
name = topright;
position = "{588, 512}";
}
);
layerId = "2D8F7115-C311-411E-929D-56333CF7FFB2";
paths = (
{
closed = 1;
nodes = (
"462 -12 OFFCURVE",
"584 108 OFFCURVE",
"584 256 CURVE SMOOTH",
"584 404 OFFCURVE",
"462 524 OFFCURVE",
"306 524 CURVE SMOOTH",
"150 524 OFFCURVE",
"28 404 OFFCURVE",
"28 256 CURVE SMOOTH",
"28 108 OFFCURVE",
"150 -12 OFFCURVE",
"306 -12 CURVE SMOOTH"
);
},
{
closed = 1;
nodes = (
"239 132 OFFCURVE",
"188 188 OFFCURVE",
"188 256 CURVE SMOOTH",
"188 324 OFFCURVE",
"239 380 OFFCURVE",
"306 380 CURVE SMOOTH",
"373 380 OFFCURVE",
"424 324 OFFCURVE",
"424 256 CURVE SMOOTH",
"424 188 OFFCURVE",
"373 132 OFFCURVE",
"306 132 CURVE SMOOTH"
);
}
);
width = 612;
},
{
anchors = (
{
name = bottom;
position = "{290, 0}";
},
{
name = center;
position = "{290, 252}";
},
{
name = horn;
position = "{418, 500}";
},
{
name = ogonek;
position = "{344, 14}";
},
{
name = top;
position = "{290, 506}";
},
{
name = topright;
position = "{564, 506}";
}
);
associatedMasterId = "AB099EFE-E788-4EFC-8633-CF147CB782A6";
layerId = "51EC8CF4-9C29-420F-ACA7-DB790A9AB824";
name = "Half {450}";
paths = (
{
closed = 1;
nodes = (
"434 -10 OFFCURVE",
"544 104 OFFCURVE",
"544 254 CURVE SMOOTH",
"544 404 OFFCURVE",
"434 516 OFFCURVE",
"290 516 CURVE SMOOTH",
"146 516 OFFCURVE",
"36 404 OFFCURVE",
"36 254 CURVE SMOOTH",
"36 104 OFFCURVE",
"146 -10 OFFCURVE",
"290 -10 CURVE SMOOTH"
);
},
{
closed = 1;
nodes = (
"202 82 OFFCURVE",
"140 154 OFFCURVE",
"140 254 CURVE SMOOTH",
"140 354 OFFCURVE",
"204 424 OFFCURVE",
"288 424 CURVE SMOOTH",
"376 424 OFFCURVE",
"440 354 OFFCURVE",
"440 254 CURVE SMOOTH",
"440 154 OFFCURVE",
"376 82 OFFCURVE",
"288 82 CURVE SMOOTH"
);
}
);
width = 580;
}
);
leftKerningGroup = LAT_O_LC;
rightKerningGroup = LAT_O_LC;
unicode = 006F;
},
{
glyphname = oe;
lastChange = "2020-05-05 05:48:46 +0000";
layers = (
{
anchors = (
{
name = top;
position = "{504, 536}";
}
);
layerId = "AB099EFE-E788-4EFC-8633-CF147CB782A6";
paths = (
{
closed = 1;
nodes = (
"400 -8 OFFCURVE",
"494 106 OFFCURVE",
"494 250 CURVE SMOOTH",
"494 390 OFFCURVE",
"400 508 OFFCURVE",
"272 508 CURVE SMOOTH",
"152 508 OFFCURVE",
"48 392 OFFCURVE",
"48 250 CURVE SMOOTH",
"48 106 OFFCURVE",
"152 -8 OFFCURVE",
"272 -8 CURVE SMOOTH"
);
},
{
closed = 1;
nodes = (
"170 18 OFFCURVE",
"80 120 OFFCURVE",
"80 250 CURVE SMOOTH",
"80 375 OFFCURVE",
"168 481 OFFCURVE",
"272 480 CURVE SMOOTH",
"382 481 OFFCURVE",
"462 377 OFFCURVE",
"462 250 CURVE SMOOTH",
"462 121 OFFCURVE",
"382 18 OFFCURVE",
"272 18 CURVE SMOOTH"
);
},
{
closed = 1;
nodes = (
"744 -8 OFFCURVE",
"824 29 OFFCURVE",
"856 92 CURVE",
"836 112 LINE",
"796 51 OFFCURVE",
"726 19 OFFCURVE",
"682 20 CURVE SMOOTH",
"564 19 OFFCURVE",
"494 104 OFFCURVE",
"494 250 CURVE SMOOTH",
"494 402 OFFCURVE",
"584 481 OFFCURVE",
"676 480 CURVE SMOOTH",
"780 481 OFFCURVE",
"842 377 OFFCURVE",
"838 268 CURVE",
"478 268 LINE",
"478 242 LINE",
"868 242 LINE",
"868 255 OFFCURVE",
"870 263 OFFCURVE",
"870 276 CURVE SMOOTH",
"870 420 OFFCURVE",
"784 508 OFFCURVE",
"670 508 CURVE SMOOTH",
"554 508 OFFCURVE",
"462 410 OFFCURVE",
"462 246 CURVE SMOOTH",
"462 78 OFFCURVE",
"554 -8 OFFCURVE",
"684 -8 CURVE SMOOTH"
);
}
);
width = 918;
},
{
anchors = (
{
name = top;
position = "{454, 556}";
}
);
layerId = "2D8F7115-C311-411E-929D-56333CF7FFB2";
paths = (
{
closed = 1;
nodes = (
"420 -12 OFFCURVE",
"514 124 OFFCURVE",
"514 256 CURVE SMOOTH",
"514 386 OFFCURVE",
"420 524 OFFCURVE",
"272 524 CURVE SMOOTH",
"136 524 OFFCURVE",
"28 410 OFFCURVE",
"28 256 CURVE SMOOTH",
"28 94 OFFCURVE",
"144 -12 OFFCURVE",
"274 -12 CURVE SMOOTH"
);
},
{
closed = 1;
nodes = (
"220 130 OFFCURVE",
"180 184 OFFCURVE",
"180 256 CURVE SMOOTH",
"180 328 OFFCURVE",
"220 380 OFFCURVE",
"274 380 CURVE SMOOTH",
"330 380 OFFCURVE",
"372 322 OFFCURVE",
"372 256 CURVE SMOOTH",
"372 188 OFFCURVE",
"330 130 OFFCURVE",
"274 130 CURVE SMOOTH"
);
},
{
closed = 1;
nodes = (
"718 -12 OFFCURVE",
"778 26 OFFCURVE",
"822 78 CURVE",
"720 162 LINE",
"702 136 OFFCURVE",
"668 110 OFFCURVE",
"628 110 CURVE SMOOTH",
"576 110 OFFCURVE",
"518 154 OFFCURVE",
"518 260 CURVE SMOOTH",
"518 362 OFFCURVE",
"574 400 OFFCURVE",
"622 400 CURVE SMOOTH",
"670 400 OFFCURVE",
"710 360 OFFCURVE",
"710 304 CURVE",
"498 304 LINE",
"498 208 LINE",
"846 208 LINE",
"850 226 OFFCURVE",
"852 248 OFFCURVE",
"852 272 CURVE SMOOTH",
"852 444 OFFCURVE",
"736 524 OFFCURVE",
"626 524 CURVE SMOOTH",
"482 524 OFFCURVE",
"382 384 OFFCURVE",
"382 254 CURVE SMOOTH",
"382 118 OFFCURVE",
"490 -12 OFFCURVE",
"638 -12 CURVE SMOOTH"
);
}
);
width = 884;
},
{
anchors = (
{
name = top;
position = "{478, 542}";
}
);
associatedMasterId = "AB099EFE-E788-4EFC-8633-CF147CB782A6";
layerId = "AC77F9ED-8594-4DB0-8E42-55F87E192FDC";
name = "Half {450}";
paths = (
{
closed = 1;
nodes = (
"402 -10 OFFCURVE",
"500 102 OFFCURVE",
"500 252 CURVE SMOOTH",
"500 404 OFFCURVE",
"400 516 OFFCURVE",
"270 516 CURVE SMOOTH",
"142 516 OFFCURVE",
"36 406 OFFCURVE",
"36 254 CURVE SMOOTH",
"36 102 OFFCURVE",
"140 -10 OFFCURVE",
"272 -10 CURVE SMOOTH"
);
},
{
closed = 1;
nodes = (
"186 72 OFFCURVE",
"120 150 OFFCURVE",
"120 252 CURVE SMOOTH",
"120 356 OFFCURVE",
"186 434 OFFCURVE",
"272 434 CURVE SMOOTH",
"356 434 OFFCURVE",
"420 354 OFFCURVE",
"420 252 CURVE SMOOTH",
"420 152 OFFCURVE",
"356 72 OFFCURVE",
"272 72 CURVE SMOOTH"
);
},
{
closed = 1;
nodes = (
"736 -10 OFFCURVE",
"802 26 OFFCURVE",
"844 84 CURVE",
"782 136 LINE",
"752 94 OFFCURVE",
"704 72 OFFCURVE",
"654 72 CURVE SMOOTH",
"562 72 OFFCURVE",
"502 128 OFFCURVE",
"502 252 CURVE SMOOTH",
"502 384 OFFCURVE",
"570 440 OFFCURVE",
"642 440 CURVE SMOOTH",
"728 440 OFFCURVE",
"778 366 OFFCURVE",
"774 296 CURVE",
"480 296 LINE",
"480 216 LINE",
"858 216 LINE",
"862 240 OFFCURVE",
"862 244 OFFCURVE",
"862 252 CURVE SMOOTH",
"862 418 OFFCURVE",
"778 516 OFFCURVE",
"648 516 CURVE SMOOTH",
"514 516 OFFCURVE",
"422 410 OFFCURVE",
"422 252 CURVE SMOOTH",
"422 92 OFFCURVE",
"516 -10 OFFCURVE",
"654 -10 CURVE SMOOTH"
);
}
);
width = 902;
}
);
leftKerningGroup = LAT_O_LC;
leftMetricsKey = o;
rightKerningGroup = LAT_E_LC;
rightMetricsKey = e;
unicode = 0153;
},
{
glyphname = p;
lastChange = "2020-04-29 10:43:53 +0000";
layers = (
{
anchors = (
{
name = bottom;
position = "{96, -200}";
},
{
name = top;
position = "{290, 500}";
}
);
components = (
{
name = _part.bowl;
transform = "{1, 0, 0, 1, -4, 0}";
}
);
layerId = "AB099EFE-E788-4EFC-8633-CF147CB782A6";
paths = (
{
closed = 1;
nodes = (
"110 376 LINE",
"116 396 LINE",
"110 396 LINE",
"110 500 LINE",
"80 500 LINE",
"80 -200 LINE",
"110 -200 LINE"
);
}
);
width = 568;
},
{
anchors = (
{
name = bottom;
position = "{144, -200}";
},
{
name = top;
position = "{320, 512}";
}
);
components = (
{
name = _part.bowl;
transform = "{1, 0, 0, 1, -2, 0}";
}
);
layerId = "2D8F7115-C311-411E-929D-56333CF7FFB2";
paths = (
{
closed = 1;
nodes = (
"230 412 LINE",
"242 468 LINE",
"220 468 LINE",
"220 512 LINE",
"60 512 LINE",
"60 -200 LINE",
"230 -200 LINE"
);
}
);
width = 628;
},
{
anchors = (
{
name = bottom;
position = "{122, -200}";
},
{
name = top;
position = "{312, 506}";
}
);
associatedMasterId = "AB099EFE-E788-4EFC-8633-CF147CB782A6";
components = (
{
alignment = -1;
name = _part.bowl;
}
);
layerId = "AF74158E-455A-4DFD-A125-19750D17B1F5";
name = "Half {450}";
paths = (
{
closed = 1;
nodes = (
"170 414 LINE",
"178 456 LINE",
"168 456 LINE",
"168 506 LINE",
"70 506 LINE",
"70 -200 LINE",
"170 -200 LINE"
);
}
);
width = 600;
}
);
leftKerningGroup = LAT_P_LC;
rightKerningGroup = LAT_O_LC;
rightMetricsKey = o;
unicode = 0070;
},
{
glyphname = thorn;
lastChange = "2020-04-28 06:23:28 +0000";
layers = (
{
anchors = (
{
name = bottom;
position = "{260, -24}";
},
{
name = top;
position = "{100, 782}";
}
);
components = (
{
name = _part.bowl;
transform = "{1, 0, 0, 1, -4, 0}";
}
);
layerId = "AB099EFE-E788-4EFC-8633-CF147CB782A6";
paths = (
{
closed = 1;
nodes = (
"112 74 LINE",
"112 424 LINE",
"112 546 LINE",
"112 750 LINE",
"80 750 LINE",
"80 -214 LINE",
"112 -214 LINE",
"112 -46 LINE"
);
}
);
width = 568;
},
{
anchors = (
{
name = bottom;
position = "{298, -24}";
},
{
name = top;
position = "{148, 782}";
}
);
components = (
{
name = _part.bowl;
transform = "{1, 0, 0, 1, 4, 0}";
}
);
layerId = "2D8F7115-C311-411E-929D-56333CF7FFB2";
paths = (
{
closed = 1;
nodes = (
"228 54 LINE",
"228 478 LINE",
"232 568 LINE",
"232 750 LINE",
"60 750 LINE",
"60 -190 LINE",
"232 -190 LINE",
"232 -42 LINE"
);
}
);
width = 634;
}
);
leftKerningGroup = LAT_L_LC;
leftMetricsKey = p;
rightKerningGroup = LAT_O_LC;
rightMetricsKey = p;
unicode = 00FE;
},
{
glyphname = q;
lastChange = "2020-05-05 07:17:10 +0000";
layers = (
{
anchors = (
{
name = bottom;
position = "{474, -200}";
},
{
name = top;
position = "{270, 500}";
}
);
components = (
{
name = _part.bowl;
transform = "{-1, 0, 0, 1, 572, 0}";
}
);
layerId = "AB099EFE-E788-4EFC-8633-CF147CB782A6";
paths = (
{
closed = 1;
nodes = (
"536 -180 LINE",
"528 -176 LINE SMOOTH",
"506 -165 OFFCURVE",
"488 -138 OFFCURVE",
"488 -90 CURVE SMOOTH",
"488 500 LINE",
"458 500 LINE",
"458 396 LINE",
"456 396 LINE",
"458 372 LINE",
"458 -94 LINE SMOOTH",
"458 -152 OFFCURVE",
"480 -184 OFFCURVE",
"510 -202 CURVE SMOOTH",
"520 -208 LINE"
);
}
);
width = 568;
},
{
anchors = (
{
name = bottom;
position = "{484, -200}";
},
{
name = top;
position = "{274, 512}";
}
);
components = (
{
name = _part.bowl;
transform = "{-1, 0, 0, 1, 630, 0}";
}
);
layerId = "2D8F7115-C311-411E-929D-56333CF7FFB2";
paths = (
{
closed = 1;
nodes = (
"620 -74 LINE",
"606 -68 LINE SMOOTH",
"582 -58 OFFCURVE",
"568 -48 OFFCURVE",
"568 6 CURVE SMOOTH",
"568 512 LINE",
"408 512 LINE",
"408 468 LINE",
"394 468 LINE",
"398 406 LINE",
"398 -30 LINE SMOOTH",
"398 -104 OFFCURVE",
"434 -172 OFFCURVE",
"524 -206 CURVE SMOOTH",
"540 -212 LINE"
);
}
);
width = 628;
},
{
anchors = (
{
name = bottom;
position = "{488, -200}";
},
{
name = top;
position = "{276, 506}";
}
);
associatedMasterId = "AB099EFE-E788-4EFC-8633-CF147CB782A6";
components = (
{
alignment = -1;
name = _part.bowl;
transform = "{-1, 0, 0, 1, 600, 0}";
}
);
layerId = "71FC3BAB-2654-4618-A306-03265AF02326";
name = "Half {450}";
paths = (
{
closed = 1;
nodes = (
"578 -126 LINE",
"566 -120 LINE SMOOTH",
"538 -106 OFFCURVE",
"530 -84 OFFCURVE",
"530 -42 CURVE SMOOTH",
"530 506 LINE",
"432 506 LINE",
"432 458 LINE",
"426 458 LINE",
"430 410 LINE",
"430 -64 LINE SMOOTH",
"430 -134 OFFCURVE",
"466 -189 OFFCURVE",
"518 -206 CURVE SMOOTH",
"530 -210 LINE"
);
}
);
width = 604;
}
);
leftKerningGroup = LAT_O_LC;
leftMetricsKey = o;
rightKerningGroup = LAT_Q_LC;
unicode = 0071;
},
{
glyphname = r;
lastChange = "2020-04-28 07:24:59 +0000";
layers = (
{
anchors = (
{
name = bottom;
position = "{92, 0}";
},
{
name = top;
position = "{178, 500}";
}
);
layerId = "AB099EFE-E788-4EFC-8633-CF147CB782A6";
paths = (
{
closed = 1;
nodes = (
"106 0 LINE",
"106 376 LINE",
"110 400 LINE",
"106 400 LINE",
"106 500 LINE",
"76 500 LINE",
"76 0 LINE"
);
},
{
closed = 1;
nodes = (
"141 424 OFFCURVE",
"211 480 OFFCURVE",
"282 480 CURVE SMOOTH",
"290 480 OFFCURVE",
"301 478 OFFCURVE",
"308 476 CURVE",
"312 504 LINE",
"303 507 OFFCURVE",
"294 508 OFFCURVE",
"284 508 CURVE SMOOTH",
"206 508 OFFCURVE",
"133 457 OFFCURVE",
"98 386 CURVE",
"104 346 LINE"
);
}
);
width = 324;
},
{
anchors = (
{
name = bottom;
position = "{146, 0}";
},
{
name = top;
position = "{224, 512}";
}
);
layerId = "2D8F7115-C311-411E-929D-56333CF7FFB2";
paths = (
{
closed = 1;
nodes = (
"230 0 LINE",
"230 366 LINE",
"234 444 LINE",
"224 444 LINE",
"224 512 LINE",
"60 512 LINE",
"60 0 LINE"
);
},
{
closed = 1;
nodes = (
"240 330 OFFCURVE",
"272 358 OFFCURVE",
"338 358 CURVE SMOOTH",
"354 358 OFFCURVE",
"388 354 OFFCURVE",
"408 350 CURVE",
"426 522 LINE",
"414 524 OFFCURVE",
"402 526 OFFCURVE",
"390 526 CURVE SMOOTH",
"290 526 OFFCURVE",
"224 450 OFFCURVE",
"202 406 CURVE",
"222 298 LINE"
);
}
);
width = 438;
},
{
anchors = (
{
name = bottom;
position = "{124, 0}";
},
{
name = top;
position = "{206, 506}";
}
);
associatedMasterId = "AB099EFE-E788-4EFC-8633-CF147CB782A6";
layerId = "AE84A8BD-4857-43AC-97B6-848273A736C5";
name = "Half {450}";
paths = (
{
closed = 1;
nodes = (
"172 0 LINE",
"172 372 LINE",
"176 444 LINE",
"172 444 LINE",
"172 506 LINE",
"72 506 LINE",
"72 0 LINE"
);
},
{
closed = 1;
nodes = (
"194 376 OFFCURVE",
"246 418 OFFCURVE",
"308 418 CURVE SMOOTH",
"332 418 OFFCURVE",
"354 415 OFFCURVE",
"362 412 CURVE",
"374 512 LINE",
"366 514 OFFCURVE",
"348 516 OFFCURVE",
"322 516 CURVE SMOOTH",
"248 516 OFFCURVE",
"192 472 OFFCURVE",
"162 430 CURVE",
"166 320 LINE"
);
}
);
width = 386;
}
);
leftKerningGroup = LAT_N_LC;
leftMetricsKey = n;
rightKerningGroup = LAT_R_LC;
unicode = 0072;
},
{
glyphname = s;
lastChange = "2020-04-28 07:07:56 +0000";
layers = (
{
anchors = (
{
name = bottom;
position = "{210, 0}";
},
{
name = cedilla;
position = "{216, 0}";
},
{
name = top;
position = "{208, 500}";
}
);
layerId = "AB099EFE-E788-4EFC-8633-CF147CB782A6";
paths = (
{
closed = 1;
nodes = (
"296 -8 OFFCURVE",
"368 46 OFFCURVE",
"368 134 CURVE SMOOTH",
"368 228 OFFCURVE",
"286 254 OFFCURVE",
"206 276 CURVE SMOOTH",
"156 290 OFFCURVE",
"92 302 OFFCURVE",
"92 378 CURVE SMOOTH",
"92 438 OFFCURVE",
"132 480 OFFCURVE",
"202 480 CURVE SMOOTH",
"262 480 OFFCURVE",
"304 448 OFFCURVE",
"324 416 CURVE",
"348 434 LINE",
"328 468 OFFCURVE",
"276 508 OFFCURVE",
"202 508 CURVE SMOOTH",
"122 508 OFFCURVE",
"62 458 OFFCURVE",
"62 378 CURVE SMOOTH",
"62 288 OFFCURVE",
"132 268 OFFCURVE",
"212 246 CURVE SMOOTH",
"260 232 OFFCURVE",
"338 212 OFFCURVE",
"338 134 CURVE SMOOTH",
"338 66 OFFCURVE",
"280 20 OFFCURVE",
"212 20 CURVE SMOOTH",
"152 20 OFFCURVE",
"100 54 OFFCURVE",
"78 102 CURVE",
"52 86 LINE",
"76 38 OFFCURVE",
"134 -8 OFFCURVE",
"212 -8 CURVE SMOOTH"
);
}
);
width = 420;
},
{
anchors = (
{
name = bottom;
position = "{238, 0}";
},
{
name = cedilla;
position = "{254, 0}";
},
{
name = top;
position = "{238, 512}";
}
);
layerId = "2D8F7115-C311-411E-929D-56333CF7FFB2";
paths = (
{
closed = 1;
nodes = (
"355 -12 OFFCURVE",
"448 58 OFFCURVE",
"448 158 CURVE SMOOTH",
"448 265 OFFCURVE",
"341 297 OFFCURVE",
"296 306 CURVE SMOOTH",
"260 315 OFFCURVE",
"193 328 OFFCURVE",
"194 364 CURVE SMOOTH",
"193 382 OFFCURVE",
"212 396 OFFCURVE",
"240 396 CURVE SMOOTH",
"279 396 OFFCURVE",
"307 370 OFFCURVE",
"320 346 CURVE",
"440 414 LINE",
"408 481 OFFCURVE",
"328 524 OFFCURVE",
"234 524 CURVE SMOOTH",
"128 524 OFFCURVE",
"44 463 OFFCURVE",
"44 362 CURVE SMOOTH",
"44 279 OFFCURVE",
"110 232 OFFCURVE",
"192 212 CURVE SMOOTH",
"238 198 OFFCURVE",
"295 185 OFFCURVE",
"296 156 CURVE SMOOTH",
"295 137 OFFCURVE",
"276 123 OFFCURVE",
"244 124 CURVE SMOOTH",
"197 123 OFFCURVE",
"164 160 OFFCURVE",
"148 194 CURVE",
"28 116 LINE",
"54 43 OFFCURVE",
"142 -12 OFFCURVE",
"244 -12 CURVE SMOOTH"
);
}
);
width = 476;
},
{
anchors = (
{
name = bottom;
position = "{222, 0}";
},
{
name = cedilla;
position = "{234, 0}";
},
{
name = top;
position = "{222, 506}";
}
);
associatedMasterId = "AB099EFE-E788-4EFC-8633-CF147CB782A6";
layerId = "71E4C0AB-FD56-4113-8C0E-7CB3582C377C";
name = "Half {450}";
paths = (
{
closed = 1;
nodes = (
"320 -10 OFFCURVE",
"404 48 OFFCURVE",
"404 146 CURVE SMOOTH",
"404 236 OFFCURVE",
"332 274 OFFCURVE",
"246 294 CURVE SMOOTH",
"206 304 OFFCURVE",
"146 312 OFFCURVE",
"146 366 CURVE SMOOTH",
"146 404 OFFCURVE",
"178 428 OFFCURVE",
"222 428 CURVE SMOOTH",
"266 428 OFFCURVE",
"296 404 OFFCURVE",
"314 368 CURVE",
"390 426 LINE",
"360 472 OFFCURVE",
"302 516 OFFCURVE",
"222 516 CURVE SMOOTH",
"132 516 OFFCURVE",
"52 460 OFFCURVE",
"52 366 CURVE SMOOTH",
"52 272 OFFCURVE",
"136 238 OFFCURVE",
"200 222 CURVE SMOOTH",
"234 214 OFFCURVE",
"308 200 OFFCURVE",
"308 140 CURVE SMOOTH",
"308 102 OFFCURVE",
"278 78 OFFCURVE",
"230 78 CURVE SMOOTH",
"176 78 OFFCURVE",
"140 106 OFFCURVE",
"114 152 CURVE",
"40 96 LINE",
"68 38 OFFCURVE",
"136 -10 OFFCURVE",
"224 -10 CURVE SMOOTH"
);
}
);
width = 440;
},
{
anchors = (
{
name = bottom;
position = "{232, 0}";
},
{
name = cedilla;
position = "{242, 0}";
},
{
name = top;
position = "{232, 510}";
}
);
associatedMasterId = "AB099EFE-E788-4EFC-8633-CF147CB782A6";
layerId = "E7831FF5-668F-4C95-A689-CAE55089C41D";
name = "{700}";
paths = (
{
closed = 1;
nodes = (
"344 -12 OFFCURVE",
"434 56 OFFCURVE",
"434 154 CURVE SMOOTH",
"434 260 OFFCURVE",
"330 291 OFFCURVE",
"280 302 CURVE SMOOTH",
"242 311 OFFCURVE",
"176 324 OFFCURVE",
"176 366 CURVE SMOOTH",
"176 390 OFFCURVE",
"198 408 OFFCURVE",
"232 408 CURVE SMOOTH",
"274 408 OFFCURVE",
"304 381 OFFCURVE",
"318 356 CURVE",
"424 416 LINE",
"394 479 OFFCURVE",
"318 522 OFFCURVE",
"226 522 CURVE SMOOTH",
"124 522 OFFCURVE",
"44 462 OFFCURVE",
"44 364 CURVE SMOOTH",
"44 280 OFFCURVE",
"110 237 OFFCURVE",
"192 216 CURVE SMOOTH",
"238 203 OFFCURVE",
"298 189 OFFCURVE",
"298 152 CURVE SMOOTH",
"298 127 OFFCURVE",
"274 108 OFFCURVE",
"236 108 CURVE SMOOTH",
"188 108 OFFCURVE",
"152 145 OFFCURVE",
"134 180 CURVE",
"28 112 LINE",
"54 42 OFFCURVE",
"138 -12 OFFCURVE",
"236 -12 CURVE SMOOTH"
);
}
);
width = 462;
}
);
leftKerningGroup = LAT_S_LC;
rightKerningGroup = LAT_S_LC;
unicode = 0073;
userData = {
com.typemytype.robofont.layerData = {
background = {
anchors = (
);
components = (
);
contours = (
{
points = (
{
segmentType = curve;
smooth = 1;
x = 213;
y = -12;
},
{
smooth = 0;
x = 318;
y = -12;
},
{
smooth = 0;
x = 376;
y = 50;
},
{
segmentType = curve;
smooth = 1;
x = 376;
y = 120;
},
{
smooth = 0;
x = 376;
y = 214;
},
{
smooth = 0;
x = 288;
y = 237;
},
{
segmentType = curve;
smooth = 1;
x = 208;
y = 266;
},
{
smooth = 0;
x = 147;
y = 288;
},
{
smooth = 0;
x = 85;
y = 310;
},
{
segmentType = curve;
smooth = 1;
x = 85;
y = 368;
},
{
smooth = 0;
x = 85;
y = 415;
},
{
smooth = 0;
x = 124;
y = 462;
},
{
segmentType = curve;
smooth = 1;
x = 208;
y = 462;
},
{
smooth = 0;
x = 253;
y = 462;
},
{
smooth = 0;
x = 284;
y = 448;
},
{
segmentType = curve;
smooth = 1;
x = 314;
y = 429;
},
{
smooth = 0;
x = 325;
y = 422;
},
{
smooth = 0;
x = 336;
y = 423;
},
{
segmentType = curve;
smooth = 1;
x = 343;
y = 434;
},
{
segmentType = line;
smooth = 1;
x = 346;
y = 439;
},
{
smooth = 0;
x = 347;
y = 441;
},
{
smooth = 0;
x = 347;
y = 443;
},
{
segmentType = curve;
smooth = 1;
x = 345;
y = 444;
},
{
smooth = 0;
x = 311;
y = 468;
},
{
smooth = 0;
x = 257;
y = 490;
},
{
segmentType = curve;
smooth = 1;
x = 211;
y = 490;
},
{
smooth = 0;
x = 108;
y = 490;
},
{
smooth = 0;
x = 54;
y = 432;
},
{
segmentType = curve;
smooth = 1;
x = 54;
y = 366;
},
{
smooth = 0;
x = 54;
y = 284;
},
{
smooth = 0;
x = 141;
y = 256;
},
{
segmentType = curve;
smooth = 1;
x = 218;
y = 230;
},
{
smooth = 0;
x = 277;
y = 210;
},
{
smooth = 0;
x = 344;
y = 182;
},
{
segmentType = curve;
smooth = 1;
x = 344;
y = 118;
},
{
smooth = 0;
x = 344;
y = 64;
},
{
smooth = 0;
x = 300;
y = 16;
},
{
segmentType = curve;
smooth = 1;
x = 215;
y = 16;
},
{
smooth = 0;
x = 148;
y = 16;
},
{
smooth = 0;
x = 105;
y = 37;
},
{
segmentType = curve;
smooth = 1;
x = 66;
y = 65;
},
{
smooth = 0;
x = 55;
y = 73;
},
{
smooth = 0;
x = 45;
y = 74;
},
{
segmentType = curve;
smooth = 1;
x = 37;
y = 63;
},
{
segmentType = line;
smooth = 1;
x = 33;
y = 57;
},
{
smooth = 0;
x = 32;
y = 55;
},
{
smooth = 0;
x = 32;
y = 53;
},
{
segmentType = curve;
smooth = 1;
x = 34;
y = 51;
},
{
smooth = 0;
x = 73;
y = 12;
},
{
smooth = 0;
x = 139;
y = -12;
}
);
}
);
lib = {
};
name = s;
unicodes = (
);
width = 439;
};
};
};
},
{
glyphname = germandbls;
lastChange = "2020-04-28 07:24:59 +0000";
layers = (
{
layerId = "AB099EFE-E788-4EFC-8633-CF147CB782A6";
paths = (
{
closed = 1;
nodes = (
"384 -8 OFFCURVE",
"480 80 OFFCURVE",
"480 194 CURVE SMOOTH",
"480 304 OFFCURVE",
"384 406 OFFCURVE",
"254 400 CURVE",
"254 384 LINE",
"354 378 OFFCURVE",
"432 458 OFFCURVE",
"432 566 CURVE SMOOTH",
"432 674 OFFCURVE",
"354 740 OFFCURVE",
"252 740 CURVE SMOOTH",
"146 740 OFFCURVE",
"76 670 OFFCURVE",
"76 558 CURVE SMOOTH",
"76 0 LINE",
"106 0 LINE",
"106 564 LINE SMOOTH",
"106 654 OFFCURVE",
"164 712 OFFCURVE",
"250 712 CURVE SMOOTH",
"334 712 OFFCURVE",
"402 654 OFFCURVE",
"402 560 CURVE SMOOTH",
"402 466 OFFCURVE",
"326 408 OFFCURVE",
"248 408 CURVE SMOOTH",
"214 408 LINE",
"214 380 LINE",
"228 380 LINE SMOOTH",
"358 380 OFFCURVE",
"450 294 OFFCURVE",
"450 192 CURVE SMOOTH",
"450 96 OFFCURVE",
"368 20 OFFCURVE",
"270 20 CURVE SMOOTH",
"254 20 OFFCURVE",
"212 22 OFFCURVE",
"186 28 CURVE",
"186 0 LINE",
"210 -6 OFFCURVE",
"254 -8 OFFCURVE",
"270 -8 CURVE SMOOTH"
);
}
);
width = 540;
},
{
layerId = "2D8F7115-C311-411E-929D-56333CF7FFB2";
paths = (
{
closed = 1;
nodes = (
"518 -12 OFFCURVE",
"626 80 OFFCURVE",
"626 194 CURVE SMOOTH",
"626 308 OFFCURVE",
"520 380 OFFCURVE",
"368 380 CURVE",
"368 352 LINE",
"465 352 OFFCURVE",
"568 423 OFFCURVE",
"568 536 CURVE SMOOTH",
"568 656 OFFCURVE",
"465 744 OFFCURVE",
"326 744 CURVE SMOOTH",
"173 744 OFFCURVE",
"64 655 OFFCURVE",
"64 506 CURVE SMOOTH",
"64 0 LINE",
"234 0 LINE",
"234 498 LINE SMOOTH",
"234 566 OFFCURVE",
"270 604 OFFCURVE",
"324 604 CURVE SMOOTH",
"381 606 OFFCURVE",
"416 573 OFFCURVE",
"416 524 CURVE SMOOTH",
"416 475 OFFCURVE",
"377 440 OFFCURVE",
"326 440 CURVE SMOOTH",
"296 440 LINE",
"296 290 LINE",
"346 290 LINE SMOOTH",
"420 290 OFFCURVE",
"456 254 OFFCURVE",
"456 212 CURVE SMOOTH",
"456 166 OFFCURVE",
"420 132 OFFCURVE",
"370 132 CURVE SMOOTH",
"360 132 OFFCURVE",
"328 133 OFFCURVE",
"296 140 CURVE",
"296 -6 LINE",
"321 -11 OFFCURVE",
"358 -12 OFFCURVE",
"372 -12 CURVE SMOOTH"
);
}
);
width = 650;
},
{
associatedMasterId = "AB099EFE-E788-4EFC-8633-CF147CB782A6";
layerId = "8E3B2D88-952E-43C5-9FFF-A3AC38F4946B";
name = "Half {450}";
paths = (
{
closed = 1;
nodes = (
"456 -10 OFFCURVE",
"556 70 OFFCURVE",
"556 190 CURVE SMOOTH",
"556 308 OFFCURVE",
"456 388 OFFCURVE",
"316 386 CURVE",
"316 350 LINE",
"422 346 OFFCURVE",
"522 428 OFFCURVE",
"522 544 CURVE SMOOTH",
"522 662 OFFCURVE",
"424 742 OFFCURVE",
"294 742 CURVE SMOOTH",
"156 742 OFFCURVE",
"72 650 OFFCURVE",
"72 524 CURVE SMOOTH",
"72 0 LINE",
"172 0 LINE",
"172 514 LINE SMOOTH",
"172 594 OFFCURVE",
"216 652 OFFCURVE",
"292 652 CURVE SMOOTH",
"366 652 OFFCURVE",
"422 604 OFFCURVE",
"422 532 CURVE SMOOTH",
"422 458 OFFCURVE",
"360 414 OFFCURVE",
"294 414 CURVE SMOOTH",
"262 414 LINE",
"260 326 LINE",
"290 326 LINE SMOOTH",
"390 326 OFFCURVE",
"454 276 OFFCURVE",
"456 202 CURVE SMOOTH",
"458 128 OFFCURVE",
"396 80 OFFCURVE",
"314 80 CURVE SMOOTH",
"298 80 OFFCURVE",
"276 82 OFFCURVE",
"244 88 CURVE",
"244 -4 LINE",
"270 -8 OFFCURVE",
"286 -10 OFFCURVE",
"308 -10 CURVE SMOOTH"
);
}
);
width = 596;
}
);
leftKerningGroup = LAT_L_LC;
leftMetricsKey = h;
rightKerningGroup = LAT_GERMANDBLS_LC;
rightMetricsKey = B;
unicode = 00DF;
},
{
glyphname = t;
lastChange = "2020-05-05 08:38:47 +0000";
layers = (
{
anchors = (
{
name = bottom;
position = "{216, 0}";
},
{
name = cedilla;
position = "{226, 0}";
},
{
name = center;
position = "{136, 250}";
},
{
name = top;
position = "{136, 672}";
},
{
name = topright;
position = "{162, 732}";
}
);
layerId = "AB099EFE-E788-4EFC-8633-CF147CB782A6";
paths = (
{
closed = 1;
nodes = (
"258 -8 OFFCURVE",
"276 -5 OFFCURVE",
"294 2 CURVE",
"286 28 LINE",
"271 23 OFFCURVE",
"257 20 OFFCURVE",
"242 20 CURVE SMOOTH",
"176 20 OFFCURVE",
"150 72 OFFCURVE",
"150 128 CURVE SMOOTH",
"150 672 LINE",
"120 672 LINE",
"120 134 LINE SMOOTH",
"120 54 OFFCURVE",
"158 -8 OFFCURVE",
"240 -8 CURVE SMOOTH"
);
},
{
closed = 1;
nodes = (
"286 472 LINE",
"286 500 LINE",
"40 500 LINE",
"40 472 LINE"
);
}
);
width = 342;
},
{
anchors = (
{
name = bottom;
position = "{270, 0}";
},
{
name = cedilla;
position = "{282, 0}";
},
{
name = center;
position = "{194, 256}";
},
{
name = top;
position = "{192, 656}";
},
{
name = topright;
position = "{260, 824}";
}
);
guideLines = (
{
angle = 100;
position = "{446, -12}";
}
);
layerId = "2D8F7115-C311-411E-929D-56333CF7FFB2";
paths = (
{
closed = 1;
nodes = (
"344 -12 OFFCURVE",
"390 -4 OFFCURVE",
"420 8 CURVE",
"394 156 LINE",
"372 144 OFFCURVE",
"350 138 OFFCURVE",
"332 138 CURVE SMOOTH",
"300 138 OFFCURVE",
"276 156 OFFCURVE",
"276 196 CURVE SMOOTH",
"276 656 LINE",
"106 656 LINE",
"106 194 LINE SMOOTH",
"106 76 OFFCURVE",
"168 -12 OFFCURVE",
"302 -12 CURVE SMOOTH"
);
},
{
closed = 1;
nodes = (
"394 368 LINE",
"394 512 LINE",
"20 512 LINE",
"20 368 LINE"
);
}
);
width = 436;
},
{
anchors = (
{
name = bottom;
position = "{246, 0}";
},
{
name = cedilla;
position = "{256, 0}";
},
{
name = center;
position = "{168, 254}";
},
{
name = top;
position = "{166, 664}";
},
{
name = topright;
position = "{342, 732}";
}
);
associatedMasterId = "AB099EFE-E788-4EFC-8633-CF147CB782A6";
layerId = "D4428132-0EA3-41AC-A7CE-FA7CD50E1114";
name = "Half {450}";
paths = (
{
closed = 1;
nodes = (
"297 -11 OFFCURVE",
"322 -8 OFFCURVE",
"342 2 CURVE",
"328 94 LINE",
"308 85 OFFCURVE",
"288 84 OFFCURVE",
"278 84 CURVE SMOOTH",
"238 84 OFFCURVE",
"214 106 OFFCURVE",
"214 152 CURVE SMOOTH",
"214 664 LINE",
"114 664 LINE",
"114 140 LINE SMOOTH",
"114 54 OFFCURVE",
"166 -8 OFFCURVE",
"270 -10 CURVE SMOOTH"
);
},
{
closed = 1;
nodes = (
"334 420 LINE",
"334 506 LINE",
"32 506 LINE",
"32 420 LINE"
);
}
);
width = 378;
}
);
leftKerningGroup = LAT_T_LC;
rightKerningGroup = LAT_T_LC;
unicode = 0074;
},
{
glyphname = u;
lastChange = "2020-04-28 07:32:26 +0000";
layers = (
{
anchors = (
{
name = bottom;
position = "{282, 0}";
},
{
name = horn;
position = "{426, 500}";
},
{
name = ogonek;
position = "{432, 0}";
},
{
name = top;
position = "{262, 500}";
}
);
guideLines = (
{
angle = 60;
position = "{478, 0}";
}
);
layerId = "AB099EFE-E788-4EFC-8633-CF147CB782A6";
paths = (
{
closed = 1;
nodes = (
"332 -8 OFFCURVE",
"392 48 OFFCURVE",
"422 114 CURVE",
"416 154 LINE",
"386 90 OFFCURVE",
"326 20 OFFCURVE",
"238 20 CURVE SMOOTH",
"104 20 OFFCURVE",
"102 156 OFFCURVE",
"102 248 CURVE SMOOTH",
"102 500 LINE",
"72 500 LINE",
"72 204 LINE SMOOTH",
"72 82 OFFCURVE",
"114 -8 OFFCURVE",
"236 -8 CURVE SMOOTH"
);
},
{
closed = 1;
nodes = (
"490 20 LINE",
"482 24 LINE SMOOTH",
"460 35 OFFCURVE",
"442 62 OFFCURVE",
"442 110 CURVE SMOOTH",
"442 500 LINE",
"412 500 LINE",
"412 140 LINE",
"402 106 LINE",
"412 106 LINE",
"412 48 OFFCURVE",
"434 16 OFFCURVE",
"464 -2 CURVE SMOOTH",
"474 -8 LINE"
);
}
);
width = 530;
},
{
anchors = (
{
name = bottom;
position = "{330, 0}";
},
{
name = horn;
position = "{462, 512}";
},
{
name = ogonek;
position = "{448, 0}";
},
{
name = top;
position = "{312, 512}";
}
);
guideLines = (
{
angle = 60;
position = "{514, 0}";
}
);
layerId = "2D8F7115-C311-411E-929D-56333CF7FFB2";
paths = (
{
closed = 1;
nodes = (
"330 -14 OFFCURVE",
"396 26 OFFCURVE",
"444 94 CURVE",
"398 220 LINE",
"376 178 OFFCURVE",
"350 128 OFFCURVE",
"294 128 CURVE SMOOTH",
"232 128 OFFCURVE",
"230 192 OFFCURVE",
"230 218 CURVE SMOOTH",
"230 512 LINE",
"60 512 LINE",
"60 188 LINE SMOOTH",
"60 58 OFFCURVE",
"148 -14 OFFCURVE",
"252 -14 CURVE SMOOTH"
);
},
{
closed = 1;
nodes = (
"590 126 LINE",
"572 134 LINE SMOOTH",
"550 144 OFFCURVE",
"540 148 OFFCURVE",
"540 206 CURVE SMOOTH",
"540 512 LINE",
"370 512 LINE",
"370 130 LINE",
"366 64 LINE",
"392 64 LINE",
"404 38 OFFCURVE",
"443 7 OFFCURVE",
"496 -8 CURVE SMOOTH",
"510 -12 LINE"
);
}
);
width = 614;
},
{
anchors = (
{
name = bottom;
position = "{282, 0}";
},
{
name = horn;
position = "{440, 506}";
},
{
name = ogonek;
position = "{458, 0}";
},
{
name = top;
position = "{280, 506}";
}
);
associatedMasterId = "AB099EFE-E788-4EFC-8633-CF147CB782A6";
guideLines = (
{
angle = 60;
position = "{494, 0}";
}
);
layerId = "87917680-6E3F-4FD7-ACA5-668263386EB0";
name = "Half {450}";
paths = (
{
closed = 1;
nodes = (
"334 -12 OFFCURVE",
"404 38 OFFCURVE",
"436 90 CURVE",
"410 184 LINE",
"396 120 OFFCURVE",
"334 74 OFFCURVE",
"268 74 CURVE SMOOTH",
"168 74 OFFCURVE",
"168 180 OFFCURVE",
"168 233 CURVE SMOOTH",
"168 506 LINE",
"68 506 LINE",
"68 196 LINE SMOOTH",
"68 72 OFFCURVE",
"134 -12 OFFCURVE",
"246 -12 CURVE SMOOTH"
);
},
{
closed = 1;
nodes = (
"542 74 LINE",
"530 80 LINE SMOOTH",
"502 94 OFFCURVE",
"494 116 OFFCURVE",
"494 158 CURVE SMOOTH",
"494 506 LINE",
"394 506 LINE",
"394 136 LINE",
"382 66 LINE",
"412 66 LINE",
"412 58 OFFCURVE",
"428 12 OFFCURVE",
"482 -6 CURVE SMOOTH",
"494 -10 LINE"
);
}
);
width = 574;
}
);
leftKerningGroup = LAT_U_LC;
rightKerningGroup = LAT_U_LC;
unicode = 0075;
},
{
glyphname = v;
lastChange = "2020-05-05 05:34:01 +0000";
layers = (
{
anchors = (
{
name = bottom;
position = "{234, 0}";
},
{
name = top;
position = "{234, 500}";
}
);
layerId = "AB099EFE-E788-4EFC-8633-CF147CB782A6";
paths = (
{
closed = 1;
nodes = (
"218 0 LINE",
"254 0 LINE",
"440 500 LINE",
"408 500 LINE",
"290 176 LINE",
"238 32 LINE",
"234 32 LINE",
"182 176 LINE",
"62 500 LINE",
"28 500 LINE"
);
}
);
width = 468;
},
{
anchors = (
{
name = bottom;
position = "{284, 0}";
},
{
name = top;
position = "{284, 512}";
}
);
layerId = "2D8F7115-C311-411E-929D-56333CF7FFB2";
paths = (
{
closed = 1;
nodes = (
"204 0 LINE",
"364 0 LINE",
"552 512 LINE",
"376 512 LINE",
"316 310 LINE",
"286 176 LINE",
"282 176 LINE",
"252 310 LINE",
"194 512 LINE",
"16 512 LINE"
);
}
);
width = 568;
},
{
anchors = (
{
name = bottom;
position = "{262, 0}";
},
{
name = top;
position = "{262, 506}";
}
);
associatedMasterId = "AB099EFE-E788-4EFC-8633-CF147CB782A6";
layerId = "215BD28D-BE47-4696-94DE-E857CD775ED1";
name = "Half {450}";
paths = (
{
closed = 1;
nodes = (
"206 0 LINE",
"318 0 LINE",
"500 506 LINE",
"394 506 LINE",
"302 228 LINE",
"264 100 LINE",
"260 100 LINE",
"222 228 LINE",
"130 506 LINE",
"24 506 LINE"
);
}
);
width = 524;
}
);
leftKerningGroup = LAT_V_LC;
rightKerningGroup = LAT_V_LC;
unicode = 0076;
},
{
glyphname = w;
lastChange = "2020-05-05 06:53:26 +0000";
layers = (
{
anchors = (
{
name = bottom;
position = "{360, 0}";
},
{
name = top;
position = "{360, 500}";
}
);
layerId = "AB099EFE-E788-4EFC-8633-CF147CB782A6";
paths = (
{
closed = 1;
nodes = (
"184 0 LINE",
"220 0 LINE",
"282 182 LINE",
"358 410 LINE",
"362 410 LINE",
"438 182 LINE",
"500 0 LINE",
"536 0 LINE",
"688 500 LINE",
"656 500 LINE",
"568 202 LINE",
"518 36 LINE",
"516 36 LINE",
"464 194 LINE",
"370 466 LINE",
"350 466 LINE",
"256 194 LINE",
"204 36 LINE",
"202 36 LINE",
"152 202 LINE",
"64 500 LINE",
"32 500 LINE"
);
}
);
userData = {
RMXScaler = {
adjustSpace = 8;
height = 72;
weight = 8;
width = 80;
};
};
width = 720;
},
{
anchors = (
{
name = bottom;
position = "{410, 0}";
},
{
name = top;
position = "{410, 512}";
}
);
background = {
paths = (
{
closed = 1;
nodes = (
"158 0 LINE",
"310 0 LINE",
"346 76 LINE",
"408 214 LINE",
"412 214 LINE",
"474 76 LINE",
"510 0 LINE",
"662 0 LINE",
"796 512 LINE",
"630 512 LINE",
"582 284 LINE",
"568 200 LINE",
"566 200 LINE",
"546 246 LINE",
"434 500 LINE",
"386 500 LINE",
"274 246 LINE",
"254 200 LINE",
"252 200 LINE",
"238 284 LINE",
"188 512 LINE",
"24 512 LINE"
);
}
);
};
layerId = "2D8F7115-C311-411E-929D-56333CF7FFB2";
paths = (
{
closed = 1;
nodes = (
"178 0 LINE",
"330 0 LINE",
"362 86 LINE",
"408 214 LINE",
"412 214 LINE",
"460 86 LINE",
"490 0 LINE",
"642 0 LINE",
"796 512 LINE",
"630 512 LINE",
"582 284 LINE",
"568 200 LINE",
"566 200 LINE",
"546 246 LINE",
"438 500 LINE",
"382 500 LINE",
"274 246 LINE",
"254 200 LINE",
"252 200 LINE",
"238 284 LINE",
"188 512 LINE",
"24 512 LINE"
);
}
);
userData = {
RMXScaler = {
adjustSpace = 20;
height = 73;
weight = -120;
width = 79;
};
};
width = 820;
},
{
anchors = (
{
name = bottom;
position = "{384, 0}";
},
{
name = top;
position = "{384, 506}";
}
);
associatedMasterId = "AB099EFE-E788-4EFC-8633-CF147CB782A6";
background = {
paths = (
{
closed = 1;
nodes = (
"170 0 LINE",
"264 0 LINE",
"312 130 LINE",
"382 312 LINE",
"386 312 LINE",
"454 130 LINE",
"504 0 LINE",
"598 0 LINE",
"740 506 LINE",
"642 506 LINE",
"574 244 LINE",
"542 118 LINE",
"540 118 LINE",
"504 220 LINE",
"400 484 LINE",
"366 484 LINE",
"264 220 LINE",
"228 118 LINE",
"226 118 LINE",
"194 244 LINE",
"124 506 LINE",
"26 506 LINE"
);
}
);
};
layerId = "7EFEC4AD-EE5C-46F9-94CB-CAA940C60973";
name = "Half {450}";
paths = (
{
closed = 1;
nodes = (
"172 0 LINE",
"272 0 LINE",
"318 126 LINE",
"382 300 LINE",
"386 300 LINE",
"450 126 LINE",
"496 0 LINE",
"596 0 LINE",
"740 506 LINE",
"640 506 LINE",
"572 244 LINE",
"542 118 LINE",
"540 118 LINE",
"504 224 LINE",
"402 484 LINE",
"362 484 LINE",
"264 224 LINE",
"228 118 LINE",
"226 118 LINE",
"196 244 LINE",
"128 506 LINE",
"28 506 LINE"
);
}
);
userData = {
RMXScaler = {
adjustSpace = 8;
height = 72;
weight = 8;
width = 80;
};
};
width = 768;
}
);
leftKerningGroup = LAT_V_LC;
rightKerningGroup = LAT_V_LC;
unicode = 0077;
userData = {
RMXScaler = {
source = W;
};
};
},
{
glyphname = x;
lastChange = "2020-04-07 04:51:13 +0000";
layers = (
{
anchors = (
{
name = bottom;
position = "{229, 0}";
},
{
name = top;
position = "{229, 500}";
}
);
layerId = "AB099EFE-E788-4EFC-8633-CF147CB782A6";
paths = (
{
closed = 1;
nodes = (
"380 500 LINE",
"248 306 LINE",
"230 276 LINE",
"228 276 LINE",
"216 256 LINE",
"196 228 LINE",
"44 0 LINE",
"78 0 LINE",
"208 194 LINE",
"228 226 LINE",
"230 226 LINE",
"240 242 LINE",
"264 278 LINE",
"414 500 LINE"
);
},
{
closed = 1;
nodes = (
"194 278 LINE",
"218 242 LINE",
"228 226 LINE",
"230 226 LINE",
"250 194 LINE",
"380 0 LINE",
"414 0 LINE",
"262 228 LINE",
"244 256 LINE",
"230 276 LINE",
"228 276 LINE",
"210 306 LINE",
"78 500 LINE",
"44 500 LINE"
);
}
);
width = 460;
},
{
anchors = (
{
name = bottom;
position = "{280, 0}";
},
{
name = top;
position = "{280, 512}";
}
);
layerId = "2D8F7115-C311-411E-929D-56333CF7FFB2";
paths = (
{
closed = 1;
nodes = (
"358 512 LINE",
"296 394 LINE",
"282 348 LINE",
"276 348 LINE",
"190 258 LINE",
"180 248 LINE",
"20 0 LINE",
"200 0 LINE",
"252 84 LINE",
"280 140 LINE",
"284 140 LINE",
"372 254 LINE",
"380 264 LINE",
"534 512 LINE"
);
},
{
closed = 1;
nodes = (
"182 264 LINE",
"190 254 LINE",
"276 140 LINE",
"280 140 LINE",
"310 84 LINE",
"362 0 LINE",
"540 0 LINE",
"382 248 LINE",
"372 258 LINE",
"286 348 LINE",
"282 348 LINE",
"268 394 LINE",
"206 512 LINE",
"28 512 LINE"
);
}
);
width = 560;
},
{
anchors = (
{
name = bottom;
position = "{255, 0}";
},
{
name = top;
position = "{255, 506}";
}
);
associatedMasterId = "AB099EFE-E788-4EFC-8633-CF147CB782A6";
layerId = "6836065E-7CF1-4E02-9F5E-12E09CE991EB";
name = "Half {450}";
paths = (
{
closed = 1;
nodes = (
"368 506 LINE",
"274 358 LINE",
"256 330 LINE",
"254 330 LINE",
"200 258 LINE",
"186 236 LINE",
"28 0 LINE",
"142 0 LINE",
"228 136 LINE",
"254 178 LINE",
"256 178 LINE",
"312 248 LINE",
"324 270 LINE",
"480 506 LINE"
);
},
{
closed = 1;
nodes = (
"188 270 LINE",
"200 248 LINE",
"254 178 LINE",
"256 178 LINE",
"282 136 LINE",
"370 0 LINE",
"482 0 LINE",
"326 236 LINE",
"312 258 LINE",
"256 330 LINE",
"254 330 LINE",
"236 358 LINE",
"142 506 LINE",
"30 506 LINE"
);
}
);
width = 510;
},
{
anchors = (
{
name = bottom;
position = "{273, 0}";
},
{
name = top;
position = "{273, 510}";
}
);
associatedMasterId = "AB099EFE-E788-4EFC-8633-CF147CB782A6";
background = {
paths = (
{
closed = 1;
nodes = (
"528 510 LINE",
"366 510 LINE",
"284 376 LINE",
"276 354 LINE",
"274 354 LINE",
"264 376 LINE",
"182 510 LINE",
"22 510 LINE",
"182 258 LINE",
"20 0 LINE",
"180 0 LINE",
"264 130 LINE",
"274 154 LINE",
"276 154 LINE",
"284 132 LINE",
"368 0 LINE",
"528 0 LINE",
"366 258 LINE"
);
}
);
};
layerId = "91DCD10A-F3AE-430D-854B-5B96DC4F0EB1";
name = "{700}";
paths = (
{
closed = 1;
nodes = (
"368 510 LINE",
"284 376 LINE",
"276 354 LINE",
"270 354 LINE",
"190 270 LINE",
"170 240 LINE",
"20 0 LINE",
"180 0 LINE",
"266 132 LINE",
"274 154 LINE",
"276 154 LINE",
"358 246 LINE",
"378 276 LINE",
"528 510 LINE"
);
},
{
closed = 1;
nodes = (
"172 276 LINE",
"192 246 LINE",
"274 154 LINE",
"276 154 LINE",
"284 132 LINE",
"368 0 LINE",
"530 0 LINE",
"380 236 LINE",
"360 270 LINE",
"280 354 LINE",
"274 354 LINE",
"264 376 LINE",
"182 510 LINE",
"22 510 LINE"
);
}
);
width = 546;
}
);
leftKerningGroup = LAT_X_LC;
rightKerningGroup = LAT_X_LC;
unicode = 0078;
},
{
glyphname = y;
lastChange = "2020-05-05 06:59:44 +0000";
layers = (
{
anchors = (
{
name = bottom;
position = "{138, -200}";
},
{
name = top;
position = "{248, 500}";
}
);
background = {
paths = (
{
closed = 1;
nodes = (
"184 -208 OFFCURVE",
"218 -142 OFFCURVE",
"248 -64 CURVE SMOOTH",
"464 500 LINE",
"434 500 LINE",
"308 172 LINE SMOOTH",
"290 126 OFFCURVE",
"272 78 OFFCURVE",
"254 32 CURVE",
"250 32 LINE",
"232 78 OFFCURVE",
"214 126 OFFCURVE",
"196 172 CURVE SMOOTH",
"68 500 LINE",
"36 500 LINE",
"244 -28 LINE",
"244 2 LINE",
"216 -70 LINE SMOOTH",
"199 -113 OFFCURVE",
"170 -180 OFFCURVE",
"106 -180 CURVE SMOOTH",
"74 -180 OFFCURVE",
"44 -164 OFFCURVE",
"28 -148 CURVE",
"10 -172 LINE",
"38 -196 OFFCURVE",
"68 -208 OFFCURVE",
"104 -208 CURVE SMOOTH"
);
},
{
closed = 1;
nodes = (
"464 500 LINE",
"434 500 LINE",
"308 172 LINE SMOOTH",
"256 38 OFFCURVE",
"268 66 OFFCURVE",
"254 32 CURVE",
"250 32 LINE",
"232 78 OFFCURVE",
"214 126 OFFCURVE",
"196 172 CURVE SMOOTH",
"68 500 LINE",
"36 500 LINE",
"244 -28 LINE",
"244 2 LINE",
"200 -110 LINE SMOOTH",
"190 -134 OFFCURVE",
"175 -180 OFFCURVE",
"134 -180 CURVE SMOOTH",
"118 -180 OFFCURVE",
"97 -172 OFFCURVE",
"86 -164 CURVE",
"74 -190 LINE",
"86 -200 OFFCURVE",
"116 -208 OFFCURVE",
"132 -208 CURVE SMOOTH",
"168 -208 OFFCURVE",
"200 -190 OFFCURVE",
"222 -132 CURVE SMOOTH"
);
}
);
};
guideLines = (
{
angle = 80;
position = "{68, -8}";
}
);
layerId = "AB099EFE-E788-4EFC-8633-CF147CB782A6";
paths = (
{
closed = 1;
nodes = (
"464 500 LINE",
"432 500 LINE",
"308 172 LINE",
"254 32 LINE",
"250 32 LINE",
"196 172 LINE",
"68 500 LINE",
"36 500 LINE",
"244 -28 LINE",
"244 2 LINE",
"212 -78 LINE SMOOTH",
"194 -124 OFFCURVE",
"174 -172 OFFCURVE",
"116 -172 CURVE SMOOTH",
"90 -172 OFFCURVE",
"75 -166 OFFCURVE",
"60 -160 CURVE",
"54 -188 LINE",
"66 -194 OFFCURVE",
"89 -200 OFFCURVE",
"114 -200 CURVE SMOOTH",
"190 -200 OFFCURVE",
"214 -152 OFFCURVE",
"240 -84 CURVE SMOOTH"
);
}
);
width = 492;
},
{
anchors = (
{
name = bottom;
position = "{200, -200}";
},
{
name = top;
position = "{298, 512}";
}
);
layerId = "2D8F7115-C311-411E-929D-56333CF7FFB2";
paths = (
{
closed = 1;
nodes = (
"572 512 LINE",
"398 512 LINE",
"316 234 LINE",
"300 164 LINE",
"298 164 LINE",
"284 234 LINE",
"196 512 LINE",
"20 512 LINE",
"228 -24 LINE",
"246 62 LINE",
"224 -16 LINE SMOOTH",
"218 -36 OFFCURVE",
"206 -72 OFFCURVE",
"152 -72 CURVE SMOOTH",
"134 -72 OFFCURVE",
"110 -68 OFFCURVE",
"96 -62 CURVE",
"72 -198 LINE",
"96 -206 OFFCURVE",
"138 -212 OFFCURVE",
"174 -212 CURVE SMOOTH",
"312 -212 OFFCURVE",
"344 -116 OFFCURVE",
"366 -54 CURVE SMOOTH"
);
}
);
width = 588;
},
{
anchors = (
{
name = bottom;
position = "{234, -200}";
},
{
name = top;
position = "{270, 506}";
}
);
associatedMasterId = "AB099EFE-E788-4EFC-8633-CF147CB782A6";
background = {
paths = (
{
closed = 1;
nodes = (
"502 506 LINE",
"400 506 LINE",
"296 212 LINE SMOOTH",
"286 182 OFFCURVE",
"278 152 OFFCURVE",
"268 122 CURVE",
"266 122 LINE",
"256 152 OFFCURVE",
"246 182 OFFCURVE",
"236 212 CURVE SMOOTH",
"130 506 LINE",
"26 506 LINE",
"230 -26 LINE",
"234 32 LINE",
"194 -76 LINE SMOOTH",
"186 -98 OFFCURVE",
"166 -126 OFFCURVE",
"128 -126 CURVE SMOOTH",
"110 -126 OFFCURVE",
"78 -120 OFFCURVE",
"62 -112 CURVE",
"52 -194 LINE",
"68 -202 OFFCURVE",
"104 -210 OFFCURVE",
"138 -210 CURVE SMOOTH",
"218 -210 OFFCURVE",
"258 -162 OFFCURVE",
"276 -112 CURVE SMOOTH"
);
},
{
closed = 1;
nodes = (
"516 506 LINE",
"414 506 LINE",
"310 204 LINE SMOOTH",
"282 125 OFFCURVE",
"288 133 OFFCURVE",
"276 98 CURVE",
"272 98 LINE",
"261 132 OFFCURVE",
"250 169 OFFCURVE",
"238 204 CURVE SMOOTH",
"130 506 LINE",
"26 506 LINE",
"234 -26 LINE",
"244 32 LINE",
"218 -42 LINE SMOOTH",
"203 -80 OFFCURVE",
"186 -126 OFFCURVE",
"130 -126 CURVE SMOOTH",
"97 -126 OFFCURVE",
"61 -112 OFFCURVE",
"42 -102 CURVE",
"24 -186 LINE",
"46 -198 OFFCURVE",
"99 -210 OFFCURVE",
"138 -210 CURVE SMOOTH",
"248 -210 OFFCURVE",
"279 -127 OFFCURVE",
"306 -60 CURVE SMOOTH"
);
}
);
};
guideLines = (
{
angle = 80;
position = "{48, -8}";
}
);
layerId = "949DE86C-63D5-4B7C-9FDA-C37601FFFF80";
name = "Half {450}";
paths = (
{
closed = 1;
nodes = (
"508 506 LINE",
"406 506 LINE",
"308 216 LINE",
"278 122 LINE",
"276 122 LINE",
"244 216 LINE",
"132 506 LINE",
"28 506 LINE",
"242 -26 LINE",
"242 32 LINE",
"220 -40 LINE SMOOTH",
"211 -70 OFFCURVE",
"188 -112 OFFCURVE",
"130 -112 CURVE SMOOTH",
"110 -112 OFFCURVE",
"90 -109 OFFCURVE",
"72 -104 CURVE",
"52 -188 LINE",
"78 -196 OFFCURVE",
"111 -200 OFFCURVE",
"140 -200 CURVE SMOOTH",
"240 -200 OFFCURVE",
"284 -128 OFFCURVE",
"306 -66 CURVE SMOOTH"
);
}
);
width = 532;
}
);
leftKerningGroup = LAT_Y_LC;
rightKerningGroup = LAT_Y_LC;
rightMetricsKey = v;
unicode = 0079;
},
{
glyphname = z;
lastChange = "2020-04-07 04:51:13 +0000";
layers = (
{
anchors = (
{
name = bottom;
position = "{228, 0}";
},
{
name = center;
position = "{228, 250}";
},
{
name = leghookretroflex;
position = "{390, 0}";
},
{
name = top;
position = "{228, 500}";
}
);
layerId = "AB099EFE-E788-4EFC-8633-CF147CB782A6";
paths = (
{
closed = 1;
nodes = (
"52 0 LINE",
"404 0 LINE",
"404 28 LINE",
"96 28 LINE",
"398 484 LINE",
"398 500 LINE",
"66 500 LINE",
"66 472 LINE",
"354 472 LINE",
"52 18 LINE"
);
}
);
width = 458;
},
{
anchors = (
{
name = bottom;
position = "{272, 0}";
},
{
name = center;
position = "{271, 256}";
},
{
name = leghookretroflex;
position = "{410, 0}";
},
{
name = top;
position = "{272, 512}";
}
);
layerId = "2D8F7115-C311-411E-929D-56333CF7FFB2";
paths = (
{
closed = 1;
nodes = (
"48 0 LINE",
"494 0 LINE",
"494 146 LINE",
"288 146 LINE",
"488 478 LINE",
"488 512 LINE",
"58 512 LINE",
"58 366 LINE",
"256 366 LINE",
"48 34 LINE"
);
}
);
width = 542;
},
{
anchors = (
{
name = bottom;
position = "{248, 0}";
},
{
name = center;
position = "{250, 253}";
},
{
name = leghookretroflex;
position = "{400, 0}";
},
{
name = top;
position = "{250, 506}";
}
);
associatedMasterId = "AB099EFE-E788-4EFC-8633-CF147CB782A6";
layerId = "675DB39F-2C37-4C79-A632-B19F40F93210";
name = "Half {450}";
paths = (
{
closed = 1;
nodes = (
"50 0 LINE",
"450 0 LINE",
"450 88 LINE",
"204 88 LINE",
"444 486 LINE",
"444 506 LINE",
"62 506 LINE",
"62 418 LINE",
"294 418 LINE",
"50 22 LINE"
);
}
);
width = 500;
}
);
leftKerningGroup = LAT_Z_LC;
rightKerningGroup = LAT_Z_LC;
unicode = 007A;
},
{
glyphname = a.ss01;
lastChange = "2020-05-05 08:28:13 +0000";
layers = (
{
anchors = (
{
name = bottom;
position = "{282, 0}";
},
{
name = center;
position = "{294, 250}";
},
{
name = ogonek;
position = "{458, -4}";
},
{
name = top;
position = "{294, 500}";
},
{
name = topright;
position = "{586, 500}";
}
);
components = (
{
alignment = -1;
name = _part.bowl.ss01;
transform = "{-1, 0, 0, 1, 600, 0}";
}
);
layerId = "AB099EFE-E788-4EFC-8633-CF147CB782A6";
paths = (
{
closed = 1;
nodes = (
"516 0 LINE",
"516 500 LINE",
"484 500 LINE",
"484 394 LINE",
"482 394 LINE",
"484 370 LINE",
"484 136 LINE",
"482 108 LINE",
"484 108 LINE",
"484 0 LINE"
);
}
);
width = 596;
},
{
anchors = (
{
name = bottom;
position = "{326, 0}";
},
{
name = center;
position = "{324, 256}";
},
{
name = ogonek;
position = "{488, 0}";
},
{
name = top;
position = "{332, 512}";
},
{
name = topright;
position = "{618, 512}";
}
);
components = (
{
alignment = -1;
name = _part.bowl.ss01;
transform = "{-1, 0, 0, 1, 638, 0}";
}
);
layerId = "2D8F7115-C311-411E-929D-56333CF7FFB2";
paths = (
{
closed = 1;
nodes = (
"576 0 LINE",
"576 512 LINE",
"412 512 LINE",
"412 468 LINE",
"404 468 LINE",
"406 408 LINE",
"406 86 LINE",
"400 52 LINE",
"416 52 LINE",
"416 0 LINE"
);
}
);
width = 640;
},
{
anchors = (
{
name = bottom;
position = "{310, 0}";
},
{
name = center;
position = "{314, 254}";
},
{
name = ogonek;
position = "{472, -2}";
},
{
name = top;
position = "{318, 506}";
},
{
name = topright;
position = "{598, 506}";
}
);
associatedMasterId = "AB099EFE-E788-4EFC-8633-CF147CB782A6";
components = (
{
alignment = -1;
name = _part.bowl.ss01;
transform = "{-1, 0, 0, 1, 620, 0}";
}
);
layerId = "AC8A3195-6078-46FD-AA9D-1AC5F6AC1630";
name = "Half {450}";
paths = (
{
closed = 1;
nodes = (
"550 0 LINE",
"550 506 LINE",
"448 506 LINE",
"448 448 LINE",
"436 448 LINE",
"448 418 LINE",
"448 88 LINE",
"446 64 LINE",
"450 64 LINE",
"450 0 LINE"
);
}
);
width = 622;
}
);
leftKerningGroup = LAT_O_LC;
leftMetricsKey = o;
rightKerningGroup = LAT_ASS01_LC;
},
{
glyphname = b.ss01;
lastChange = "2020-05-05 08:28:26 +0000";
layers = (
{
anchors = (
{
name = bottom;
position = "{288, 0}";
},
{
name = center;
position = "{96, 600}";
},
{
name = top;
position = "{312, 548}";
}
);
components = (
{
name = _part.bowl.ss01;
transform = "{1, 0, 0, 1, -4, 0}";
}
);
layerId = "AB099EFE-E788-4EFC-8633-CF147CB782A6";
paths = (
{
closed = 1;
nodes = (
"110 0 LINE",
"110 108 LINE",
"114 108 LINE",
"110 122 LINE",
"110 732 LINE",
"80 732 LINE",
"80 0 LINE"
);
}
);
width = 596;
},
{
anchors = (
{
name = bottom;
position = "{322, 0}";
},
{
name = center;
position = "{148, 616}";
},
{
name = top;
position = "{394, 552}";
}
);
components = (
{
name = _part.bowl.ss01;
transform = "{1, 0, 0, 1, 2, 0}";
}
);
layerId = "2D8F7115-C311-411E-929D-56333CF7FFB2";
paths = (
{
closed = 1;
nodes = (
"224 0 LINE",
"224 54 LINE",
"236 54 LINE",
"234 90 LINE",
"234 732 LINE",
"64 732 LINE",
"64 0 LINE"
);
}
);
width = 640;
},
{
anchors = (
{
name = bottom;
position = "{305, 0}";
},
{
name = center;
position = "{124, 608}";
},
{
name = top;
position = "{353, 550}";
}
);
associatedMasterId = "AB099EFE-E788-4EFC-8633-CF147CB782A6";
components = (
{
alignment = -1;
name = _part.bowl.ss01;
}
);
layerId = "5A761FBB-D991-4916-A5B6-6B494825C86B";
name = "Half {450}";
paths = (
{
closed = 1;
nodes = (
"170 0 LINE",
"170 62 LINE",
"178 62 LINE",
"172 86 LINE",
"172 732 LINE",
"72 732 LINE",
"72 0 LINE"
);
}
);
width = 620;
}
);
leftKerningGroup = LAT_L_LC;
rightKerningGroup = LAT_O_LC;
rightMetricsKey = o;
},
{
glyphname = d.ss01;
lastChange = "2020-05-05 08:28:20 +0000";
layers = (
{
anchors = (
{
name = bottom;
position = "{300, 0}";
},
{
name = center;
position = "{502, 600}";
},
{
name = leghookretroflex;
position = "{502, 0}";
},
{
name = top;
position = "{500, 732}";
},
{
name = topright;
position = "{516, 732}";
}
);
components = (
{
name = _part.bowl.ss01;
transform = "{-1, 0, 0, 1, 600, 0}";
}
);
layerId = "AB099EFE-E788-4EFC-8633-CF147CB782A6";
paths = (
{
closed = 1;
nodes = (
"486 122 LINE",
"482 108 LINE",
"486 108 LINE",
"486 0 LINE",
"516 0 LINE",
"516 732 LINE",
"486 732 LINE"
);
}
);
width = 596;
},
{
anchors = (
{
name = bottom;
position = "{314, 0}";
},
{
name = center;
position = "{490, 616}";
},
{
name = leghookretroflex;
position = "{492, 0}";
},
{
name = top;
position = "{492, 732}";
},
{
name = topright;
position = "{576, 732}";
}
);
components = (
{
name = _part.bowl.ss01;
transform = "{-1, 0, 0, 1, 638, 0}";
}
);
layerId = "2D8F7115-C311-411E-929D-56333CF7FFB2";
paths = (
{
closed = 1;
nodes = (
"406 90 LINE",
"404 54 LINE",
"416 54 LINE",
"416 0 LINE",
"576 0 LINE",
"576 732 LINE",
"406 732 LINE"
);
}
);
width = 640;
},
{
anchors = (
{
name = bottom;
position = "{316, 0}";
},
{
name = center;
position = "{498, 608}";
},
{
name = leghookretroflex;
position = "{498, 0}";
},
{
name = top;
position = "{498, 732}";
},
{
name = topright;
position = "{624, 732}";
}
);
associatedMasterId = "AB099EFE-E788-4EFC-8633-CF147CB782A6";
components = (
{
alignment = -1;
name = _part.bowl.ss01;
transform = "{-1, 0, 0, 1, 620, 0}";
}
);
layerId = "93F45F20-9F23-4A78-8C04-8606029ED3EE";
name = "Half {450}";
paths = (
{
closed = 1;
nodes = (
"448 86 LINE",
"442 62 LINE",
"450 62 LINE",
"450 0 LINE",
"548 0 LINE",
"548 732 LINE",
"448 732 LINE"
);
}
);
width = 624;
}
);
leftKerningGroup = LAT_O_LC;
leftMetricsKey = o;
rightKerningGroup = LAT_D_LC;
},
{
glyphname = g.ss01;
lastChange = "2020-05-05 07:59:47 +0000";
layers = (
{
anchors = (
{
name = bottom;
position = "{296, -200}";
},
{
name = top;
position = "{294, 500}";
}
);
components = (
{
name = _part.bowl.ss01;
transform = "{-1, 0, 0, 1, 600, 0}";
}
);
layerId = "AB099EFE-E788-4EFC-8633-CF147CB782A6";
paths = (
{
closed = 1;
nodes = (
"382 -208 OFFCURVE",
"516 -152 OFFCURVE",
"516 4 CURVE SMOOTH",
"516 500 LINE",
"486 500 LINE",
"486 384 LINE",
"486 384 LINE",
"486 2 LINE SMOOTH",
"486 -132 OFFCURVE",
"370 -180 OFFCURVE",
"290 -180 CURVE SMOOTH",
"230 -180 OFFCURVE",
"164 -158 OFFCURVE",
"126 -126 CURVE",
"108 -152 LINE",
"148 -182 OFFCURVE",
"220 -208 OFFCURVE",
"286 -208 CURVE SMOOTH"
);
}
);
width = 592;
},
{
anchors = (
{
name = bottom;
position = "{318, -200}";
},
{
name = top;
position = "{308, 512}";
}
);
components = (
{
name = _part.bowl.ss01;
transform = "{-1, 0, 0, 0.95973, 638, 22}";
}
);
layerId = "2D8F7115-C311-411E-929D-56333CF7FFB2";
paths = (
{
closed = 1;
nodes = (
"460 -212 OFFCURVE",
"572 -122 OFFCURVE",
"572 34 CURVE SMOOTH",
"572 512 LINE",
"412 512 LINE",
"412 472 LINE",
"406 472 LINE",
"406 24 LINE SMOOTH",
"406 -44 OFFCURVE",
"332 -72 OFFCURVE",
"270 -72 CURVE SMOOTH",
"223 -72 OFFCURVE",
"172 -53 OFFCURVE",
"138 -32 CURVE",
"88 -166 LINE",
"128 -186 OFFCURVE",
"204 -212 OFFCURVE",
"292 -212 CURVE SMOOTH"
);
}
);
width = 632;
},
{
anchors = (
{
name = bottom;
position = "{316, -200}";
},
{
name = top;
position = "{310, 506}";
}
);
associatedMasterId = "AB099EFE-E788-4EFC-8633-CF147CB782A6";
components = (
{
alignment = -1;
name = _part.bowl.ss01;
transform = "{-1, 0, 0, 0.97986, 620, 12}";
}
);
layerId = "D548E82C-F1D5-44DE-B786-3582CB4D3885";
name = "Half {450}";
paths = (
{
closed = 1;
nodes = (
"434 -210 OFFCURVE",
"548 -134 OFFCURVE",
"548 20 CURVE SMOOTH",
"548 506 LINE",
"452 506 LINE",
"452 434 LINE",
"450 434 LINE",
"450 14 LINE SMOOTH",
"450 -88 OFFCURVE",
"358 -122 OFFCURVE",
"286 -122 CURVE SMOOTH",
"224 -122 OFFCURVE",
"168 -98 OFFCURVE",
"126 -66 CURVE",
"90 -156 LINE",
"134 -188 OFFCURVE",
"210 -210 OFFCURVE",
"288 -210 CURVE SMOOTH"
);
}
);
width = 620;
}
);
leftKerningGroup = LAT_G_LC;
leftMetricsKey = o.ss01;
rightKerningGroup = LAT_G_LC;
},
{
glyphname = l.ss01;
lastChange = "2020-04-08 01:43:38 +0000";
layers = (
{
anchors = (
{
name = bottom;
position = "{108, 0}";
},
{
name = center;
position = "{108, 348}";
},
{
name = dot;
position = "{226, 350}";
},
{
name = top;
position = "{106, 782}";
},
{
name = topright;
position = "{122, 732}";
}
);
layerId = "AB099EFE-E788-4EFC-8633-CF147CB782A6";
paths = (
{
closed = 1;
nodes = (
"122 0 LINE",
"122 732 LINE",
"92 732 LINE",
"92 0 LINE"
);
}
);
width = 214;
},
{
anchors = (
{
name = bottom;
position = "{154, 0}";
},
{
name = center;
position = "{154, 384}";
},
{
name = dot;
position = "{390, 390}";
},
{
name = top;
position = "{154, 732}";
},
{
name = topright;
position = "{240, 732}";
}
);
layerId = "2D8F7115-C311-411E-929D-56333CF7FFB2";
paths = (
{
closed = 1;
nodes = (
"240 0 LINE",
"240 732 LINE",
"68 732 LINE",
"68 0 LINE"
);
}
);
width = 308;
}
);
leftKerningGroup = LAT_H_UC;
rightKerningGroup = LAT_H_UC;
},
{
glyphname = o.ss01;
lastChange = "2020-05-05 07:12:02 +0000";
layers = (
{
anchors = (
{
name = bottom;
position = "{308, 0}";
},
{
name = center;
position = "{308, 250}";
},
{
name = horn;
position = "{426, 480}";
},
{
name = ogonek;
position = "{360, 12}";
},
{
name = top;
position = "{308, 500}";
},
{
name = topright;
position = "{604, 500}";
}
);
layerId = "AB099EFE-E788-4EFC-8633-CF147CB782A6";
paths = (
{
closed = 1;
nodes = (
"453 -8 OFFCURVE",
"564 103 OFFCURVE",
"564 250 CURVE SMOOTH",
"564 397 OFFCURVE",
"453 508 OFFCURVE",
"306 508 CURVE SMOOTH",
"159 508 OFFCURVE",
"48 397 OFFCURVE",
"48 250 CURVE SMOOTH",
"48 103 OFFCURVE",
"159 -8 OFFCURVE",
"306 -8 CURVE SMOOTH"
);
},
{
closed = 1;
nodes = (
"176 20 OFFCURVE",
"78 119 OFFCURVE",
"78 250 CURVE SMOOTH",
"78 381 OFFCURVE",
"176 480 OFFCURVE",
"306 480 CURVE SMOOTH",
"436 480 OFFCURVE",
"534 381 OFFCURVE",
"534 250 CURVE SMOOTH",
"534 119 OFFCURVE",
"436 20 OFFCURVE",
"306 20 CURVE SMOOTH"
);
}
);
width = 612;
},
{
anchors = (
{
name = bottom;
position = "{314, 0}";
},
{
name = center;
position = "{314, 256}";
},
{
name = horn;
position = "{464, 482}";
},
{
name = ogonek;
position = "{374, 14}";
},
{
name = top;
position = "{316, 512}";
},
{
name = topright;
position = "{606, 512}";
}
);
layerId = "2D8F7115-C311-411E-929D-56333CF7FFB2";
paths = (
{
closed = 1;
nodes = (
"477 -12 OFFCURVE",
"600 103 OFFCURVE",
"600 256 CURVE SMOOTH",
"600 409 OFFCURVE",
"477 524 OFFCURVE",
"314 524 CURVE SMOOTH",
"151 524 OFFCURVE",
"28 409 OFFCURVE",
"28 256 CURVE SMOOTH",
"28 103 OFFCURVE",
"151 -12 OFFCURVE",
"314 -12 CURVE SMOOTH"
);
},
{
closed = 1;
nodes = (
"243 132 OFFCURVE",
"190 185 OFFCURVE",
"190 256 CURVE SMOOTH",
"190 327 OFFCURVE",
"243 380 OFFCURVE",
"314 380 CURVE SMOOTH",
"385 380 OFFCURVE",
"438 327 OFFCURVE",
"438 256 CURVE SMOOTH",
"438 185 OFFCURVE",
"385 132 OFFCURVE",
"314 132 CURVE SMOOTH"
);
}
);
width = 628;
},
{
anchors = (
{
name = bottom;
position = "{302, 0}";
},
{
name = center;
position = "{302, 252}";
},
{
name = horn;
position = "{436, 500}";
},
{
name = ogonek;
position = "{358, 14}";
},
{
name = top;
position = "{302, 506}";
},
{
name = topright;
position = "{590, 506}";
}
);
associatedMasterId = "AB099EFE-E788-4EFC-8633-CF147CB782A6";
layerId = "51EC8CF4-9C29-420F-ACA7-DB790A9AB824";
name = "Half {450}";
paths = (
{
closed = 1;
nodes = (
"454 -10 OFFCURVE",
"568 103 OFFCURVE",
"568 254 CURVE SMOOTH",
"568 404 OFFCURVE",
"454 516 OFFCURVE",
"302 516 CURVE SMOOTH",
"150 516 OFFCURVE",
"36 404 OFFCURVE",
"36 254 CURVE SMOOTH",
"36 103 OFFCURVE",
"150 -10 OFFCURVE",
"302 -10 CURVE SMOOTH"
);
},
{
closed = 1;
nodes = (
"211 82 OFFCURVE",
"144 156 OFFCURVE",
"144 254 CURVE SMOOTH",
"144 351 OFFCURVE",
"211 424 OFFCURVE",
"300 424 CURVE SMOOTH",
"391 424 OFFCURVE",
"460 351 OFFCURVE",
"460 254 CURVE SMOOTH",
"460 156 OFFCURVE",
"391 82 OFFCURVE",
"300 82 CURVE SMOOTH"
);
}
);
width = 604;
}
);
leftKerningGroup = LAT_O_LC;
rightKerningGroup = LAT_O_LC;
},
{
glyphname = p.ss01;
lastChange = "2020-05-05 08:28:32 +0000";
layers = (
{
anchors = (
{
name = bottom;
position = "{96, -200}";
},
{
name = top;
position = "{290, 500}";
}
);
components = (
{
name = _part.bowl.ss01;
transform = "{1, 0, 0, 1, -4, 0}";
}
);
layerId = "AB099EFE-E788-4EFC-8633-CF147CB782A6";
paths = (
{
closed = 1;
nodes = (
"110 376 LINE",
"116 396 LINE",
"110 396 LINE",
"110 500 LINE",
"80 500 LINE",
"80 -200 LINE",
"110 -200 LINE"
);
}
);
width = 596;
},
{
anchors = (
{
name = bottom;
position = "{144, -200}";
},
{
name = top;
position = "{320, 512}";
}
);
components = (
{
name = _part.bowl.ss01;
transform = "{1, 0, 0, 1, -2, 0}";
}
);
layerId = "2D8F7115-C311-411E-929D-56333CF7FFB2";
paths = (
{
closed = 1;
nodes = (
"230 406 LINE",
"242 462 LINE",
"220 462 LINE",
"220 512 LINE",
"60 512 LINE",
"60 -200 LINE",
"230 -200 LINE"
);
}
);
width = 636;
},
{
anchors = (
{
name = bottom;
position = "{122, -200}";
},
{
name = top;
position = "{312, 506}";
}
);
associatedMasterId = "AB099EFE-E788-4EFC-8633-CF147CB782A6";
components = (
{
alignment = -1;
name = _part.bowl.ss01;
transform = "{1, 0, 0, 1, -2, 0}";
}
);
layerId = "AF74158E-455A-4DFD-A125-19750D17B1F5";
name = "Half {450}";
paths = (
{
closed = 1;
nodes = (
"170 404 LINE",
"178 446 LINE",
"168 446 LINE",
"168 506 LINE",
"70 506 LINE",
"70 -200 LINE",
"170 -200 LINE"
);
}
);
width = 618;
}
);
leftKerningGroup = LAT_P_LC;
rightKerningGroup = LAT_O_LC;
rightMetricsKey = o;
},
{
glyphname = q.ss01;
lastChange = "2020-05-05 08:28:59 +0000";
layers = (
{
anchors = (
{
name = bottom;
position = "{502, -200}";
},
{
name = top;
position = "{298, 500}";
}
);
components = (
{
name = _part.bowl.ss01;
transform = "{-1, 0, 0, 1, 600, 0}";
}
);
layerId = "AB099EFE-E788-4EFC-8633-CF147CB782A6";
paths = (
{
closed = 1;
nodes = (
"516 -200 LINE",
"516 500 LINE",
"486 500 LINE",
"486 396 LINE",
"484 396 LINE",
"486 372 LINE",
"486 -200 LINE"
);
}
);
width = 596;
},
{
anchors = (
{
name = bottom;
position = "{492, -200}";
},
{
name = top;
position = "{282, 512}";
}
);
components = (
{
name = _part.bowl.ss01;
transform = "{-1, 0, 0, 1, 638, 0}";
}
);
layerId = "2D8F7115-C311-411E-929D-56333CF7FFB2";
paths = (
{
closed = 1;
nodes = (
"576 -200 LINE",
"576 512 LINE",
"416 512 LINE",
"416 462 LINE",
"402 462 LINE",
"406 406 LINE",
"406 -200 LINE"
);
}
);
width = 636;
},
{
anchors = (
{
name = bottom;
position = "{496, -200}";
},
{
name = top;
position = "{286, 506}";
}
);
associatedMasterId = "AB099EFE-E788-4EFC-8633-CF147CB782A6";
components = (
{
alignment = -1;
name = _part.bowl.ss01;
transform = "{-1, 0, 0, 1, 620, 0}";
}
);
layerId = "71FC3BAB-2654-4618-A306-03265AF02326";
name = "Half {450}";
paths = (
{
closed = 1;
nodes = (
"548 -200 LINE",
"548 506 LINE",
"450 506 LINE",
"450 444 LINE",
"444 444 LINE",
"448 410 LINE",
"448 -200 LINE"
);
}
);
width = 622;
}
);
leftKerningGroup = LAT_O_LC;
leftMetricsKey = o;
rightKerningGroup = LAT_Q_LC;
},
{
glyphname = t.ss01;
lastChange = "2020-05-05 08:38:13 +0000";
layers = (
{
anchors = (
{
name = bottom;
position = "{168, 0}";
},
{
name = cedilla;
position = "{162, 0}";
},
{
name = center;
position = "{168, 250}";
},
{
name = top;
position = "{168, 672}";
},
{
name = topright;
position = "{202, 732}";
}
);
layerId = "AB099EFE-E788-4EFC-8633-CF147CB782A6";
paths = (
{
closed = 1;
nodes = (
"184 -2 LINE",
"184 672 LINE",
"154 672 LINE",
"154 -2 LINE"
);
},
{
closed = 1;
nodes = (
"300 472 LINE",
"300 500 LINE",
"36 500 LINE",
"36 472 LINE"
);
}
);
width = 336;
},
{
anchors = (
{
name = bottom;
position = "{212, 0}";
},
{
name = cedilla;
position = "{252, 0}";
},
{
name = center;
position = "{212, 256}";
},
{
name = top;
position = "{212, 656}";
},
{
name = topright;
position = "{282, 822}";
}
);
guideLines = (
{
angle = 100;
position = "{444, -12}";
}
);
layerId = "2D8F7115-C311-411E-929D-56333CF7FFB2";
paths = (
{
closed = 1;
nodes = (
"298 0 LINE",
"298 656 LINE",
"128 656 LINE",
"128 0 LINE"
);
},
{
closed = 1;
nodes = (
"404 368 LINE",
"404 512 LINE",
"20 512 LINE",
"20 368 LINE"
);
}
);
width = 424;
}
);
leftKerningGroup = LAT_T_LC;
rightKerningGroup = LAT_TSS04_LC;
},
{
glyphname = u.ss01;
lastChange = "2020-04-07 04:54:46 +0000";
layers = (
{
anchors = (
{
name = bottom;
position = "{282, 0}";
},
{
name = horn;
position = "{426, 500}";
},
{
name = ogonek;
position = "{432, 0}";
},
{
name = top;
position = "{262, 500}";
}
);
guideLines = (
{
angle = 60;
position = "{478, 0}";
}
);
layerId = "AB099EFE-E788-4EFC-8633-CF147CB782A6";
paths = (
{
closed = 1;
nodes = (
"332 -8 OFFCURVE",
"392 48 OFFCURVE",
"422 114 CURVE",
"416 154 LINE",
"386 90 OFFCURVE",
"326 20 OFFCURVE",
"238 20 CURVE SMOOTH",
"104 20 OFFCURVE",
"102 156 OFFCURVE",
"102 248 CURVE SMOOTH",
"102 500 LINE",
"72 500 LINE",
"72 204 LINE SMOOTH",
"72 82 OFFCURVE",
"114 -8 OFFCURVE",
"236 -8 CURVE SMOOTH"
);
},
{
closed = 1;
nodes = (
"442 0 LINE",
"442 500 LINE",
"412 500 LINE",
"412 122 LINE",
"404 94 LINE",
"412 94 LINE",
"412 0 LINE"
);
}
);
width = 522;
},
{
anchors = (
{
name = bottom;
position = "{334, 0}";
},
{
name = horn;
position = "{466, 512}";
},
{
name = ogonek;
position = "{452, 0}";
},
{
name = top;
position = "{316, 512}";
}
);
guideLines = (
{
angle = 60;
position = "{518, 0}";
}
);
layerId = "2D8F7115-C311-411E-929D-56333CF7FFB2";
paths = (
{
closed = 1;
nodes = (
"336 -12 OFFCURVE",
"400 50 OFFCURVE",
"448 138 CURVE",
"402 220 LINE",
"380 178 OFFCURVE",
"354 128 OFFCURVE",
"298 128 CURVE SMOOTH",
"236 128 OFFCURVE",
"234 192 OFFCURVE",
"234 218 CURVE SMOOTH",
"234 512 LINE",
"64 512 LINE",
"64 188 LINE SMOOTH",
"64 58 OFFCURVE",
"154 -12 OFFCURVE",
"248 -12 CURVE SMOOTH"
);
},
{
closed = 1;
nodes = (
"544 0 LINE",
"544 512 LINE",
"374 512 LINE",
"374 76 LINE",
"354 46 LINE",
"384 46 LINE",
"384 0 LINE"
);
}
);
width = 608;
},
{
anchors = (
{
name = bottom;
position = "{282, 0}";
},
{
name = horn;
position = "{440, 506}";
},
{
name = ogonek;
position = "{458, 0}";
},
{
name = top;
position = "{280, 506}";
}
);
associatedMasterId = "AB099EFE-E788-4EFC-8633-CF147CB782A6";
guideLines = (
{
angle = 60;
position = "{494, 0}";
}
);
layerId = "87917680-6E3F-4FD7-ACA5-668263386EB0";
name = "Half {450}";
paths = (
{
closed = 1;
nodes = (
"334 -12 OFFCURVE",
"404 42 OFFCURVE",
"436 104 CURVE",
"410 184 LINE",
"396 120 OFFCURVE",
"334 74 OFFCURVE",
"268 74 CURVE SMOOTH",
"168 74 OFFCURVE",
"168 180 OFFCURVE",
"168 233 CURVE SMOOTH",
"168 506 LINE",
"68 506 LINE",
"68 196 LINE SMOOTH",
"68 72 OFFCURVE",
"134 -12 OFFCURVE",
"246 -12 CURVE SMOOTH"
);
},
{
closed = 1;
nodes = (
"494 0 LINE",
"494 506 LINE",
"394 506 LINE",
"394 97 LINE",
"386 48 LINE",
"396 48 LINE",
"396 0 LINE"
);
}
);
width = 566;
}
);
leftKerningGroup = LAT_U_LC;
rightKerningGroup = LAT_ASS01_LC;
rightMetricsKey = a.ss01;
},
{
glyphname = a.ss02;
lastChange = "2020-05-05 05:44:41 +0000";
layers = (
{
anchors = (
{
name = bottom;
position = "{272, 0}";
},
{
name = ogonek;
position = "{472, 0}";
},
{
name = top;
position = "{272, 500}";
},
{
name = topright;
position = "{542, 500}";
}
);
layerId = "AB099EFE-E788-4EFC-8633-CF147CB782A6";
paths = (
{
closed = 1;
nodes = (
"396 -8 OFFCURVE",
"478 100 OFFCURVE",
"478 250 CURVE SMOOTH",
"478 400 OFFCURVE",
"396 510 OFFCURVE",
"264 510 CURVE SMOOTH",
"138 510 OFFCURVE",
"48 402 OFFCURVE",
"48 250 CURVE SMOOTH",
"48 100 OFFCURVE",
"136 -8 OFFCURVE",
"264 -8 CURVE SMOOTH"
);
},
{
closed = 1;
nodes = (
"156 22 OFFCURVE",
"78 118 OFFCURVE",
"78 248 CURVE SMOOTH",
"78 386 OFFCURVE",
"158 482 OFFCURVE",
"270 482 CURVE SMOOTH",
"382 482 OFFCURVE",
"456 380 OFFCURVE",
"456 252 CURVE SMOOTH",
"456 120 OFFCURVE",
"382 22 OFFCURVE",
"264 22 CURVE SMOOTH"
);
},
{
closed = 1;
nodes = (
"526 20 LINE",
"518 24 LINE SMOOTH",
"496 35 OFFCURVE",
"478 62 OFFCURVE",
"478 110 CURVE SMOOTH",
"478 500 LINE",
"448 500 LINE",
"448 394 LINE",
"446 394 LINE",
"448 352 LINE",
"448 139 LINE",
"438 106 LINE",
"448 106 LINE",
"448 48 OFFCURVE",
"470 16 OFFCURVE",
"500 -2 CURVE SMOOTH",
"510 -8 LINE"
);
}
);
width = 566;
},
{
anchors = (
{
name = bottom;
position = "{302, 0}";
},
{
name = ogonek;
position = "{466, 0}";
},
{
name = top;
position = "{302, 512}";
},
{
name = topright;
position = "{592, 512}";
}
);
layerId = "2D8F7115-C311-411E-929D-56333CF7FFB2";
paths = (
{
closed = 1;
nodes = (
"378 -12 OFFCURVE",
"482 112 OFFCURVE",
"482 260 CURVE SMOOTH",
"482 404 OFFCURVE",
"382 524 OFFCURVE",
"256 524 CURVE SMOOTH",
"130 524 OFFCURVE",
"28 406 OFFCURVE",
"28 258 CURVE SMOOTH",
"28 120 OFFCURVE",
"120 -12 OFFCURVE",
"250 -12 CURVE SMOOTH"
);
},
{
closed = 1;
nodes = (
"238 132 OFFCURVE",
"192 188 OFFCURVE",
"192 258 CURVE SMOOTH",
"192 326 OFFCURVE",
"238 382 OFFCURVE",
"302 382 CURVE SMOOTH",
"364 382 OFFCURVE",
"414 328 OFFCURVE",
"414 260 CURVE SMOOTH",
"414 192 OFFCURVE",
"366 132 OFFCURVE",
"300 132 CURVE SMOOTH"
);
},
{
closed = 1;
nodes = (
"610 126 LINE",
"592 134 LINE SMOOTH",
"570 144 OFFCURVE",
"560 148 OFFCURVE",
"560 206 CURVE SMOOTH",
"560 512 LINE",
"400 512 LINE",
"400 464 LINE",
"388 464 LINE",
"390 440 LINE",
"390 130 LINE",
"386 64 LINE",
"412 64 LINE",
"424 38 OFFCURVE",
"463 7 OFFCURVE",
"516 -8 CURVE SMOOTH",
"530 -12 LINE"
);
}
);
width = 634;
},
{
anchors = (
{
name = bottom;
position = "{288, 0}";
},
{
name = ogonek;
position = "{442, -2}";
},
{
name = top;
position = "{296, 506}";
},
{
name = topright;
position = "{564, 506}";
}
);
associatedMasterId = "AB099EFE-E788-4EFC-8633-CF147CB782A6";
layerId = "10222E3F-14CA-477D-B1AE-4234237F89B0";
name = "Half {450}";
paths = (
{
closed = 1;
nodes = (
"410 -10 OFFCURVE",
"490 108 OFFCURVE",
"490 258 CURVE SMOOTH",
"490 407 OFFCURVE",
"407 516 OFFCURVE",
"280 516 CURVE SMOOTH",
"140 516 OFFCURVE",
"36 400 OFFCURVE",
"36 254 CURVE SMOOTH",
"36 108 OFFCURVE",
"138 -10 OFFCURVE",
"276 -10 CURVE SMOOTH"
);
},
{
closed = 1;
nodes = (
"202 78 OFFCURVE",
"138 160 OFFCURVE",
"138 254 CURVE SMOOTH",
"138 348 OFFCURVE",
"202 428 OFFCURVE",
"286 428 CURVE SMOOTH",
"368 428 OFFCURVE",
"438 352 OFFCURVE",
"438 254 CURVE SMOOTH",
"438 156 OFFCURVE",
"368 78 OFFCURVE",
"286 78 CURVE SMOOTH"
);
},
{
closed = 1;
nodes = (
"564 74 LINE",
"552 80 LINE SMOOTH",
"524 94 OFFCURVE",
"518 116 OFFCURVE",
"518 158 CURVE SMOOTH",
"518 506 LINE",
"420 506 LINE",
"420 456 LINE",
"414 456 LINE",
"418 417 LINE",
"418 136 LINE",
"406 66 LINE",
"434 66 LINE",
"434 60 OFFCURVE",
"450 13 OFFCURVE",
"506 -6 CURVE SMOOTH",
"518 -10 LINE"
);
}
);
width = 596;
}
);
leftKerningGroup = LAT_O_LC;
leftMetricsKey = o;
rightKerningGroup = LAT_A_LC;
rightMetricsKey = u;
},
{
glyphname = g.ss03;
lastChange = "2020-04-12 11:21:32 +0000";
layers = (
{
anchors = (
{
name = bottom;
position = "{278, -208}";
},
{
name = top;
position = "{266, 500}";
}
);
background = {
paths = (
{
closed = 1;
nodes = (
"418 442 LINE",
"436 466 LINE SMOOTH",
"450 484 OFFCURVE",
"474 502 OFFCURVE",
"518 502 CURVE",
"518 530 LINE",
"476 530 OFFCURVE",
"440 516 OFFCURVE",
"416 486 CURVE SMOOTH",
"398 464 LINE"
);
}
);
};
layerId = "AB099EFE-E788-4EFC-8633-CF147CB782A6";
paths = (
{
closed = 1;
nodes = (
"402 -208 OFFCURVE",
"508 -138 OFFCURVE",
"508 -54 CURVE SMOOTH",
"508 16 OFFCURVE",
"438 62 OFFCURVE",
"342 62 CURVE SMOOTH",
"224 62 LINE SMOOTH",
"160 62 OFFCURVE",
"114 102 OFFCURVE",
"114 150 CURVE SMOOTH",
"114 174 OFFCURVE",
"126 196 OFFCURVE",
"140 208 CURVE",
"120 236 LINE",
"102 214 OFFCURVE",
"82 192 OFFCURVE",
"82 152 CURVE SMOOTH",
"82 108 OFFCURVE",
"120 34 OFFCURVE",
"216 34 CURVE SMOOTH",
"350 34 LINE SMOOTH",
"422 34 OFFCURVE",
"476 0 OFFCURVE",
"476 -52 CURVE SMOOTH",
"476 -120 OFFCURVE",
"388 -180 OFFCURVE",
"272 -180 CURVE SMOOTH",
"166 -180 OFFCURVE",
"90 -132 OFFCURVE",
"90 -66 CURVE SMOOTH",
"90 -16 OFFCURVE",
"132 34 OFFCURVE",
"172 50 CURVE",
"146 68 LINE",
"98 42 OFFCURVE",
"60 -14 OFFCURVE",
"60 -66 CURVE SMOOTH",
"60 -146 OFFCURVE",
"146 -208 OFFCURVE",
"272 -208 CURVE SMOOTH"
);
},
{
closed = 1;
nodes = (
"380 158 OFFCURVE",
"462 228 OFFCURVE",
"462 332 CURVE SMOOTH",
"462 434 OFFCURVE",
"384 508 OFFCURVE",
"266 508 CURVE SMOOTH",
"154 508 OFFCURVE",
"74 438 OFFCURVE",
"74 334 CURVE SMOOTH",
"74 230 OFFCURVE",
"156 158 OFFCURVE",
"268 158 CURVE SMOOTH"
);
},
{
closed = 1;
nodes = (
"174 186 OFFCURVE",
"106 246 OFFCURVE",
"106 332 CURVE SMOOTH",
"106 420 OFFCURVE",
"174 480 OFFCURVE",
"266 480 CURVE SMOOTH",
"362 480 OFFCURVE",
"430 420 OFFCURVE",
"430 332 CURVE SMOOTH",
"430 246 OFFCURVE",
"362 186 OFFCURVE",
"266 186 CURVE SMOOTH"
);
},
{
closed = 1;
nodes = (
"444 456 OFFCURVE",
"476 475 OFFCURVE",
"516 492 CURVE",
"500 520 LINE",
"462 501 OFFCURVE",
"428 481 OFFCURVE",
"400 460 CURVE",
"414 434 LINE"
);
}
);
width = 570;
},
{
anchors = (
{
name = bottom;
position = "{292, -212}";
},
{
name = top;
position = "{282, 512}";
}
);
background = {
paths = (
{
closed = 1;
nodes = (
"450 418 LINE",
"460 434 LINE SMOOTH",
"475 458 OFFCURVE",
"518 462 OFFCURVE",
"570 460 CURVE",
"570 582 LINE",
"502 582 OFFCURVE",
"441 555 OFFCURVE",
"406 508 CURVE SMOOTH",
"372 462 LINE"
);
}
);
};
layerId = "2D8F7115-C311-411E-929D-56333CF7FFB2";
paths = (
{
closed = 1;
nodes = (
"476 -212 OFFCURVE",
"574 -148 OFFCURVE",
"574 -44 CURVE SMOOTH",
"574 48 OFFCURVE",
"500 94 OFFCURVE",
"400 94 CURVE SMOOTH",
"282 94 LINE SMOOTH",
"228 94 OFFCURVE",
"184 112 OFFCURVE",
"184 146 CURVE SMOOTH",
"184 164 OFFCURVE",
"196 178 OFFCURVE",
"210 184 CURVE",
"154 236 LINE",
"94 208 OFFCURVE",
"74 146 OFFCURVE",
"74 110 CURVE SMOOTH",
"74 34 OFFCURVE",
"166 -12 OFFCURVE",
"298 -12 CURVE SMOOTH",
"356 -12 LINE SMOOTH",
"392 -12 OFFCURVE",
"418 -22 OFFCURVE",
"418 -44 CURVE SMOOTH",
"418 -72 OFFCURVE",
"372 -90 OFFCURVE",
"302 -90 CURVE SMOOTH",
"232 -90 OFFCURVE",
"158 -72 OFFCURVE",
"158 -32 CURVE SMOOTH",
"158 -10 OFFCURVE",
"178 16 OFFCURVE",
"206 24 CURVE",
"112 56 LINE",
"62 42 OFFCURVE",
"24 -14 OFFCURVE",
"24 -68 CURVE SMOOTH",
"24 -156 OFFCURVE",
"120 -212 OFFCURVE",
"292 -212 CURVE SMOOTH"
);
},
{
closed = 1;
nodes = (
"412 146 OFFCURVE",
"506 226 OFFCURVE",
"506 334 CURVE SMOOTH",
"506 444 OFFCURVE",
"410 524 OFFCURVE",
"280 524 CURVE SMOOTH",
"154 524 OFFCURVE",
"60 448 OFFCURVE",
"60 340 CURVE SMOOTH",
"60 230 OFFCURVE",
"158 146 OFFCURVE",
"286 146 CURVE SMOOTH"
);
},
{
closed = 1;
nodes = (
"238 258 OFFCURVE",
"204 290 OFFCURVE",
"204 332 CURVE SMOOTH",
"204 372 OFFCURVE",
"238 404 OFFCURVE",
"282 404 CURVE SMOOTH",
"328 404 OFFCURVE",
"362 372 OFFCURVE",
"362 330 CURVE SMOOTH",
"362 290 OFFCURVE",
"330 258 OFFCURVE",
"284 258 CURVE SMOOTH"
);
},
{
closed = 1;
nodes = (
"501 439 OFFCURVE",
"518 446 OFFCURVE",
"580 446 CURVE",
"548 566 LINE",
"499 553 OFFCURVE",
"459 536 OFFCURVE",
"384 478 CURVE",
"454 422 LINE"
);
}
);
width = 590;
},
{
anchors = (
{
name = bottom;
position = "{286, -210}";
},
{
name = top;
position = "{282, 506}";
}
);
associatedMasterId = "AB099EFE-E788-4EFC-8633-CF147CB782A6";
background = {
paths = (
{
closed = 1;
nodes = (
"474 495 OFFCURVE",
"490 500 OFFCURVE",
"506 502 CURVE",
"504 572 LINE",
"476 567 OFFCURVE",
"452 561 OFFCURVE",
"430 550 CURVE",
"409 538 OFFCURVE",
"392 526 OFFCURVE",
"378 510 CURVE",
"364 490 LINE",
"338 500 OFFCURVE",
"310 506 OFFCURVE",
"280 504 CURVE",
"243 506 OFFCURVE",
"211 498 OFFCURVE",
"182 484 CURVE",
"154 469 OFFCURVE",
"131 450 OFFCURVE",
"116 424 CURVE",
"99 401 OFFCURVE",
"90 373 OFFCURVE",
"90 340 CURVE",
"90 308 OFFCURVE",
"99 280 OFFCURVE",
"116 254 CURVE",
"122 243 OFFCURVE",
"129 235 OFFCURVE",
"138 228 CURVE",
"133 219 OFFCURVE",
"128 214 OFFCURVE",
"124 208 CURVE",
"112 187 OFFCURVE",
"106 166 OFFCURVE",
"106 142 CURVE",
"106 119 OFFCURVE",
"113 97 OFFCURVE",
"126 76 CURVE",
"125 76 OFFCURVE",
"125 76 OFFCURVE",
"126 76 CURVE",
"110 64 OFFCURVE",
"97 50 OFFCURVE",
"88 32 CURVE",
"72 7 OFFCURVE",
"65 -18 OFFCURVE",
"64 -46 CURVE",
"65 -76 OFFCURVE",
"75 -104 OFFCURVE",
"92 -128 CURVE",
"112 -152 OFFCURVE",
"139 -173 OFFCURVE",
"174 -186 CURVE",
"207 -200 OFFCURVE",
"245 -207 OFFCURVE",
"286 -208 CURVE",
"332 -207 OFFCURVE",
"374 -200 OFFCURVE",
"410 -186 CURVE",
"446 -173 OFFCURVE",
"475 -153 OFFCURVE",
"496 -128 CURVE",
"517 -103 OFFCURVE",
"528 -73 OFFCURVE",
"530 -38 CURVE",
"528 -4 OFFCURVE",
"517 23 OFFCURVE",
"498 42 CURVE",
"476 58 OFFCURVE",
"452 71 OFFCURVE",
"426 76 CURVE",
"400 81 OFFCURVE",
"371 84 OFFCURVE",
"338 84 CURVE",
"278 84 LINE",
"245 84 OFFCURVE",
"221 90 OFFCURVE",
"206 102 CURVE",
"193 115 OFFCURVE",
"185 130 OFFCURVE",
"184 148 CURVE",
"185 163 OFFCURVE",
"190 177 OFFCURVE",
"198 188 CURVE",
"223 177 OFFCURVE",
"251 172 OFFCURVE",
"282 172 CURVE",
"317 172 OFFCURVE",
"350 179 OFFCURVE",
"378 192 CURVE",
"406 208 OFFCURVE",
"428 228 OFFCURVE",
"446 254 CURVE",
"460 279 OFFCURVE",
"468 308 OFFCURVE",
"468 338 CURVE",
"468 372 OFFCURVE",
"460 400 OFFCURVE",
"444 424 CURVE",
"438 435 OFFCURVE",
"430 444 OFFCURVE",
"422 452 CURVE",
"426 458 LINE",
"434 469 OFFCURVE",
"446 479 OFFCURVE",
"458 488 CURVE"
);
},
{
closed = 1;
nodes = (
"338 8 LINE",
"366 9 OFFCURVE",
"391 5 OFFCURVE",
"412 -2 CURVE",
"431 -10 OFFCURVE",
"442 -25 OFFCURVE",
"442 -48 CURVE",
"442 -64 OFFCURVE",
"435 -80 OFFCURVE",
"420 -94 CURVE",
"405 -106 OFFCURVE",
"386 -116 OFFCURVE",
"364 -122 CURVE",
"340 -129 OFFCURVE",
"315 -132 OFFCURVE",
"288 -134 CURVE",
"248 -132 OFFCURVE",
"213 -124 OFFCURVE",
"184 -108 CURVE",
"159 -90 OFFCURVE",
"146 -69 OFFCURVE",
"144 -46 CURVE",
"146 -28 OFFCURVE",
"151 -11 OFFCURVE",
"164 6 CURVE",
"169 14 OFFCURVE",
"175 22 OFFCURVE",
"182 28 CURVE",
"182 28 OFFCURVE",
"182 27 OFFCURVE",
"184 28 CURVE",
"209 14 OFFCURVE",
"240 9 OFFCURVE",
"280 8 CURVE"
);
},
{
closed = 1;
nodes = (
"338 254 OFFCURVE",
"312 244 OFFCURVE",
"282 244 CURVE",
"249 245 OFFCURVE",
"222 254 OFFCURVE",
"202 274 CURVE",
"181 289 OFFCURVE",
"171 312 OFFCURVE",
"172 340 CURVE",
"171 369 OFFCURVE",
"181 392 OFFCURVE",
"202 410 CURVE",
"221 426 OFFCURVE",
"248 435 OFFCURVE",
"280 436 CURVE",
"311 435 OFFCURVE",
"337 425 OFFCURVE",
"358 410 CURVE",
"378 391 OFFCURVE",
"388 368 OFFCURVE",
"390 338 CURVE",
"388 312 OFFCURVE",
"378 289 OFFCURVE",
"358 274 CURVE"
);
},
{
closed = 1;
nodes = (
"432 442 LINE",
"446 462 LINE SMOOTH",
"460 482 OFFCURVE",
"492 494 OFFCURVE",
"542 494 CURVE",
"542 568 LINE",
"486 568 OFFCURVE",
"430 550 OFFCURVE",
"404 510 CURVE SMOOTH",
"382 476 LINE"
);
}
);
};
layerId = "D548E82C-F1D5-44DE-B786-3582CB4D3885";
name = "Half {450}";
paths = (
{
closed = 1;
nodes = (
"440 -210 OFFCURVE",
"542 -140 OFFCURVE",
"542 -44 CURVE SMOOTH",
"542 38 OFFCURVE",
"464 86 OFFCURVE",
"372 86 CURVE SMOOTH",
"276 86 LINE SMOOTH",
"242 86 OFFCURVE",
"186 92 OFFCURVE",
"186 140 CURVE SMOOTH",
"186 160 OFFCURVE",
"196 172 OFFCURVE",
"216 186 CURVE",
"158 232 LINE",
"118 206 OFFCURVE",
"98 174 OFFCURVE",
"98 138 CURVE SMOOTH",
"98 76 OFFCURVE",
"144 2 OFFCURVE",
"278 2 CURVE SMOOTH",
"350 2 LINE SMOOTH",
"398 2 OFFCURVE",
"442 -4 OFFCURVE",
"442 -42 CURVE SMOOTH",
"442 -88 OFFCURVE",
"382 -122 OFFCURVE",
"286 -122 CURVE SMOOTH",
"214 -122 OFFCURVE",
"146 -100 OFFCURVE",
"146 -46 CURVE SMOOTH",
"146 -6 OFFCURVE",
"178 16 OFFCURVE",
"208 26 CURVE",
"132 64 LINE",
"82 40 OFFCURVE",
"50 0 OFFCURVE",
"50 -54 CURVE SMOOTH",
"50 -148 OFFCURVE",
"154 -210 OFFCURVE",
"288 -210 CURVE SMOOTH"
);
},
{
closed = 1;
nodes = (
"402 154 OFFCURVE",
"484 230 OFFCURVE",
"484 334 CURVE SMOOTH",
"484 438 OFFCURVE",
"400 516 OFFCURVE",
"280 516 CURVE SMOOTH",
"170 516 OFFCURVE",
"80 440 OFFCURVE",
"80 336 CURVE SMOOTH",
"80 230 OFFCURVE",
"170 154 OFFCURVE",
"282 154 CURVE SMOOTH"
);
},
{
closed = 1;
nodes = (
"226 238 OFFCURVE",
"178 278 OFFCURVE",
"178 332 CURVE SMOOTH",
"178 388 OFFCURVE",
"226 428 OFFCURVE",
"282 428 CURVE SMOOTH",
"346 428 OFFCURVE",
"388 388 OFFCURVE",
"386 332 CURVE SMOOTH",
"388 278 OFFCURVE",
"346 238 OFFCURVE",
"282 238 CURVE SMOOTH"
);
},
{
closed = 1;
nodes = (
"475 442 OFFCURVE",
"499 454 OFFCURVE",
"548 464 CURVE",
"508 550 LINE",
"466 533 OFFCURVE",
"428 515 OFFCURVE",
"374 476 CURVE",
"434 424 LINE"
);
}
);
width = 580;
}
);
leftKerningGroup = LAT_G_LC;
rightKerningGroup = LAT_G_LC;
},
{
glyphname = idotless.ss05;
lastChange = "2020-04-28 11:18:56 +0000";
layers = (
{
anchors = (
{
name = bottom;
position = "{136, 0}";
},
{
name = center;
position = "{104, 270}";
},
{
name = ogonek;
position = "{160, 0}";
},
{
name = top;
position = "{104, 500}";
}
);
guideLines = (
{
angle = 80;
position = "{178, -8}";
}
);
layerId = "AB099EFE-E788-4EFC-8633-CF147CB782A6";
paths = (
{
closed = 1;
nodes = (
"178 -4 OFFCURVE",
"192 -2 OFFCURVE",
"216 6 CURVE",
"210 34 LINE",
"202 31 OFFCURVE",
"190 24 OFFCURVE",
"168 24 CURVE SMOOTH",
"118 24 OFFCURVE",
"118 76 OFFCURVE",
"118 118 CURVE SMOOTH",
"118 500 LINE",
"88 500 LINE",
"88 116 LINE SMOOTH",
"88 66 OFFCURVE",
"88 -4 OFFCURVE",
"164 -4 CURVE SMOOTH"
);
}
);
width = 236;
},
{
anchors = (
{
name = bottom;
position = "{160, 0}";
},
{
name = center;
position = "{148, 270}";
},
{
name = ogonek;
position = "{196, 0}";
},
{
name = top;
position = "{148, 512}";
}
);
guideLines = (
{
angle = 80;
position = "{272, -8}";
}
);
layerId = "2D8F7115-C311-411E-929D-56333CF7FFB2";
paths = (
{
closed = 1;
nodes = (
"236 -12 OFFCURVE",
"280 -4 OFFCURVE",
"306 8 CURVE",
"284 138 LINE",
"275 134 OFFCURVE",
"268 132 OFFCURVE",
"260 132 CURVE SMOOTH",
"230 132 OFFCURVE",
"230 150 OFFCURVE",
"230 170 CURVE SMOOTH",
"230 512 LINE",
"60 512 LINE",
"60 120 LINE SMOOTH",
"60 40 OFFCURVE",
"112 -12 OFFCURVE",
"208 -12 CURVE SMOOTH"
);
}
);
width = 322;
},
{
anchors = (
{
name = bottom;
position = "{150, 0}";
},
{
name = center;
position = "{130, 270}";
},
{
name = ogonek;
position = "{196, 0}";
},
{
name = top;
position = "{134, 506}";
}
);
associatedMasterId = "AB099EFE-E788-4EFC-8633-CF147CB782A6";
guideLines = (
{
angle = 80;
position = "{180, -8}";
}
);
layerId = "FCE0932C-1120-48E4-95DD-8C2B49BF8D66";
name = "Half {450}";
paths = (
{
closed = 1;
nodes = (
"212 -8 OFFCURVE",
"246 -4 OFFCURVE",
"268 4 CURVE",
"252 90 LINE",
"240 86 OFFCURVE",
"230 84 OFFCURVE",
"220 84 CURVE SMOOTH",
"180 84 OFFCURVE",
"180 118 OFFCURVE",
"180 146 CURVE SMOOTH",
"180 506 LINE",
"80 506 LINE",
"80 134 LINE SMOOTH",
"80 48 OFFCURVE",
"118 -8 OFFCURVE",
"192 -8 CURVE SMOOTH"
);
}
);
width = 288;
}
);
},
{
glyphname = w.ss06;
lastChange = "2020-04-28 11:31:41 +0000";
layers = (
{
anchors = (
{
name = bottom;
position = "{366, 0}";
},
{
name = top;
position = "{366, 500}";
}
);
layerId = "AB099EFE-E788-4EFC-8633-CF147CB782A6";
paths = (
{
closed = 1;
nodes = (
"224 0 LINE",
"320 326 LINE",
"364 472 LINE",
"368 472 LINE",
"410 326 LINE",
"506 0 LINE",
"548 0 LINE",
"702 500 LINE",
"672 500 LINE",
"570 164 LINE",
"530 30 LINE",
"526 30 LINE",
"486 164 LINE",
"386 500 LINE",
"344 500 LINE",
"244 164 LINE",
"206 30 LINE",
"200 30 LINE",
"160 164 LINE",
"58 500 LINE",
"28 500 LINE",
"182 0 LINE"
);
}
);
width = 730;
},
{
anchors = (
{
name = bottom;
position = "{410, 0}";
},
{
name = top;
position = "{410, 512}";
}
);
layerId = "2D8F7115-C311-411E-929D-56333CF7FFB2";
paths = (
{
closed = 1;
nodes = (
"342 0 LINE",
"378 126 LINE",
"406 228 LINE",
"410 228 LINE",
"440 126 LINE",
"476 0 LINE",
"652 0 LINE",
"800 512 LINE",
"620 512 LINE",
"578 298 LINE",
"562 166 LINE",
"558 166 LINE",
"522 302 LINE",
"472 512 LINE",
"348 512 LINE",
"296 302 LINE",
"260 166 LINE",
"254 166 LINE",
"236 298 LINE",
"196 512 LINE",
"16 512 LINE",
"166 0 LINE"
);
}
);
width = 816;
},
{
anchors = (
{
name = bottom;
position = "{390, 0}";
},
{
name = top;
position = "{390, 506}";
}
);
associatedMasterId = "AB099EFE-E788-4EFC-8633-CF147CB782A6";
layerId = "9B1A4859-9285-499E-84F7-9A78070A500A";
name = "Half {450}";
paths = (
{
closed = 1;
nodes = (
"290 0 LINE",
"358 238 LINE",
"388 364 LINE",
"392 364 LINE",
"426 238 LINE",
"490 0 LINE",
"604 0 LINE",
"754 506 LINE",
"652 506 LINE",
"574 224 LINE",
"546 104 LINE",
"542 104 LINE",
"516 224 LINE",
"434 506 LINE",
"346 506 LINE",
"264 224 LINE",
"234 104 LINE",
"230 104 LINE",
"202 224 LINE",
"124 506 LINE",
"24 506 LINE",
"174 0 LINE"
);
}
);
width = 778;
}
);
leftKerningGroup = LAT_V_LC;
leftMetricsKey = v;
rightKerningGroup = LAT_V_LC;
rightMetricsKey = v;
},
